<?xml version="1.0" encoding="UTF-8" standalone="no"?>
<?xml-stylesheet href="svg.css" type="text/css"?>
<!DOCTYPE svg PUBLIC "-//W3C//DTD SVG 1.1//EN" "http://www.w3.org/Graphics/SVG/1.1/DTD/svg11.dtd">
<!-- Creator: CorelDRAW X7 -->
<svg id="karta" xmlns="http://www.w3.org/2000/svg" xml:space="preserve" width="1400" height="960" shape-rendering="geometricPrecision" text-rendering="geometricPrecision" image-rendering="optimizeQuality" fill-rule="evenodd" clip-rule="evenodd"
viewBox="0 0 1400 960" xmlns:xlink="http://www.w3.org/1999/xlink">
 
 

 
 <g id ="zombi">
 
 <g id="More i granica">
  <path id="More" fill="#D4EDFC" d="M296 236l0 0c-6,-8 -13,-15 -19,-22l-1 -1 0 1c-7,2 -14,5 -21,7l-1 0 0 1c-5,6 -9,12 -14,19l0 0 0 1c2,8 4,16 7,24 1,19 2,37 3,55l0 0 0 0c1,2 2,3 2,5 2,6 3,12 5,18l0 0 0 0c3,5 6,10 9,15 1,3 3,6 4,10l0 0 0 0c12,16 24,33 35,49l0 0 0 0c20,18 40,35 59,53 13,9 25,18 37,28 14,15 28,31 41,47l0 0 1 0c3,3 6,6 9,9 17,18 33,37 50,56l0 0 0 0c11,10 22,20 34,29 9,7 19,14 28,21l0 0 0 0c17,8 34,15 51,23 2,2 4,4 6,6 3,4 6,8 8,12 -1,1 -3,2 -5,4 -5,-3 -10,-4 -16,-4 -5,0 -9,1 -14,2 -6,-7 -14,-12 -23,-14 -12,-2 -26,1 -35,9 -11,10 -17,25 -15,40 3,19 18,34 38,36 4,1 7,0 11,0 9,7 14,11 25,12 7,3 9,2 16,1 8,7 16,11 27,11 12,1 22,-5 30,-13 1,0 3,0 4,0 0,2 -1,4 -1,6 -1,7 -1,15 3,22 2,6 6,11 11,15 0,0 0,1 0,1 -1,-1 -3,-1 -4,-1 -19,-2 -36,10 -42,28 -6,16 -2,35 12,47 4,3 9,6 14,8 8,2 16,5 25,6 5,0 9,-1 13,-2 13,-5 21,-13 26,-25 1,-3 2,-5 3,-8 0,-3 1,-6 1,-9 0,-11 -5,-23 -13,-30 -2,-2 -4,-3 -5,-4 5,0 11,-2 16,-4 6,3 11,5 17,5 2,1 4,2 7,2 4,2 8,3 13,3 5,0 10,0 16,-1 17,-4 34,-5 51,-9 23,6 46,12 70,18 8,2 15,3 23,5 9,3 18,6 27,8 11,8 21,16 31,23l0 0 0 0c6,3 11,6 16,9l0 0 39 15 -6 -42 -2 -4 0 -1 -2 -1 -1 -1 0 0c0,0 0,1 0,1l0 0 0 0 0 0 0 0 0 0 0 0 0 0 0 0 0 0 0 0 0 0 0 0 0 0 0 0 0 0 0 0 0 0 0 0 0 0 0 0 0 0 0 0 0 0 0 0 0 0 0 0 0 0 0 0 0 0 0 0 0 0 0 0 0 0 0 0 0 0 0 0 0 0 0 0 0 0 0 0 0 0 0 0 0 0 0 0 0 0 0 0 0 0 0 0 0 0 0 0 0 0 0 0 0 0 0 0 0 0 0 0 0 0 0 0 0 0 0 0 0 0 0 0 0 0 0 0 0 0 0 0 0 0 0 0 0 0 0 0 0 0 0 0 0 0 0 0 0 0 0 0 0 0 0 0 0 0 0 0 0 1 0 0 0 0 0 0 0 0 0 0 0 0 0 0 0 0 0 0 0 0 0 0 0 0 0 0 0 0 0 0 0 0 0 0 0 0 0 0 0 0 0 0 0 0 0 0 0 0 0 0 0 0 0 0 0 0 0 0 0 0 0 0 0 0 0 0 0 0 0 0 0 0 0 0 0 0 0 0 0 0 0 0 0 0 0 0 0 0 0 0 0 0 0 0 0 0 0 0 0 0 0 0 0 0 0 0 0 0 0 0 0 0 0 0 0 0 0 0 0 0 0 0 0 0 0 0 0 0 0 0 0 0 0 0 0 0 0 0 0 0 0 0 0 0 0 0 0 0 0 0 0 0 0 0 0 0 0 0 0 0 0 0 0 0 0 0 0 0 0 0 0 0 0 0 0 0 0 0 0 0 0 0 0 0 0 0 0 0 0 0 0 0 0 0 0 0 0 0 0 0 0 1 0 0 0 0 0 0 0 0 0 0 0 0 0 0 0 0 0 0 0 0 0 0 0 0 0 0 0 0 0 0 0 0 0 0 0 0 0 0 0 0 0 0 0 0 0 0 0 0 0 0 0 0 0 0 0 0 0 0 0 0 0 0 0 0 0 0 0 0 0 0 0 0 0 0 0 0c1,0 1,1 1,1 1,1 1,1 1,2 0,0 -1,1 -2,0 -2,-1 -3,-3 -5,-4 0,-1 -1,-1 -2,-2 -1,0 -2,-1 -2,-2 -1,-1 -1,-1 -1,-2 -1,-1 -1,-1 -2,-1 -1,0 -2,0 -3,0 -1,0 -2,-1 -2,-2 0,0 1,-1 1,-1 0,-1 -1,-1 -2,-2 -2,-1 -3,-2 -5,-3 -2,-1 -4,-1 -6,-2 -2,-1 -4,-2 -5,-4 -5,-3 -8,-7 -12,-10 -1,-1 -2,-2 -3,-3 -1,-1 -1,-1 -1,-2 0,0 1,-1 1,-1 1,0 1,1 1,1 1,0 1,0 2,-1 0,0 -1,-1 -1,-2 -1,-1 -1,-2 -2,-3 0,0 -1,-1 -2,-1 -1,0 -1,1 -2,1 -1,0 -2,-1 -3,-1 -1,0 -2,-1 -3,-2 -1,0 -2,-1 -3,-1 0,-1 -1,-1 -2,-1 -1,-1 -2,-2 -3,-2 -1,0 -2,0 -2,0 -1,-1 -1,-1 -2,-1 -1,-1 -1,-2 0,-2 0,0 1,0 1,0 1,0 1,0 2,0 0,0 0,-1 1,-1 0,0 1,0 1,0 1,-1 2,-1 2,-1 0,-1 -1,-2 -2,-1 -2,0 -3,1 -5,1 -1,1 -2,0 -2,0 0,-1 1,-2 1,-3 0,0 0,-1 -1,-1 0,0 -1,0 -1,0 0,1 0,1 0,2 0,0 -1,0 -1,0 0,0 0,0 0,0 -1,0 -1,-1 -1,-1 -1,-1 -1,-1 -2,-1 -2,-1 -4,-2 -6,-3 -1,0 -2,0 -3,0 -1,0 -1,-1 -2,-1 -1,-1 -3,-1 -4,-2 0,0 0,-2 -1,-2 -1,-1 -2,-2 -3,-2 -1,-1 -2,-2 -3,-2 -1,-1 -2,0 -2,0 -1,0 -1,0 -1,0 -1,-1 -1,-2 -2,-2 0,0 -1,0 -2,-1 0,0 0,-1 0,-1 0,-1 1,-1 1,-2 0,0 1,0 1,-1 0,0 -1,-1 -1,-1 -1,0 -2,1 -3,1 -1,0 -2,0 -3,-1 0,0 0,-1 0,-2 0,0 0,-1 -1,-1 0,-1 -1,-1 -1,-1 -1,0 -1,1 -2,1 0,0 0,0 -1,1 0,0 0,1 -1,1 0,1 -1,1 -1,1 -1,-1 -1,-2 -2,-2 -1,-1 -2,-3 -3,-4 -1,0 -2,-1 -2,-1 -1,0 -2,1 -1,2 0,0 1,0 1,1 1,0 1,1 1,1 0,0 1,0 2,1 0,1 1,1 1,2 0,1 1,1 1,2 0,1 0,3 0,3 0,1 -1,1 -1,1 -1,0 0,-1 -1,-1 0,-1 -1,-2 -1,-3 0,-1 0,-2 -1,-2 -1,-1 -2,-1 -3,-1 -1,0 -2,0 -3,-1 -1,0 -1,-2 -2,-2 -1,0 -2,1 -2,1 -2,0 -3,-1 -4,-1 -1,0 -2,-1 -3,-2 -1,0 -2,0 -2,0 -1,-1 -2,-1 -3,-2 -2,0 -4,-1 -7,-2 -2,0 -4,-1 -6,-1 -2,-1 -4,-2 -6,-3 -1,-1 -2,-1 -2,-1 -1,0 -3,0 -3,-1 -1,0 -1,-1 -1,-2 1,0 2,0 2,0 0,-1 0,-2 0,-3 -1,0 -2,-1 -3,-1 -1,-1 -3,-2 -4,-2 -1,0 -2,1 -2,1 -1,0 -2,0 -3,0 -1,-1 -1,-2 -2,-2 -1,-1 -2,0 -3,-1 -1,0 -3,-1 -4,-2 -2,-1 -5,-2 -7,-3 -3,-1 -6,-3 -8,-4 -1,-1 -2,-1 -3,-1 0,0 -1,0 -2,0 -1,1 -2,1 -3,1 -2,0 -3,0 -4,0 -2,-1 -4,-2 -6,-2 -1,0 -2,0 -3,0 -1,0 -2,-2 -3,-2 -1,-1 -2,-1 -4,-1 0,-1 -1,0 -2,0 0,0 -1,-1 -1,-2 1,0 2,0 2,-1 1,0 1,0 2,-1 0,-1 -1,-1 -1,-1 0,-1 -1,-1 -1,-1 -1,-1 0,-1 -1,-2 0,0 0,-1 0,-1 1,0 1,0 2,0 0,0 1,1 1,1 1,0 1,0 2,1 0,0 1,1 2,1 0,0 1,0 2,0 0,0 1,1 2,1 3,0 5,0 8,0 1,-1 1,-1 1,-1 1,-1 2,-1 2,0 1,0 1,1 2,1 0,1 1,1 2,1 2,0 3,-1 5,-1 1,0 2,0 3,1 1,0 2,-1 3,-1 1,0 2,1 3,2 0,0 1,-1 2,0 3,0 5,1 7,2 2,1 3,2 5,3 0,1 1,1 2,2 1,0 2,0 3,0 0,0 1,0 2,0 1,1 3,3 4,4 1,0 2,1 2,1 1,1 0,2 1,3 1,1 2,2 4,3 0,0 1,-1 2,-1 1,0 1,1 1,1 1,1 1,1 2,1 0,0 0,1 1,1 0,0 1,0 1,0 0,-1 0,-1 0,-1 -1,-1 -1,-2 -1,-2 0,-1 1,-1 2,0 1,0 2,1 3,2 2,1 4,2 6,4 1,0 2,0 3,0 0,1 1,1 1,2 2,1 3,2 5,3 1,1 3,3 5,4 0,0 1,0 2,0 1,0 2,1 3,2 0,0 1,0 1,0 0,0 0,-1 0,-1 0,-1 -1,-1 -1,-1 -1,-1 -2,-2 -2,-3 -1,0 0,-1 0,-2 0,0 -1,-1 -1,-1 -1,0 -2,1 -2,1 -3,-1 -6,-3 -9,-5 -1,-1 -3,-2 -5,-3 -1,0 -2,-1 -3,-1 -1,-1 -2,-1 -2,-2 0,0 1,-1 1,-1 2,0 3,1 4,2 1,0 2,0 2,0 0,0 0,-1 0,-2 -1,0 -2,0 -3,-1 -1,-1 -3,-2 -4,-2 -1,0 -2,1 -3,1 -1,0 -2,0 -2,-1 -1,0 -2,-1 -3,-2 0,0 -2,0 -2,-1 -1,-1 -2,-3 -3,-5 0,-1 -1,-1 -1,-2 0,0 1,-1 1,-1 1,-1 1,-2 1,-3 0,0 0,-1 -1,-1 0,-1 -1,-1 -1,-1 -1,0 -1,0 -2,0 0,-1 0,-1 0,-2 0,0 0,-1 -1,-1 0,0 -1,0 -1,0 -1,0 -1,0 -1,-1 0,0 0,-1 0,-1 0,-1 0,-2 0,-2 0,-1 -1,-1 -2,-1 0,0 0,1 -1,1 0,1 1,1 1,2 0,1 -1,1 -1,1 -1,0 -1,0 -2,-1 0,-1 0,-2 -1,-3 -1,0 -2,0 -2,0 -1,-1 -2,-2 -3,-3 -1,-1 -2,-1 -3,-3 0,0 0,-1 -1,-2 0,-1 0,-2 -1,-2 -1,-1 -2,-1 -3,-2 -1,0 -1,-1 -2,-1 -1,0 -2,0 -3,-1 0,0 -1,-1 -2,-1 -1,-1 -1,-2 -2,-3 0,0 -1,-1 -2,-1 0,0 -1,0 -2,0 0,0 -1,0 -1,0 -1,-1 -2,-2 -3,-3 -2,0 -3,0 -4,0 -1,-1 -3,-1 -4,-2 0,-1 -1,-2 -1,-3 -1,0 -3,0 -3,-1 -2,-1 -2,-2 -4,-4 -1,-1 -2,-2 -3,-3 -1,-1 -2,-2 -4,-3 0,-1 -1,-2 -2,-3 -1,-1 -1,-2 -2,-3 -1,0 -2,-1 -3,-1 -1,-1 -2,-2 -3,-3 -2,-1 -3,-2 -5,-4 -2,-2 -4,-3 -5,-5 -1,-1 0,-2 -1,-3 0,0 -1,0 -1,0 -2,-1 -3,-2 -4,-3 -1,-1 -2,-2 -3,-2 0,-1 -1,-2 -1,-2 -1,0 -2,0 -2,0 -1,0 -2,0 -3,0 -2,0 -3,1 -4,0 -2,0 -4,-1 -6,-1 -1,-1 -1,-2 -2,-2 -2,-1 -3,-1 -5,-2 -1,0 -2,0 -2,-1 -1,0 0,-1 -1,-2 0,0 -1,0 -1,0 -1,0 -1,1 -2,1 -1,0 -2,-1 -3,-1 -1,0 -3,0 -4,-1 -2,-1 -2,-2 -4,-3 -1,0 -3,-1 -5,-2 -1,-1 -2,-2 -3,-2 -1,-1 -2,-2 -3,-3 0,-1 -1,-1 -2,-2 0,0 -1,1 -2,1 0,0 -1,0 -2,0 -1,0 -2,-1 -3,-1 -1,0 -2,0 -3,0 0,0 0,-1 0,-1 -1,0 -1,0 -2,0 0,0 0,1 -1,1 -1,0 -2,0 -3,-1 0,0 -1,0 -1,0 0,0 -1,-1 0,-1 0,-1 1,-1 2,-1 1,0 1,-1 2,-1 1,0 2,1 4,1 0,0 1,0 2,0 0,-1 1,-1 1,-2 0,0 -1,-1 -1,-1 -2,0 -3,-1 -4,-1 -1,0 -3,-1 -4,-1 -1,0 -3,0 -4,-1 -2,0 -4,0 -6,0 -1,0 -2,1 -3,1 -1,0 -2,1 -3,2 -1,1 -1,1 -2,2 -1,0 -2,-1 -3,-1 -1,0 -3,1 -4,1 -1,0 -2,0 -3,1 -1,0 -2,2 -4,2 -1,0 -1,-1 -2,-1 -1,0 -2,0 -3,0 0,0 -1,-1 -1,-2 -1,0 -2,1 -3,1 -1,0 -2,-1 -2,-1 -1,0 -1,0 -2,1 0,0 0,1 0,1 2,1 3,1 5,1 1,0 2,1 2,1 0,1 1,2 0,2 0,1 -1,1 -2,1 -1,0 -2,1 -2,1 -1,0 -2,-1 -2,-1 -1,0 -1,0 -1,1 0,0 1,1 1,1 0,1 -1,1 -1,1 -1,0 -1,0 -2,0 0,0 -1,1 -1,1 -1,0 -1,-1 -2,-1 0,-1 -1,-2 -1,-2 -1,0 -2,1 -2,1 -1,0 -1,0 -1,0 -1,1 -1,0 -2,0 0,0 -1,-1 -1,-1 0,-1 -1,-1 -1,-1 -1,0 -2,0 -2,0 -1,0 -2,0 -3,0 0,-1 -1,-1 -1,-1 -1,-1 0,-1 -1,-2 0,0 0,0 -1,0 -1,0 -1,1 -2,0 -1,0 -2,-1 -3,-2 0,0 1,-1 1,-1 1,0 2,0 2,0 1,0 1,0 1,-1 1,0 1,-1 1,-2 0,0 0,-1 0,-1 -1,0 -1,1 -2,1 0,0 -1,1 -2,1 0,0 0,-1 0,-1 -1,-1 -2,-1 -2,-2 -1,0 -2,-1 -2,-2 0,-1 0,-1 0,-1 0,-1 1,-1 1,-2 0,0 -1,0 -1,0 -1,-1 -2,-1 -2,-1 0,-1 1,-2 1,-3 0,-1 -1,-1 -1,-2 0,-1 1,-1 1,-2 0,-1 0,-1 0,-2 0,-1 -1,-2 0,-2 0,-1 1,-1 1,-1 1,0 1,1 2,1 0,0 1,0 2,-1 0,0 0,-1 0,-1 0,-1 -1,-1 -2,-1 -1,0 -1,0 -2,0 0,0 -1,0 -2,0 0,0 0,-1 0,-1 0,-1 1,-1 1,-1 0,0 2,0 2,-1 1,0 0,-1 0,-1 0,-1 0,-1 0,-1 1,-1 2,-1 2,-1 0,0 1,-1 0,-2 0,0 -1,-1 -1,-1 -1,0 -1,0 -2,0 0,0 1,1 0,1 0,1 -1,1 -1,1 -1,1 -2,0 -3,0 -1,-1 -2,-1 -3,-2 0,-1 0,-2 0,-2 0,-1 1,-1 2,-2 0,0 0,1 1,1 1,0 1,0 2,-1 0,-1 0,-1 0,-2 -1,-1 -2,-2 -3,-3 -1,-1 -2,-2 -3,-3 0,-1 -1,-2 -1,-3 0,-1 1,-2 1,-2 1,-1 1,-1 2,-1 0,0 1,0 2,0 0,0 1,0 1,0 0,-1 0,-2 0,-2 0,0 1,0 1,0 1,0 2,-1 4,-1 1,0 2,-1 3,0 1,0 2,1 3,1 0,0 1,1 2,1 0,0 1,0 2,-1 0,0 0,-1 0,-1 0,-1 0,-2 0,-2 0,-1 0,-2 0,-3 0,-1 0,-2 0,-3 0,-1 0,-2 -1,-3 0,0 -1,-1 -1,-2 0,-1 1,-3 1,-4 0,-1 -1,-1 -1,-1 -1,1 -1,3 -2,4 0,1 0,1 0,2 1,1 2,2 2,3 0,1 0,2 0,3 0,1 0,1 -1,2 0,0 0,1 0,1 -1,1 -1,1 -1,1 -1,0 -2,0 -3,0 0,-1 -1,-1 -2,-1 -1,0 -2,1 -3,1 -1,0 -2,0 -2,-1 -1,0 -1,-1 -1,-1 -1,-1 -3,-2 -4,-1 0,0 -1,0 -1,1 -1,1 -1,2 -1,3 0,0 1,1 1,2 0,0 -1,1 -2,1 0,1 0,2 -1,2 0,1 -1,1 -1,1 0,1 0,1 1,2 0,1 1,3 2,4 1,1 1,2 2,3 0,1 0,1 0,2 -1,0 -2,0 -2,0 -1,0 0,1 -1,1 0,0 -1,0 -1,0 -1,0 -1,-1 -2,-2 -1,0 -2,-1 -2,-2 -1,0 -2,0 -3,0 0,0 -1,-1 -1,-1 -1,-1 -1,-1 -2,-1 -1,0 -1,1 -2,1 -1,0 -2,-1 -4,-2 0,0 -1,0 -1,0 -1,0 -2,0 -2,-1 -1,0 -2,0 -2,-1 -1,0 -2,0 -3,-1 -1,-1 -2,-2 -3,-3 -1,-1 -2,-1 -2,-2 -1,0 -3,-1 -3,-2 -1,-1 -2,-1 -2,-2 0,-1 1,-1 2,-1 0,1 1,1 2,2 0,0 1,0 2,0 0,0 0,0 0,-1 -1,-1 -3,-2 -5,-4 -2,-1 -5,-2 -8,-4 0,-1 0,-2 -1,-2 -1,-1 -2,-1 -2,-1 -1,-1 -2,-2 -3,-3 -1,0 -1,-1 -2,-2 -1,-1 -2,-1 -3,-2 -1,-1 -1,-2 -2,-2 -1,-1 -2,-1 -3,-1 -1,-2 -3,-3 -4,-4 -1,-1 -1,-2 -2,-2 0,-1 0,-2 -1,-3 0,-1 -1,-1 -2,-2 -1,-1 -3,-2 -5,-4 -1,-1 -2,-2 -3,-4 0,-1 0,-2 -1,-3 -2,-1 -3,-3 -5,-4 -1,-1 -2,-2 -2,-3 -1,0 0,-1 0,-2 -1,0 -2,0 -2,0 -1,-1 -1,-1 -1,-1 -2,-2 -3,-4 -4,-6 -1,0 -2,0 -3,-1 -1,0 -2,-1 -3,-2 0,-1 0,-2 0,-3 0,-1 -1,-3 -2,-4 -2,-3 -4,-5 -7,-8 0,-1 -1,-2 -2,-3 0,0 1,-1 1,-1 0,-1 1,-1 1,-2 0,0 0,0 0,-1 0,0 0,-1 0,-2 0,0 0,-1 0,-1 -1,-1 -2,-1 -2,-2 -2,-1 -2,-2 -3,-3 0,-1 0,-1 0,-2 0,0 1,0 1,0 1,-1 0,-1 0,-2 1,0 1,-1 1,-1 1,1 2,1 2,2 1,1 2,2 3,3 1,1 2,1 3,1 1,0 2,-1 2,-2 1,0 0,-1 0,-2 -1,-1 -2,-1 -2,-2 -1,-1 -1,-1 0,-1 0,-1 1,0 1,0 1,0 1,-1 2,-1 0,0 1,0 1,0 1,1 2,2 3,3 1,1 2,2 3,3 1,0 2,1 3,2 1,0 1,0 2,0 0,-1 1,-1 0,-2 0,-1 -1,-2 -1,-2 0,-1 0,-1 0,-2 0,0 1,0 2,-1 0,0 0,-1 0,-2 -1,-1 -3,-2 -4,-3 -1,-1 -1,-1 -1,-2 -1,0 0,-1 0,-1 0,-1 1,-1 1,-1 1,0 2,1 3,1 0,1 1,1 1,2 1,1 3,1 4,2 0,1 0,1 0,2 1,1 1,1 2,1 1,1 2,2 3,3 1,0 2,0 3,0 1,1 1,2 1,2 2,1 3,2 5,2 1,0 2,-2 3,-2 2,0 3,0 4,1 1,0 1,1 2,2 1,1 3,1 4,2 0,0 0,1 0,1 1,1 1,1 2,2 0,1 0,1 0,2 -1,0 -1,0 -2,0 -1,0 -2,1 -2,1 -1,0 -2,0 -3,0 0,1 0,1 0,2 1,0 1,1 2,1 0,0 1,0 2,0 1,1 0,1 1,2 0,0 1,1 2,1 1,0 3,1 4,1 1,0 1,-1 2,-2 1,0 2,1 2,1 2,1 3,2 3,3 1,1 1,1 0,2 0,1 -1,2 -1,3 0,0 1,1 2,1 1,0 2,1 2,1 1,0 1,0 2,-1 0,0 1,-1 1,-1 0,-1 0,-2 -1,-2 0,-1 -2,-1 -2,-2 -1,-1 -1,-2 -2,-3 0,-1 0,-2 -1,-3 0,-1 1,-1 0,-2 0,-1 0,-1 0,-1 -1,-1 -2,0 -2,0 -1,0 -1,-1 -1,-1 -1,0 -1,0 -2,0 -1,0 -1,-1 -2,-1 -1,-1 -2,-1 -2,-1 -1,-1 -1,-2 -1,-2 0,-1 0,-2 1,-3 0,0 1,0 1,-1 0,0 0,-1 -1,-2 0,0 -1,-1 -2,-1 0,-1 -1,-1 -1,0 -1,0 -1,0 -2,0 -1,0 -1,0 -2,0 -1,-1 -2,-2 -3,-3 -1,0 -1,0 -2,0 -1,0 -1,-1 -2,-1 -1,-1 -1,-2 -2,-3 -1,-1 -3,-2 -5,-3 -1,0 -1,-1 -2,-1 -1,0 -2,-1 -3,-1 -1,0 -1,0 -2,0 0,-1 -1,-2 -1,-2 -3,-3 -7,-5 -10,-7 -3,-3 -5,-6 -8,-9 0,-1 0,-2 -1,-3 -1,0 -2,1 -2,0 -1,0 -2,-2 -2,-2 -1,-1 -1,-1 -2,-2 0,-1 0,-2 -1,-2 -1,-1 -2,-1 -3,-2 -1,-2 -3,-3 -4,-5 0,0 0,-2 0,-3 -1,-1 -1,-1 -2,-2 -1,-2 -3,-3 -5,-4 -1,-1 -2,-2 -3,-3 -2,-1 -4,-2 -6,-4 -1,-2 -3,-5 -4,-7 -1,-1 -1,-2 -2,-3 0,-1 1,-2 0,-3 0,0 -1,0 -1,-1 -1,0 -2,-1 -3,-2 0,-1 -1,-2 -1,-4 0,-1 -1,-1 -1,-2 -1,-2 -2,-4 -3,-6 0,-2 -1,-3 -1,-5 0,-2 1,-3 0,-4 0,-1 0,-2 0,-3 -1,-1 0,-2 -1,-4 0,-1 0,-2 0,-3 -1,-1 -1,-2 -1,-3 1,-1 1,-3 1,-5 0,-1 0,-2 0,-3 1,0 1,0 2,-1 0,-1 0,-2 0,-2 0,-2 1,-4 1,-6 1,-4 2,-7 3,-11 0,0 0,-1 0,-2 0,-1 -1,-2 -2,-3 0,-1 -1,-2 -1,-3 0,-1 0,-2 0,-3 0,-2 -1,-4 -1,-6 -2,-4 -3,-7 -4,-10 -1,-1 -1,-2 -1,-3 0,-1 1,-2 1,-2 0,-1 -1,-1 -1,-1 -1,0 -2,0 -2,0 -1,-1 -1,-1 -2,-2 0,0 -1,-1 -2,-2 -1,0 -3,-1 -4,-1 -1,-1 -2,-1 -3,-2 -1,-1 -2,-3 -4,-5 -1,-1 -2,-3 -3,-4 -1,-1 -3,-3 -5,-4 -1,-2 -3,-3 -4,-5 0,0 -4,-5 -5,-5 0,-1 -2,-3 -3,-4 0,0 0,-1 0,-1 0,-1 1,-1 2,-1 0,-1 0,-1 0,-2 -1,-1 -1,-1 -3,-2 -1,-1 -2,0 -2,1 0,0 2,2 1,2 0,2 -3,0 -4,-1 -2,-1 -3,-3 -5,-5 -1,-1 -2,-1 -3,-2 -2,-1 -5,-2 -8,-3 -1,0 -2,0 -4,-1 -1,0 -2,-1 -3,-1 -1,-1 -2,-2 -3,-2 -1,-1 -2,0 -3,0 0,0 -1,0 -1,0 0,1 0,1 -1,1 0,1 -1,2 -1,3 -1,1 -1,2 -1,2 -1,2 -2,2 -3,4 -1,2 -1,4 -2,6 0,2 -1,3 -2,5 0,1 0,2 0,3 -1,2 -2,2 -2,4 -1,1 0,3 0,5 -1,4 -3,7 -4,10 -1,1 -1,3 -2,3 -1,0 -1,-1 -2,-2 0,0 0,0 -1,0 0,0 0,1 0,2 0,1 1,2 2,3 0,0 -1,2 -2,3 0,1 -1,2 -2,3 0,0 -1,0 -2,1 0,0 0,1 0,2 0,0 1,1 0,1 0,1 -1,2 -1,3 0,1 1,3 1,4 0,2 1,5 0,8 0,1 0,3 -1,4 -1,1 -3,1 -5,1 -1,0 -2,-1 -3,-2 -1,0 -1,1 -2,1 0,1 0,2 -1,3 -1,0 -1,0 -2,1 0,0 -1,-1 -1,-1 0,-1 1,-1 1,-2 1,-1 2,-1 2,-2 0,-1 0,-2 -1,-2 0,0 1,-2 1,-3 0,-1 -1,-2 -1,-2 0,0 -1,0 -1,0 -1,0 -1,0 -1,-1 0,-1 0,-1 0,-2 0,-2 -1,-3 -1,-4 0,-1 1,-2 1,-3 0,0 0,-1 0,-1 -1,-1 -2,-1 -2,0 -1,1 0,2 0,3 -1,0 -1,1 -1,2 0,1 1,2 1,3 0,1 0,2 0,3 0,0 0,1 0,2 1,0 2,1 2,2 1,1 0,2 0,2 0,2 -1,3 -2,4 -1,0 -2,0 -2,1 0,1 1,1 1,2 -1,1 -1,2 -2,3 0,1 -2,0 -2,1 -1,1 -1,2 -2,3 0,0 -1,1 -2,2 0,1 1,2 1,2 -1,1 -2,1 -2,2 -1,1 0,2 0,3 -1,1 -1,2 -1,3 0,0 -1,0 -2,1 -1,0 0,1 0,1 1,0 2,0 3,0 0,0 1,1 1,1 -1,1 -2,1 -2,2 0,1 0,1 0,2 0,0 -1,0 -1,0 -1,0 -2,-1 -3,-1 0,0 -1,1 -1,1 -1,0 -2,0 -3,-1 0,0 -1,0 -1,-1 -1,-1 0,-1 0,-2 -1,-1 -1,-1 -2,-1 -1,0 -1,1 -1,1 -1,0 -1,0 -2,0 0,0 -1,0 -1,1 0,0 1,0 2,1 0,0 1,0 1,1 1,0 0,0 0,1 0,0 0,1 0,2 1,0 1,1 1,2 0,1 0,2 0,2 1,1 2,1 2,1 0,1 0,2 0,2 -1,0 -2,0 -2,-1 -1,0 -2,-1 -2,-1 0,-1 0,-2 0,-2 0,-1 -2,-1 -2,-2 0,-1 1,-2 0,-3 0,0 0,-1 -1,-1 0,0 -1,1 -1,1 -1,0 -1,-1 -2,-1 0,-1 -1,-1 -1,-2 0,-1 0,-2 0,-3 0,0 0,-1 -1,-1 0,0 0,1 0,1 -1,0 -1,1 -2,0 0,0 0,-1 0,-1 -1,-1 -1,-2 -1,-2 -1,-1 -2,-2 -3,-3 -1,0 -1,0 -1,-1 -1,0 0,-1 0,-1 1,0 1,0 2,1 0,0 1,0 1,1 1,0 1,1 2,0 0,0 0,-1 1,-1 0,-1 0,-2 0,-2 0,-1 -1,-1 -2,-1 0,0 0,2 -1,2 0,0 -1,-1 -1,-2 0,-1 -2,0 -2,-1 -1,0 1,-1 1,-2 0,0 0,0 0,-1 0,0 1,0 1,-1 0,0 0,-1 0,-1 0,-1 -1,-1 -1,-2 0,0 0,-1 -1,-2 0,0 -1,-1 -1,-2 -1,0 0,-1 -1,-2 0,-1 -1,-1 -1,-2 -1,-1 0,-2 -1,-3 -1,-1 -2,-1 -3,-1 0,-1 -1,-1 -1,-2 -1,-1 -1,-2 -2,-3 0,-1 -1,-2 -2,-3 0,-1 -1,-2 -1,-2 -1,-1 0,-2 0,-3 -1,-1 -1,-2 -2,-3 0,-1 -1,-2 -2,-2 0,0 -1,0 -1,0 -1,-1 -1,-1 -2,-1 0,-1 0,-2 0,-3 0,-1 0,-1 0,-2 -1,-1 -1,-2 -1,-2 -1,-1 -1,-2 -1,-3 -1,0 0,-1 0,-1 1,-1 2,0 2,-1 1,0 0,-1 0,-1 1,0 2,0 2,0 1,0 2,-1 3,-1 0,0 1,1 2,1 1,0 2,0 3,0 1,0 3,0 4,0 0,0 1,1 2,0 0,0 1,0 0,-1 0,0 -1,0 -2,0 0,0 -1,-1 -2,-1 0,0 -1,0 -2,0 -1,0 -3,0 -5,0 0,0 -1,-1 -1,-1 -1,0 -2,0 -4,1 -1,0 -1,1 -3,1 0,0 -1,-1 -1,-1 -1,-1 -1,-2 -1,-2 0,-1 1,-2 1,-3 0,-1 0,-2 0,-3 0,-1 0,-2 -1,-3 0,0 -1,-1 -1,-1 0,-1 1,-2 1,-3 0,-1 0,-2 0,-3 0,-1 0,-2 0,-3 0,-1 0,-2 0,-3 0,-1 -1,-2 -1,-3 0,0 0,-1 0,-1 0,0 1,0 1,0 1,0 1,0 1,0 1,-1 1,-1 0,-2 0,0 -1,0 -1,-1 0,0 -1,-1 -1,-1 0,-1 0,-1 1,-2 0,0 1,0 1,0 1,0 1,1 2,1 0,0 1,-1 1,-2 0,0 -1,0 -1,-1 0,-1 0,-1 0,-2 0,0 0,-1 -1,-1 -1,0 -1,1 -1,1 -1,1 -2,1 -3,1 0,0 -1,1 -2,1 -1,-1 -1,-2 -2,-3 0,-1 -1,-2 -1,-3 0,-1 1,-2 1,-2 0,-1 0,-1 0,-2 0,-1 -1,-2 -1,-3 0,-1 0,-3 0,-4 0,-1 -1,-2 -2,-4 0,-1 0,-2 0,-3 0,-1 0,-1 0,-2 -1,-1 -1,-2 -1,-3 0,-2 -1,-3 -2,-4 0,-1 0,-2 0,-4 0,0 0,-1 0,-1 1,-1 2,-1 2,-1 1,-1 1,-1 1,-1 1,-1 1,0 2,0 0,0 1,1 1,1 1,1 1,2 2,3 1,1 2,1 2,1 1,1 2,2 3,2l0 0c0,0 1,1 2,0 0,0 0,0 0,0 0,0 0,-1 0,-1z"/>
  <path id="Granica_u_moru_" fill="none" stroke="#2B2A29" stroke-width="0.400001" d="M296 236l0 0c-6,-8 -13,-15 -19,-22l-1 -1 0 1c-7,2 -14,5 -21,7l-1 0 0 1c-5,6 -9,12 -14,19l0 0 0 1c2,8 4,16 7,24 1,19 2,37 3,55l0 0 0 0c1,2 2,3 2,5 2,6 3,12 5,18l0 0 0 0c3,5 6,10 9,15 1,3 3,6 4,10l0 0 0 0c12,16 24,33 35,49l0 0 0 0c20,18 40,35 59,53 13,9 25,18 37,28 14,15 28,31 41,47l0 0 1 0c3,3 6,6 9,9 17,18 33,37 50,56l0 0 0 0c11,10 22,20 34,29 9,7 19,14 28,21l0 0 0 0c17,8 34,15 51,23 2,2 4,4 6,6 3,4 6,8 8,12 -1,1 -3,2 -5,4 -5,-3 -10,-4 -16,-4 -5,0 -9,1 -14,2 -6,-7 -14,-12 -23,-14 -12,-2 -26,1 -35,9 -11,10 -17,25 -15,40 3,19 18,34 38,36 4,1 7,0 11,0 9,7 14,11 25,12 7,3 9,2 16,1 8,7 16,11 27,11 12,1 22,-5 30,-13 1,0 3,0 4,0 0,2 -1,4 -1,6 -1,7 -1,15 3,22 2,6 6,11 11,15 0,0 0,1 0,1 -1,-1 -3,-1 -4,-1 -19,-2 -36,10 -42,28 -6,16 -2,35 12,47 4,3 9,6 14,8 8,2 16,5 25,6 5,0 9,-1 13,-2 13,-5 21,-13 26,-25 1,-3 2,-5 3,-8 0,-3 1,-6 1,-9 0,-11 -5,-23 -13,-30 -2,-2 -4,-3 -5,-4 5,0 11,-2 16,-4 6,3 11,5 17,5 2,1 4,2 7,2 4,2 8,3 13,3 5,0 10,0 16,-1 17,-4 34,-5 51,-9 23,6 46,12 70,18 8,2 15,3 23,5 9,3 18,6 27,8 11,8 21,16 31,23l0 0 0 0c6,3 11,6 16,9l0 0 39 15 -6 -42 -2 -4 -2 -2 -1 -1"/>
 </g>

 <g id="Grad Zagreb" class="pol gz fil0">
  <path class="gz_kopno" d="M668 150c3,5 2,8 3,11 1,3 0,5 0,8 1,1 0,4 1,5 1,3 1,4 0,7 0,1 -3,0 -4,1 -4,1 -1,2 -5,1 -4,0 -6,4 -8,6 -1,2 1,3 -2,3 -3,1 -4,1 -5,4 -1,2 -1,6 -3,7 -5,3 -2,11 -6,12 -1,1 -3,0 -5,-1 -2,-1 -1,-3 -4,-4 -2,-1 -3,-1 -6,-2 -2,-1 -2,-1 -4,-2 -1,-2 -3,-2 -5,-4 -1,-1 -4,-1 -5,-3 0,-3 3,-6 4,-9 1,-1 1,-3 2,-3 3,-1 6,1 9,-1 1,0 1,-2 1,-4 0,0 -1,-1 -1,-1 -1,-2 -1,-3 -2,-4 -1,-1 -2,-2 -2,-3 1,-1 0,-2 1,-3 6,-1 13,-8 20,-12 2,1 3,0 5,-1 3,-1 4,-2 7,-3 1,0 1,1 2,1 2,-1 3,-3 5,-4 1,-1 4,0 5,-1 1,0 1,-1 2,-1z"/>
 </g>

 <g id="Međimurska županija" class="pol m fil1">
  <path class="m_kopno" d="M680 64l1 0 5 -1 0 2 4 -1 2 -2 0 -1 -1 -4 -2 -5 1 -5 -2 -4 -1 -4 2 -5c1,0 3,1 4,1 1,0 1,-1 2,-1 1,0 1,0 2,0 1,1 1,1 2,1 1,0 2,-1 3,-1 1,0 2,0 3,0 0,0 1,-1 1,-1 1,0 2,0 3,1 1,0 1,1 2,1 1,1 1,0 2,0 1,0 2,0 2,1 1,1 2,2 2,3 1,0 2,0 3,1 1,0 2,0 2,1 1,0 1,2 1,2 1,1 2,0 3,0 1,1 2,1 3,2 1,0 2,0 4,0 1,0 1,0 2,0 1,0 1,0 2,1 1,0 2,1 3,2 2,0 3,1 4,2 1,1 2,2 2,2 1,1 1,3 1,3 1,1 2,1 2,2 1,0 3,1 4,2 1,0 1,0 2,1 1,0 1,1 2,2 1,0 2,1 2,1 1,0 2,-1 3,0 1,0 2,0 3,1 2,1 3,3 4,4 1,2 1,3 1,5 1,1 0,2 1,3 0,0 0,1 1,2 0,0 0,0 0,0l0 0c-1,0 -3,-1 -5,0 -1,0 -1,0 -3,1 -1,0 -3,0 -5,-1 0,0 -1,0 -1,0 -1,-1 -2,-1 -3,-2 -1,0 -2,-1 -3,-1 -1,0 -3,0 -4,0 -1,1 -2,2 -4,2 -2,0 -3,-2 -4,-2 -2,0 -4,0 -7,0 -6,0 -5,1 -7,2 0,1 -1,1 -2,1 -1,0 -2,-1 -3,-1 -1,0 -2,0 -3,0 -2,1 -3,0 -4,0 -4,-1 -8,-1 -12,-2 -1,-1 -2,-2 -3,-2 -2,-2 -5,-4 -7,-5 -2,-2 -10,-3 -12,-4 0,0 0,0 0,0z"/>
 </g>

 <g id="Dubrovačko-neretvanska županija" class="pol dn fil2">
  <path d="M847 730l0 0c0,0 0,0 0,0 1,-1 2,-3 2,-4 1,-2 0,-5 1,-6 2,-1 4,0 6,0 1,-1 2,-2 2,-3 1,-1 2,-2 2,-4l0 0 4 3 3 3 3 3 7 2 3 1 4 4 4 1 3 2 3 4 0 6 6 8 0 2 -1 1 -3 1 -5 2 -4 1 -3 1 -2 2 0 0c0,0 0,0 0,0 -1,-1 -3,-2 -4,-2 -1,0 -2,1 -3,1 -1,0 -2,0 -2,-1 -1,0 -2,-1 -3,-2 0,0 -2,0 -2,-1 -1,-1 -2,-3 -3,-5 0,-1 -1,-1 -1,-2 0,0 1,-1 1,-1 1,-1 1,-2 1,-3 0,0 0,-1 -1,-1 0,-1 -1,-1 -1,-1 -1,0 -1,0 -2,0 0,-1 0,-1 0,-2 0,0 0,-1 -1,-1 0,0 -1,0 -1,0 -1,0 -1,0 -1,-1 0,0 0,-1 0,-1 0,-1 0,-2 0,-2 0,-1 -1,-1 -2,-1 0,0 0,1 -1,1 0,1 1,1 1,2 0,1 -1,1 -1,1 -1,0 -1,0 -2,-1 0,-1 0,-2 -1,-3 -1,0 -2,0 -2,0 -1,-1 -2,-2 -3,-3 0,0 -1,0 -1,-1z"/>
  <path class="dn_kopno" d="M1030 865l-2 -1 -9 -11 1 -5c-1,-3 -1,-7 -2,-11 0,-2 -3,-4 -5,-5 -1,-1 -2,-1 -3,-1 -1,-1 -1,-2 -2,-3 -1,0 -2,-1 -3,-2 -1,0 -2,-1 -3,-1 -1,0 -2,1 -3,1 0,0 -1,0 -2,0 -1,0 -2,-1 -3,0 -1,0 -2,1 -3,1 0,0 -1,0 -1,0 -1,0 -1,0 -1,-1 0,0 0,-1 0,-1 -1,-1 -2,-1 -2,-1 -1,0 -1,-1 -1,-1 -2,-2 -5,-4 -7,-5 -2,-4 -2,-3 -5,-5 -1,0 -4,1 -5,1 0,-1 -1,-3 -2,-4 0,-1 -3,-2 -4,-2 -1,-2 -2,-3 -3,-5 -1,0 -1,-1 -2,-2 0,0 -1,-1 -2,-1 0,-1 -1,-1 -2,-2 -1,-1 -2,-1 -3,-2 -1,0 -3,0 -4,-1 -1,-1 -1,-3 -3,-4 -1,-1 -2,-1 -3,-2 -1,-1 -2,-2 -3,-3 -2,-1 -3,-1 -4,-2 -2,0 -3,0 -4,-1 -1,0 0,-1 0,-2 -1,-1 -1,-1 -2,-2 -1,-1 -2,-2 -3,-3 -1,-3 1,-5 0,-6 -1,-1 -2,-3 -3,-4 -1,-1 -3,-1 -4,-2 -1,0 -2,0 -3,1 -1,0 -1,1 -2,1 0,0 -1,1 -2,1 -2,-1 -4,-3 -6,-4 -3,-1 -5,-1 -7,0 -2,0 -2,1 -3,2 -2,1 -4,2 -5,4l1 0c2,2 3,3 6,4 0,0 1,-1 2,-1 0,0 1,1 1,1 0,1 -1,2 0,2 0,1 1,2 2,3 0,0 1,0 1,1 0,0 0,1 0,1 0,0 -1,0 -1,0 -1,-1 -2,-2 -3,-2 -1,0 -2,0 -2,0 -2,-1 -4,-3 -5,-4 -2,-1 -3,-2 -5,-3 0,-1 -1,-1 -1,-2 -1,0 -2,0 -3,0 -2,-2 -4,-3 -6,-4 -1,-1 -2,-2 -3,-2 -1,-1 -2,-1 -2,0 0,0 0,1 1,2 0,0 0,0 0,1 0,0 -1,0 -1,0 -1,0 -1,-1 -1,-1 -1,0 -1,0 -2,-1 0,0 0,-1 -1,-1 -1,0 -2,1 -2,1 -2,-1 -3,-2 -4,-3 -1,-1 0,-2 -1,-3 0,0 -1,-1 -2,-1 -1,-1 -3,-3 -4,-4 -1,0 -2,0 -2,0 -1,0 -2,0 -3,0 -1,-1 -2,-1 -2,-2 -2,-1 -3,-2 -5,-3 -2,-1 -4,-2 -7,-2 -1,-1 -2,0 -2,0 -1,-1 -2,-2 -3,-2 -1,0 -2,1 -3,1 -1,-1 -2,-1 -3,-1 -2,0 -3,1 -5,1 -1,0 -2,0 -2,-1 -1,0 -1,-1 -2,-1 0,-1 -1,-1 -2,0 0,0 0,0 -1,1 -3,0 -5,0 -8,0 -1,0 -2,-1 -2,-1 -1,0 -2,0 -2,0 -1,0 -2,-1 -2,-1 -1,-1 -1,-1 -2,-1 0,0 -1,-1 -1,-1 -1,0 -1,0 -2,0 0,0 0,1 0,1 1,1 0,1 1,2 0,0 1,0 1,1 0,0 1,0 1,1 -1,1 -1,1 -2,1 0,1 -1,1 -2,1 0,1 1,2 1,2 1,0 2,-1 2,0 2,0 3,0 4,1 1,0 2,2 3,2 1,0 2,0 3,0 2,0 4,1 6,2 1,0 2,0 4,0 1,0 2,0 3,-1 1,0 2,0 2,0 1,0 2,0 3,1 2,1 5,3 8,4 2,1 5,2 7,3 1,1 3,2 4,2 1,1 2,0 3,1 1,0 1,1 2,2 1,0 2,0 3,0 0,0 1,-1 2,-1 1,0 3,1 4,2 1,0 2,1 3,1 0,1 0,2 0,3 0,0 -1,0 -2,0 0,1 0,2 1,2 0,1 2,1 3,1 0,0 1,0 2,1 2,1 4,2 6,3 2,0 4,1 6,1 3,1 5,2 7,2 1,1 2,1 3,2 0,0 1,0 2,0 1,1 2,2 3,2 1,0 2,1 4,1 0,0 1,-1 2,-1 1,0 1,2 2,2 1,1 2,1 3,1 1,0 2,0 3,1 1,0 1,1 1,2 0,1 1,2 1,3 1,0 0,1 1,1 0,0 1,0 1,-1 0,0 0,-2 0,-3 0,-1 -1,-1 -1,-2 0,-1 -1,-1 -1,-2 -1,-1 -2,-1 -2,-1 0,0 0,-1 -1,-1 0,-1 -1,-1 -1,-1 -1,-1 0,-2 1,-2 0,0 1,1 2,1 1,1 2,3 3,4 1,0 1,1 2,2 0,0 1,0 1,-1 1,0 1,-1 1,-1 1,-1 1,-1 1,-1 1,0 1,-1 2,-1 0,0 1,0 1,1 1,0 1,1 1,1 0,1 0,2 0,2 1,1 2,1 3,1 1,0 2,-1 3,-1 0,0 1,1 1,1 0,1 -1,1 -1,1 0,1 -1,1 -1,2 0,0 0,1 0,1 1,1 2,1 2,1 1,0 1,1 2,2 0,0 0,0 1,0 0,0 1,-1 2,0 1,0 2,1 3,2 1,0 2,1 3,2 1,0 1,2 1,2 1,1 3,1 4,2 1,0 1,1 2,1 1,0 2,0 3,0 2,1 4,2 6,3 1,0 1,0 2,1 0,0 0,1 1,1 0,0 0,0 0,0 0,0 1,0 1,0 0,-1 0,-1 0,-2 0,0 1,0 1,0 1,0 1,1 1,1 0,1 -1,2 -1,3 0,0 1,1 2,0 2,0 3,-1 5,-1 1,-1 2,0 2,1 0,0 -1,0 -2,1 0,0 -1,0 -1,0 -1,0 -1,1 -1,1 -1,0 -1,0 -2,0 0,0 -1,0 -1,0 -1,0 -1,1 0,2 1,0 1,0 2,1 0,0 1,0 2,0 1,0 2,1 3,2 1,0 2,0 2,1 1,0 2,1 3,1 1,1 2,2 3,2 1,0 2,1 3,1 1,0 1,-1 2,-1 1,0 2,1 2,1 1,1 1,2 2,3 0,1 1,2 1,2 -1,1 -1,1 -2,1 0,0 0,-1 -1,-1 0,0 -1,1 -1,1 0,1 0,1 1,2 1,1 2,2 3,3 4,3 7,7 12,10 1,2 3,3 5,4 2,1 4,1 6,2 2,1 3,2 5,3 1,1 2,1 2,2 0,0 -1,1 -1,1 0,1 1,2 2,2 1,0 2,0 3,0 1,0 1,0 2,1 0,1 0,1 1,2 0,1 1,2 2,2 1,1 2,1 2,2 2,1 3,3 5,4 1,1 2,0 2,0 0,-1 0,-1 -1,-2 0,0 -1,-1 -1,-2 0,0 0,-1 0,-1 0,0 0,-1 0,-1l0 0z"/>
  <path d="M879 763l0 0c0,0 -1,0 -1,-1 0,0 1,-1 1,-1 1,0 1,0 2,1l0 0 -2 1z"/>
  <path d="M717 798c0,0 -1,0 -2,1 0,0 0,0 -1,0 0,-1 0,-1 0,-1 1,-1 1,-1 2,-2 0,0 0,0 0,0 1,-1 1,-1 1,-1 1,0 1,-1 1,-1 1,0 1,0 1,0 1,0 1,1 2,1 0,0 0,1 0,1 0,0 1,0 1,1 0,2 -3,1 -3,1 -1,-1 -1,0 -2,0z"/>
  <path class="Lastovo"  d="M779 798c0,0 0,1 0,1 0,1 -1,1 -1,1 0,1 0,2 0,2 -1,1 -1,1 -2,1 0,1 -1,0 -1,1 0,0 0,1 -1,1 0,0 -1,0 -1,0 0,0 0,0 -1,-1 0,0 0,-1 -1,-1 0,0 -1,0 -1,0 -1,0 -1,0 -2,0 -1,0 -1,0 -2,1 0,0 0,1 0,1 0,0 -1,1 -1,1 -1,0 -1,-1 -1,-1 -1,-1 0,-2 -1,-2 0,-1 -1,-1 -1,-1 -1,-1 -1,-1 0,-1 0,-1 0,-1 0,-1 0,-1 0,-2 0,-2 0,-1 1,-1 1,-1 0,-1 1,-1 1,-1 0,-1 0,-1 0,-2 0,0 1,0 1,0 0,0 1,0 2,1 0,0 1,-1 1,-1 0,0 1,0 1,0 1,0 2,0 2,0 1,0 1,0 1,0 1,0 1,1 1,1 0,0 0,0 1,0 0,1 1,1 1,1 1,0 1,-1 2,-1 0,0 1,0 1,0 0,0 1,1 1,1 1,0 2,1 0,2z"/>
  <path d="M761 756c0,0 -1,-1 -1,-1 -1,0 -2,0 -2,0 -1,0 -1,-1 -2,-1 -1,0 -2,0 -2,0 -1,0 -2,-1 -2,-1 -1,-1 -2,0 -2,-1 -1,0 -2,-1 -3,-1 0,0 -1,0 -2,0 0,0 -1,0 -1,0 -1,0 -1,-1 -2,-1 0,0 -1,1 -1,1 -1,0 -2,-1 -2,-1 -1,0 -2,1 -2,1 -1,0 -2,0 -2,0 -1,0 -2,0 -2,1 0,0 1,1 1,1 1,1 1,1 2,1 0,0 0,-1 1,-1 1,0 1,0 2,0 0,1 0,1 1,2 0,0 1,0 1,0 1,0 1,0 2,0 0,0 1,0 1,0 0,1 1,1 1,1 0,0 0,0 1,1 0,0 -1,0 -1,0 -1,1 -2,1 -2,1 -1,0 -2,0 -3,0 -1,1 -1,1 -1,1 -1,1 0,1 -1,2 0,0 -1,0 -1,0 -1,1 -1,1 -2,1 0,1 -1,1 -1,2 0,0 1,1 1,1 1,0 1,0 2,0 0,0 0,1 0,1 1,1 2,1 2,1 0,-1 0,-1 0,-1 1,-1 0,-1 0,-2 1,0 1,0 2,0 0,0 1,1 1,1 0,0 1,0 1,0 1,1 1,1 1,1 1,0 1,-1 2,-1 1,0 1,1 2,1 1,1 2,1 3,1 1,1 2,0 3,1 1,0 1,0 1,0 1,1 2,0 2,0 1,0 1,1 1,1 1,0 2,0 3,0 0,0 1,0 2,0 1,0 1,0 2,0 1,0 1,0 1,0 1,-1 2,-1 2,0 1,0 0,1 0,1 0,0 -1,0 -1,0 0,1 0,1 1,1 1,0 2,0 3,0 0,0 0,0 1,-1 0,0 1,1 1,1 1,0 1,0 2,0 1,-1 1,-2 2,-2 1,-1 3,-2 5,-3 0,0 1,-1 2,-2 0,0 1,1 1,1 1,0 2,0 2,0 2,0 3,0 4,0 2,0 3,0 4,0 1,0 2,0 3,0 1,0 2,0 2,0 1,1 1,1 1,2 0,0 1,0 1,1 1,0 1,0 2,-1 0,0 1,0 1,0 1,0 1,0 2,0 1,0 2,0 3,0 0,0 1,0 1,1 1,0 1,0 2,-1 1,0 1,-1 2,-1 1,-1 3,0 4,0 1,0 1,0 2,0 0,-1 0,-1 0,-1 0,-1 0,-1 0,-1 -1,0 -2,0 -2,-1 -1,0 -2,0 -2,0 -1,-1 -1,-2 -1,-2 -1,-1 -2,-1 -3,-2 0,0 -1,-1 -1,-1 -1,-2 -2,-2 -3,-1 0,1 -1,0 -1,0 0,0 0,-1 0,-1 -1,0 -2,0 -2,0 -1,0 -1,-1 -2,-1 -1,0 -3,-1 -4,-1 0,0 -1,0 -1,0 -1,0 -1,0 -2,0 -1,-1 -1,-2 -2,-2 0,0 -1,0 -1,0 -1,0 -2,1 -2,1 -1,0 -2,1 -4,1 0,0 -1,0 -1,0 -1,0 -2,0 -2,1 -1,0 -1,-1 -2,-1 -1,0 -1,1 -2,1 -1,0 -1,0 -2,0 -1,0 -2,0 -2,1 -1,0 -2,0 -2,1 -1,0 -2,0 -3,0 -2,1 -3,1 -4,1 -2,-1 -4,-1 -6,-2 0,0 0,0 -1,0z"/>
  <path d="M762 795c0,0 0,1 -1,1 0,0 0,0 0,1 -1,0 0,0 0,0 -1,1 -1,1 -1,1 -1,0 -1,-1 -1,-1 0,-1 0,-1 1,-2 0,0 0,0 1,0 0,-1 1,-1 1,0z"/>
  <path d="M756 795c0,1 0,1 0,2 0,0 0,0 1,0 0,0 0,0 0,-1 0,0 1,0 1,-1 0,0 -1,0 -1,0 0,0 -1,0 -1,0z"/>
  <path d="M750 798c0,0 0,0 -1,1 0,0 0,0 0,0 1,0 1,0 1,0 0,0 0,0 1,0 0,0 0,-1 0,-1 0,0 -1,0 -1,0z"/>
  <path d="M785 796c0,0 0,0 0,0 0,0 -1,0 -1,0 1,1 1,1 1,1 0,0 0,0 0,0 0,0 0,0 0,0 0,-1 0,-1 0,-1z"/>
  <path d="M787 794c0,0 0,0 0,0 0,0 0,1 0,1 0,0 0,0 0,0 0,0 0,0 0,0 0,0 1,0 1,0 0,0 0,0 -1,-1z"/>
  <path d="M789 793c0,0 0,0 0,0 0,0 0,0 0,0 0,0 0,0 0,0 0,0 0,0 0,0 0,0 0,0 0,0 0,0 0,0 0,0z"/>
  <path d="M799 795c0,0 0,0 -1,0 0,0 0,0 0,0 0,0 0,0 1,0 0,0 0,0 0,0 0,0 0,0 0,0 0,0 0,0 0,0z"/>
  <path d="M802 795c0,0 0,0 -1,0 0,0 0,0 0,0 0,0 0,0 1,0 0,0 0,0 0,0 0,0 0,0 0,0 0,0 0,0 0,0z"/>
  <path d="M805 795c0,0 0,0 0,0 0,0 -1,0 0,0 0,0 0,0 0,0 0,0 0,0 0,0 0,0 0,0 0,0 0,0 0,0 0,0z"/>
  <path d="M809 794c0,0 0,0 0,0 0,0 -1,0 0,0 0,0 0,0 0,0 0,1 0,1 0,1 0,0 0,0 0,-1 0,0 0,0 0,0z"/>
  <path d="M814 757c0,-1 0,-1 0,0 0,0 0,0 0,0 0,0 0,0 0,0 0,0 0,0 0,0 0,0 0,0 0,0 0,0 0,0 0,0z"/>
  <path class="Mljet" d="M884 803c-1,0 -2,0 -3,0 -1,0 -1,0 -2,-1 -2,0 -3,0 -4,-1 0,0 -1,0 -1,0 -1,0 -1,1 -2,1 0,0 0,0 -1,0 -1,0 -1,-1 -2,-2 -1,0 -1,-1 -2,-1 0,0 -1,0 -2,0 0,0 -1,-1 -2,-1 0,0 -1,1 -1,1 -1,-1 -1,-1 -1,-1 -1,0 -1,-1 -2,-1 0,0 -1,0 -1,0 0,0 -1,0 -1,0 -1,0 -1,0 -1,0 -1,-1 0,-1 -1,-2 0,0 -1,0 -1,0 -1,0 -1,0 -1,0 0,-1 -1,-1 -2,-2 0,0 0,-1 0,-1 -1,0 -1,0 -2,0 0,0 0,0 -1,0 0,1 1,1 1,1 0,1 0,1 1,1 0,1 1,1 1,1 0,0 1,0 1,1 0,0 -1,1 -1,1 -1,0 -1,-1 -1,-1 -1,0 -2,-1 -3,-2 -1,0 -1,0 -2,-1 -1,0 -1,-1 -1,-1 0,0 0,0 -1,0 0,0 0,0 -1,0 0,0 0,0 0,-1 -1,0 -1,0 0,-1 0,0 0,0 1,0 0,0 1,0 1,0 1,0 1,0 2,0 0,0 1,-1 1,-1 1,-1 1,-2 1,-2 0,0 1,-1 1,-1 0,0 0,0 0,1 1,0 1,0 1,0 0,1 1,0 1,1 0,0 0,0 0,1 0,0 0,0 0,0 0,1 0,1 1,1 0,0 0,0 0,0 1,0 1,0 1,0 2,1 2,0 3,0 1,0 2,0 3,0 0,0 1,0 2,1 0,0 1,0 2,0 1,1 2,1 3,1 2,0 3,1 4,1 2,1 3,1 4,1 1,1 2,1 3,1 1,1 2,1 2,1 1,1 1,1 2,1 1,0 1,-1 1,-1 1,0 2,1 2,1 1,0 1,1 2,1 0,0 -1,1 0,1 0,0 1,0 1,0 0,1 1,1 1,1 1,0 1,0 1,0 1,0 1,0 1,-1 0,0 1,1 1,1 0,0 1,0 1,0 1,0 1,0 2,0 1,0 1,0 2,1 0,0 0,1 1,1 1,1 1,0 2,1 1,0 1,0 2,1 1,0 1,0 2,0 0,0 0,1 1,1 0,0 0,0 1,0 0,0 0,0 1,1 0,0 0,0 1,0 0,1 -1,1 -1,1 0,0 0,1 0,1 1,0 1,0 2,1 0,0 0,0 0,0 0,0 -1,0 -1,1 0,0 0,0 0,0 -1,0 -1,1 -1,0 0,0 0,0 0,0 0,-1 -1,-1 -1,-1 0,-1 -1,-1 -2,-1 0,0 0,0 -1,0 0,0 0,1 -1,1 0,0 -1,0 -1,0 0,0 0,-1 0,-1 -1,0 -1,-1 -1,-1 -1,0 -2,0 -2,-1 -1,0 -2,0 -2,0 -1,-1 -2,-1 -3,-1 -1,0 -2,0 -2,-1 -1,0 -2,0 -3,-1 0,0 -1,1 -1,1 -1,0 -1,-1 -1,-1 -1,0 -1,0 -1,0z"/>
  <path d="M853 788c0,0 1,0 1,0 1,0 1,1 1,0 0,0 0,0 -1,0 0,0 -1,0 -1,0 0,0 0,0 0,0z"/>
  <path d="M843 784c0,0 0,0 0,0 -1,0 -1,0 -1,0 0,0 1,1 1,1 0,0 0,0 0,0 1,0 1,0 1,0 0,-1 0,-1 -1,-1z"/>
  <path d="M845 788c-1,0 -1,0 -1,0 0,0 0,0 0,0 0,0 0,0 1,0 0,0 0,0 0,0 0,0 0,0 0,0 0,-1 0,-1 0,0z"/>
  <path d="M847 785c0,0 0,1 -1,1 0,0 0,0 0,0 0,0 0,0 1,0 0,0 0,0 0,0 0,0 0,-1 0,-1 0,0 0,0 0,0z"/>
  <path d="M839 784c-1,0 -1,0 -1,0 0,0 0,0 0,0 0,0 0,0 0,0 0,0 0,0 0,0 1,0 1,0 1,0 0,0 0,0 0,0z"/>
  <path d="M916 801c-1,0 -1,0 -1,0 -1,0 -1,-1 -1,-1 -1,0 0,-1 0,-1 -1,-1 -1,-1 -1,-2 -1,0 -1,0 0,-1 0,0 0,0 1,1 0,0 0,0 1,1 0,0 1,0 1,0 1,1 1,1 2,1 0,1 0,2 0,2 0,1 0,1 -1,1 0,1 0,1 0,0 -1,0 -1,-1 -1,-1z"/>
  <path class="Šipan" d="M919 800c0,-1 0,-2 0,-2 -1,-1 -3,-2 -2,-3 0,0 1,0 1,0 1,1 1,1 1,1 1,0 1,0 2,0 0,0 1,1 1,1 1,1 1,1 2,2 0,0 1,0 1,0 1,1 2,0 3,1 0,0 0,1 1,1 0,1 1,1 1,1 1,0 1,0 2,0 0,0 1,1 1,1 1,1 1,1 1,2 0,0 0,0 0,1 0,0 0,1 0,1 0,1 -1,2 -1,2 -1,0 -1,-1 -1,-1 -1,-1 -1,-1 -2,-2 -1,0 -1,0 -2,-1 -1,0 -2,-1 -4,-1 0,0 0,0 -1,0 0,-1 -2,-1 -3,-1 0,-1 0,-1 0,-1 0,-1 1,0 1,0 0,0 0,-1 0,-2 0,0 0,0 -1,0 0,0 0,0 -1,0z"/>
  <path class="Lopud" d="M939 808c0,0 0,0 1,1 0,0 1,0 2,0 0,1 0,1 0,2 1,0 1,0 2,1 0,0 0,1 -1,1 0,0 0,0 -1,0 0,0 0,-1 -1,-1 0,0 0,0 -1,0 0,0 1,1 0,1 0,0 0,1 -1,1 0,0 0,-1 -1,-1 0,0 -1,1 -1,0 -1,0 -1,0 -1,0 0,-1 0,-2 -1,-2 0,0 0,-1 0,-1 0,0 0,-1 1,-1 0,0 0,1 1,1 0,0 1,0 1,0 0,-1 0,-1 0,-1 0,-1 0,-1 0,-1 0,0 0,0 1,0z"/>
  <path d="M950 814c-1,-1 -2,0 -2,0 -1,-1 -1,-1 -1,-2 1,0 2,0 3,0 0,0 0,-1 0,-1 1,0 1,0 1,0 1,0 1,0 1,0 0,1 0,1 0,2 0,1 1,1 1,1 0,1 1,1 0,1 0,1 -1,1 -1,1 0,-1 -1,-1 -1,-2 -1,0 -1,0 -1,0z"/>
  <path d="M963 821c0,0 0,0 0,0 0,0 0,0 0,0 -1,1 -1,1 -1,1 1,0 1,0 1,0 0,0 0,0 0,0 0,0 0,-1 0,-1z"/>
  <path d="M977 830c-1,0 -1,1 -1,1 0,0 1,0 1,0 0,0 0,0 1,0 0,0 0,0 0,0 0,0 0,0 0,0 -1,-1 -1,-1 -1,-1z"/>
  <path d="M936 806c0,0 0,0 0,0 0,0 0,0 0,0 0,0 0,0 0,0 0,0 1,0 1,0 0,0 0,0 -1,0 0,0 0,0 0,0z"/>
  <path d="M941 816c0,0 0,0 0,0 0,0 1,1 1,1 0,0 0,0 0,0 0,0 0,0 0,-1 0,0 0,0 0,0 0,0 0,0 -1,0z"/>
  <path d="M751 769c0,0 0,0 0,0 -1,0 -1,0 -1,0 0,0 1,0 1,0 0,0 0,0 0,0 0,0 0,0 0,0 0,0 0,0 0,0z"/>
  <path d="M748 769c0,0 0,0 0,0 0,0 0,0 0,0 0,0 0,0 0,0 0,0 0,0 0,0 0,0 0,0 0,0 0,0 0,0 0,0z"/>
  <path class="Korčula" d="M731 752c-1,0 -1,0 -1,0 0,0 0,0 0,0 0,0 0,0 0,0 0,0 0,0 1,0 0,0 0,0 0,0 0,0 0,0 0,0z"/>
  <path class="Palagruža" d="M679 867c0,0 -1,-1 -2,-1 -1,1 1,3 2,3 2,0 1,-2 0,-2z"/>
  <path class="Palagruža" d="M683 869c0,0 0,0 0,0 -1,1 0,1 0,1 0,0 1,0 1,0 0,-1 0,-1 -1,-1z"/>
  <path class="Palagruža" d="M688 871c0,0 0,0 0,1 0,0 0,0 0,0 1,0 1,0 1,0 0,0 0,-1 -1,-1z"/>
 </g>

 <g id="Istarska županija" class="pol i fil3">
  <path class="i_kopno" d="M370 239l1 1c0,3 0,3 0,6 0,3 5,2 6,5 2,3 3,10 3,13 1,5 1,9 0,14 0,3 -2,6 -3,9 0,5 0,9 1,14 0,2 0,4 1,6 1,1 2,2 3,4 1,0 0,0 1,0l0 0c0,0 0,0 0,0 -1,1 -1,2 -2,2 -1,0 -1,-1 -2,-2 0,0 0,0 -1,0 0,0 0,1 0,2 0,1 1,2 2,3 0,0 -1,2 -2,3 0,1 -1,2 -2,3 0,0 -1,0 -2,1 0,0 0,1 0,2 0,0 1,1 0,1 0,1 -1,2 -1,3 0,1 1,3 1,4 0,2 1,5 0,8 0,1 0,3 -1,4 -1,1 -3,1 -5,1 -1,0 -2,-1 -3,-2 -1,0 -1,1 -2,1 0,1 0,2 -1,3 -1,0 -1,0 -2,1 0,0 -1,-1 -1,-1 0,-1 1,-1 1,-2 1,-1 2,-1 2,-2 0,-1 0,-2 -1,-2 0,0 1,-2 1,-3 0,-1 -1,-2 -1,-2 0,0 -1,0 -1,0 -1,0 -1,0 -1,-1 0,-1 0,-1 0,-2 0,-2 -1,-3 -1,-4 0,-1 1,-2 1,-3 0,0 0,-1 0,-1 -1,-1 -2,-1 -2,0 -1,1 0,2 0,3 -1,0 -1,1 -1,2 0,1 1,2 1,3 0,1 0,2 0,3 0,0 0,1 0,2 1,0 2,1 2,2 1,1 0,2 0,2 0,2 -1,3 -2,4 -1,0 -2,0 -2,1 0,1 1,1 1,2 -1,1 -1,2 -2,3 0,1 -2,0 -2,1 -1,1 -1,2 -2,3 0,0 -1,1 -2,2 0,1 1,2 1,2 -1,1 -2,1 -2,2 -1,1 0,2 0,3 -1,1 -1,2 -1,3 0,0 -1,0 -2,1 -1,0 0,1 0,1 1,0 2,0 3,0 0,0 1,1 1,1 -1,1 -2,1 -2,2 0,1 0,1 0,2 0,0 -1,0 -1,0 -1,0 -2,-1 -3,-1 0,0 -1,1 -1,1 -1,0 -2,0 -3,-1 0,0 -1,0 -1,-1 -1,-1 0,-1 0,-2 -1,-1 -1,-1 -2,-1 -1,0 -1,1 -1,1 -1,0 -1,0 -2,0 0,0 -1,0 -1,1 0,0 1,0 2,1 0,0 1,0 1,1 1,0 0,0 0,1 0,0 0,1 0,2 1,0 1,1 1,2 0,1 0,2 0,2 1,1 2,1 2,1 0,1 0,2 0,2 -1,0 -2,0 -2,-1 -1,0 -2,-1 -2,-1 0,-1 0,-2 0,-2 0,-1 -2,-1 -2,-2 0,-1 1,-2 0,-3 0,0 0,-1 -1,-1 0,0 -1,1 -1,1 -1,0 -1,-1 -2,-1 0,-1 -1,-1 -1,-2 0,-1 0,-2 0,-3 0,0 0,-1 -1,-1 0,0 0,1 0,1 -1,0 -1,1 -2,0 0,0 0,-1 0,-1 -1,-1 -1,-2 -1,-2 -1,-1 -2,-2 -3,-3 -1,0 -1,0 -1,-1 -1,0 0,-1 0,-1 1,0 1,0 2,1 0,0 1,0 1,1 1,0 1,1 2,0 0,0 0,-1 1,-1 0,-1 0,-2 0,-2 0,-1 -1,-1 -2,-1 0,0 0,2 -1,2 0,0 -1,-1 -1,-2 0,-1 -2,0 -2,-1 -1,0 1,-1 1,-2 0,0 0,0 0,-1 0,0 1,0 1,-1 0,0 0,-1 0,-1 0,-1 -1,-1 -1,-2 0,0 0,-1 -1,-2 0,0 -1,-1 -1,-2 -1,0 0,-1 -1,-2 0,-1 -1,-1 -1,-2 -1,-1 0,-2 -1,-3 -1,-1 -2,-1 -3,-1 0,-1 -1,-1 -1,-2 -1,-1 -1,-2 -2,-3 0,-1 -1,-2 -2,-3 0,-1 -1,-2 -1,-2 -1,-1 0,-2 0,-3 -1,-1 -1,-2 -2,-3 0,-1 -1,-2 -2,-2 0,0 -1,0 -1,0 -1,-1 -1,-1 -2,-1 0,-1 0,-2 0,-3 0,-1 0,-1 0,-2 -1,-1 -1,-2 -1,-2 -1,-1 -1,-2 -1,-3 -1,0 0,-1 0,-1 1,-1 2,0 2,-1 1,0 0,-1 0,-1 1,0 2,0 2,0 1,0 2,-1 3,-1 0,0 1,1 2,1 1,0 2,0 3,0 1,0 3,0 4,0 0,0 1,1 2,0 0,0 1,0 0,-1 0,0 -1,0 -2,0 0,0 -1,-1 -2,-1 0,0 -1,0 -2,0 -1,0 -3,0 -5,0 0,0 -1,-1 -1,-1 -1,0 -2,0 -4,1 -1,0 -1,1 -3,1 0,0 -1,-1 -1,-1 -1,-1 -1,-2 -1,-2 0,-1 1,-2 1,-3 0,-1 0,-2 0,-3 0,-1 0,-2 -1,-3 0,0 -1,-1 -1,-1 0,-1 1,-2 1,-3 0,-1 0,-2 0,-3 0,-1 0,-2 0,-3 0,-1 0,-2 0,-3 0,-1 -1,-2 -1,-3 0,0 0,-1 0,-1 0,0 1,0 1,0 1,0 1,0 1,0 1,-1 1,-1 0,-2 0,0 -1,0 -1,-1 0,0 -1,-1 -1,-1 0,-1 0,-1 1,-2 0,0 1,0 1,0 1,0 1,1 2,1 0,0 1,-1 1,-2 0,0 -1,0 -1,-1 0,-1 0,-1 0,-2 0,0 0,-1 -1,-1 -1,0 -1,1 -1,1 -1,1 -2,1 -3,1 0,0 -1,1 -2,1 -1,-1 -1,-2 -2,-3 0,-1 -1,-2 -1,-3 0,-1 1,-2 1,-2 0,-1 0,-1 0,-2 0,-1 -1,-2 -1,-3 0,-1 0,-3 0,-4 0,-1 -1,-2 -2,-4 0,-1 0,-2 0,-3 0,-1 0,-1 0,-2 -1,-1 -1,-2 -1,-3 0,-2 -1,-3 -2,-4 0,-1 0,-2 0,-4 0,0 0,-1 0,-1 1,-1 2,-1 2,-1 1,-1 1,-1 1,-1 1,-1 1,0 2,0 0,0 1,1 1,1 1,1 1,2 2,3 1,1 2,1 2,1 1,1 2,2 3,2 0,0 1,1 2,0 0,0 0,0 0,0 0,0 0,-1 0,-1l1 0 2 2 1 1 2 0 3 2 2 1 2 -1 4 -1 2 -1 3 2 5 0 4 0 2 1 -1 3 7 3 3 0 1 -2 2 -2 7 -1 3 1 1 0 1 -2 0 -4 -3 -2 1 -3 2 -2 7 1 10 7z"/>
  <path class="Brijuni" d="M311 351c-1,0 -1,1 0,2 0,0 1,0 1,1 0,0 0,0 -1,1 0,0 0,0 -1,0 0,1 2,3 2,3 1,0 1,0 1,0 1,-1 0,-2 0,-2 1,-1 1,-1 2,-1 0,0 -1,-1 -1,-1 0,-1 1,-1 0,-2 0,0 -1,0 -1,0 0,-1 0,-1 0,-1 -1,-1 -1,0 -2,0z"/>
  <path d="M309 349c1,0 1,0 2,0 0,-1 -1,-1 -1,-1 0,-1 -1,-1 -1,-1 -1,1 -1,1 -1,1 -1,1 -1,1 0,2 0,0 0,0 1,0 0,0 0,-1 0,-1z"/>
  <path d="M308 354c0,0 0,0 1,0 0,-1 0,-1 0,-1 -1,0 -1,0 -1,0 0,0 0,1 0,1z"/>
  <path d="M309 358c0,0 0,1 0,1 1,0 1,0 1,-1 0,0 0,0 0,0 0,0 -1,0 -1,0z"/>
 </g>

 <g id="Splitsko-dalmatinska županija" class="pol sd fil4">
  <path class="sd_kopno" d="M847 730l0 0c0,0 0,0 0,0 1,-1 2,-3 2,-4 1,-2 0,-5 1,-6 2,-1 4,0 6,0 1,-1 2,-2 2,-3 1,-1 2,-2 2,-4l0 0 -2 -2 -1 -4 0 -4 -2 -3 -8 -4 -3 -3 -3 -3 -4 -2 -2 -2 0 -4 -3 -3 1 -3 1 -4 0 -3 -3 -3 -1 -2 2 -4 1 -5 -1 -4 -3 -5 -4 -2 -4 0 -4 -1 -4 -6 -5 -2 -9 -4 -8 -5 -5 -5 -5 -5 -4 -7 -6 -3 -4 -4 -5 -6 -5 -6 -5 -6 -4 -6 -4 -4 -4 -4 -4 -4 -1 -5 -2 -2 -3 -1 -4 -4 -1 -3 0 0c-3,1 -6,2 -8,2 -2,0 -4,-1 -5,0 -2,1 -2,4 -4,5 -1,0 -3,-2 -4,-2 -2,1 -3,2 -3,3 -1,1 -1,3 -2,4 -2,1 -5,0 -7,1 -1,1 -4,3 -3,5 3,5 10,7 12,12 1,3 -3,6 -6,8 -1,1 -3,1 -5,2 0,1 2,2 1,3 0,1 -2,2 -2,4 0,1 3,2 3,4 -1,2 -2,4 -4,5 -2,1 -4,-1 -6,-1 -2,0 -4,1 -6,2 -2,1 -3,4 -5,4 -2,0 -4,-2 -6,-1 -1,0 -1,2 -2,3 -2,0 -4,-1 -5,0 -1,2 -1,5 -2,6 -2,1 -4,0 -6,1 -2,0 -5,1 -6,3 -1,2 0,4 1,6 1,1 3,2 4,4 0,1 0,3 -1,4 -1,1 -3,-1 -4,1 -1,1 -1,3 -2,4 -1,1 -5,1 -5,3 0,0 0,0 0,0l0 0c0,0 0,0 0,0 1,0 1,0 1,0 1,1 0,1 1,2 0,0 1,0 1,1 1,0 2,0 3,0 0,0 1,0 2,0 0,0 1,0 1,1 0,0 1,1 1,1 1,0 1,1 2,0 0,0 0,0 1,0 0,0 1,-1 2,-1 0,0 1,1 1,2 1,0 1,1 2,1 0,0 1,-1 1,-1 1,0 1,0 2,0 0,0 1,0 1,-1 0,0 -1,-1 -1,-1 0,-1 0,-1 1,-1 0,0 1,1 2,1 0,0 1,-1 2,-1 1,0 2,0 2,-1 1,0 0,-1 0,-2 0,0 -1,-1 -2,-1 -2,0 -3,0 -5,-1 0,0 0,-1 0,-1 1,-1 1,-1 2,-1 0,0 1,1 2,1 1,0 2,-1 3,-1 0,1 1,2 1,2 1,0 2,0 3,0 1,0 1,1 2,1 2,0 3,-2 4,-2 1,-1 2,-1 3,-1 1,0 3,-1 4,-1 1,0 2,1 3,1 1,-1 1,-1 2,-2 1,-1 2,-2 3,-2 1,0 2,-1 3,-1 2,0 4,0 6,0 1,1 3,1 4,1 1,0 3,1 4,1 1,0 2,1 4,1 0,0 1,1 1,1 0,1 -1,1 -1,2 -1,0 -2,0 -2,0 -2,0 -3,-1 -4,-1 -1,0 -1,1 -2,1 -1,0 -2,0 -2,1 -1,0 0,1 0,1 0,0 1,0 1,0 1,1 2,1 3,1 1,0 1,-1 1,-1 1,0 1,0 2,0 0,0 0,1 0,1 1,0 2,0 3,0 1,0 2,1 3,1 1,0 2,0 2,0 1,0 2,-1 2,-1 1,1 2,1 2,2 1,1 2,2 3,3 1,0 2,1 3,2 2,1 4,2 5,2 2,1 2,2 4,3 1,1 3,1 4,1 1,0 2,1 3,1 1,0 1,-1 2,-1 0,0 1,0 1,0 1,1 0,2 1,2 0,1 1,1 2,1 2,1 3,1 5,2 1,0 1,1 2,2 2,0 4,1 6,1 1,1 2,0 4,0 1,0 2,0 3,0 0,0 1,0 2,0 0,0 1,1 1,2 1,0 2,1 3,2 1,1 2,2 4,3 0,0 1,0 1,0 1,1 0,2 1,3 1,2 3,3 5,5 2,2 3,3 5,4 1,1 2,2 3,3 1,0 2,1 3,1 1,1 1,2 2,3 1,1 2,2 2,3 2,1 3,2 4,3 1,1 2,2 3,3 2,2 2,3 4,4 0,1 2,1 3,1 0,1 1,2 1,3 1,1 3,1 4,2 1,0 2,0 4,0 1,1 2,2 3,3 0,0 1,0 1,0 1,0 2,0 2,0 1,0 2,1 2,1 1,1 1,2 2,3 1,0 2,1 2,1 1,1 2,1 3,1 1,0 1,1 2,1 1,1 2,1 3,2 1,0 1,1 1,2 1,1 1,2 1,2 1,1 1,2 2,2z"/>
  <path d="M563 729c0,0 -1,0 -1,1 0,0 0,1 1,1 0,0 1,0 1,-1 0,0 0,-1 -1,-1z"/>
  <path d="M607 742c0,0 -1,0 -1,0 -1,0 -1,1 -1,1 -1,0 -1,0 -1,0 -1,0 -1,0 -2,0 0,0 -1,0 -1,0 0,1 0,1 0,2 0,0 0,0 1,0 0,1 1,0 1,0 3,-1 3,1 4,-1 1,0 1,0 1,-1 0,0 -1,-1 -1,-1z"/>
  <path d="M641 750c1,0 1,1 2,1 0,0 0,1 0,1 0,1 0,1 0,2 0,1 0,1 0,2 0,1 -1,1 -2,1 0,1 0,1 -1,1 0,1 0,1 0,1 -1,0 -1,-1 -1,-1 0,-1 1,-1 1,-1 0,-1 0,-2 0,-3 0,-1 0,-2 0,-3 0,0 0,-1 1,-1z"/>
  <path class="Vis" d="M654 740c0,0 0,1 0,2 0,1 0,1 0,1 0,1 -1,2 -2,2 0,0 -1,0 -1,1 0,0 0,1 1,1 0,0 1,0 1,0 1,0 2,-1 3,-1 0,0 1,1 2,1 1,0 1,-1 2,-1 0,0 1,-1 2,-1 1,0 2,1 3,0 1,0 2,0 3,0 1,-1 1,-1 2,-1 0,0 1,0 1,0 1,0 1,0 1,0 1,0 1,0 1,0 1,-1 1,-2 2,-2 0,-1 0,-1 0,-2 1,0 1,-1 2,-1 1,-1 1,-1 1,-2 1,0 1,-1 1,-2 0,-1 -1,-1 -1,-2 -1,0 -1,0 -1,0 -1,0 -1,0 -1,0 0,0 -1,0 -1,0 -1,0 -1,0 -1,0 -1,1 -1,1 -2,2 0,0 -1,0 -1,0 -1,0 -1,0 -1,0 0,-1 1,-1 1,-2 0,0 -1,-1 -1,-1 -1,0 -2,0 -3,0 -1,0 -3,0 -4,0 -1,0 -1,1 -2,1 -1,0 -1,0 -2,0 0,0 -1,-1 -1,-1 -1,0 -1,1 -2,1 -1,0 -1,0 -2,1 0,0 -1,1 -1,1 -1,0 -1,0 -2,0 -1,1 -1,1 -2,1 0,0 -1,1 -1,1 0,1 1,1 1,1 1,0 1,1 2,1 0,1 0,1 1,1 0,0 1,-1 2,0z"/>
  <path d="M676 744c0,0 -1,0 -1,0 0,0 0,0 1,0 0,0 0,0 0,0 0,0 0,0 0,0z"/>
  <path d="M677 741c0,0 0,0 0,1 0,0 0,0 0,0 0,0 0,0 0,0 0,0 0,-1 0,-1z"/>
  <path d="M698 715c0,-1 -1,-1 -2,-1 -1,0 -1,1 -1,1 -1,0 -1,0 -2,0 -1,-1 -1,-1 -2,-1 0,-1 0,-1 0,-2 -1,0 -2,1 -2,0 -1,0 -1,-1 -1,-1 0,0 -1,1 -1,1 0,1 0,1 1,2 1,0 2,0 2,1 1,0 1,1 2,1 0,0 1,1 2,1 0,0 1,-1 2,-1 0,0 1,0 1,0 1,0 1,0 1,0 1,-1 1,-1 0,-1z"/>
  <path d="M701 716c-1,0 -1,0 -1,0 0,0 0,1 0,1 1,0 1,0 1,0 0,-1 0,-1 0,-1z"/>
  <path d="M684 712c0,0 0,0 0,0 0,0 0,0 0,0 0,0 0,0 0,0 0,0 0,0 0,0z"/>
  <path class="Hvar" d="M700 712c0,-1 -1,-1 -1,-1 -1,0 -2,0 -3,0 0,0 -1,0 -1,-1 -1,0 -1,-1 -1,-1 -1,0 -1,0 -2,0 0,0 0,-1 0,-1 1,0 1,0 1,0 1,0 2,0 2,0 1,0 1,1 2,1 1,0 1,-1 2,-1 1,0 2,1 3,0 0,0 0,-1 1,-1 0,0 1,0 1,0 1,0 1,-1 1,-1 1,-1 1,-1 2,-1 0,0 0,1 1,1 1,0 2,0 3,0 0,0 1,0 1,1 1,0 2,-1 2,0 1,0 2,1 3,1 1,1 1,1 2,1 0,1 0,2 1,2 0,0 1,0 2,0 0,0 1,-1 1,-1 1,0 1,0 2,0 0,0 0,1 1,1 0,0 1,0 1,-1 0,0 0,0 0,0 -1,-1 -2,-1 -3,-1 0,0 0,0 -1,0 -1,-1 -2,-1 -2,-2 -1,-1 -1,-1 -1,-2 0,0 0,-1 -1,-1 0,0 0,1 -1,1 0,0 -1,0 -1,0 0,-1 0,-2 -1,-2 0,-1 -1,-1 -1,-1 0,-1 0,-1 1,-1 0,-1 1,-1 1,-1 1,1 1,2 2,2 0,0 0,0 0,0 1,0 0,-1 0,-1 1,-1 1,-1 1,-1 0,0 1,0 1,0 0,0 0,1 0,1 0,0 1,0 1,0 0,0 1,0 1,0 1,0 1,1 1,1 0,0 -1,1 -1,1 0,0 0,1 0,2 1,0 2,0 2,0 1,0 1,-1 1,-1 1,0 1,0 2,0 0,0 1,0 1,0 1,0 1,1 2,1 0,-1 1,-1 1,-1 1,0 2,0 2,0 0,0 2,0 2,0 1,1 1,1 1,1 0,1 -1,1 -1,1 0,1 0,2 0,2 1,1 2,0 2,1 1,0 1,1 1,1 1,1 0,2 1,2 0,1 0,1 1,2 0,0 1,0 1,0 1,0 2,1 2,1 1,0 3,0 4,0 0,0 1,0 1,0 0,-1 0,-1 0,-1 1,-1 2,0 3,0 1,0 2,1 4,2 0,0 1,0 2,0 1,0 1,0 2,0 0,-1 0,-1 1,-1 0,0 1,0 1,0 1,0 1,1 2,1 0,0 1,0 1,0 1,0 2,-1 2,-1 1,0 1,0 2,0 0,0 0,1 0,1 0,0 1,1 1,1 1,0 1,-1 2,-1 0,0 0,-1 0,0 1,0 1,0 1,0 1,1 2,0 3,0 1,1 1,1 2,1 1,0 2,0 2,0 2,0 3,1 4,1 0,0 1,-1 2,-1 1,0 1,1 2,1 0,0 3,1 4,1 1,0 4,0 4,0 1,0 1,0 2,0 1,1 2,1 3,1 1,0 2,-1 3,-1 1,0 1,0 1,1 1,0 1,0 1,0 1,1 1,1 2,1 1,0 1,0 2,0 0,0 0,-1 1,-1 0,0 1,0 1,0 1,0 1,1 1,1 1,0 2,0 2,0 1,0 1,1 1,1 0,0 1,0 2,0 0,1 0,1 0,1 -1,1 -1,1 -1,1 -1,0 -2,-1 -2,-1 -1,1 -2,1 -2,1 -1,0 -2,0 -3,0 -1,1 -2,1 -3,1 0,0 -1,0 -1,0 -1,0 -2,0 -2,0 -2,0 -3,0 -5,0 -2,0 -5,0 -7,0 -1,0 -2,0 -3,0 -1,0 -1,-1 -2,-1 0,0 -1,0 -1,0 -1,1 -1,1 -2,1 0,0 -1,0 -1,0 -1,0 -1,-1 -1,-1 -1,0 -2,1 -2,1 -1,0 -2,0 -3,0 -1,0 -2,-1 -3,-1 -1,0 -1,1 -1,1 -1,0 -1,0 -2,0 0,0 -1,-1 -1,-1 -1,0 -2,0 -3,0 -1,0 -3,0 -5,0 -1,0 -2,-1 -3,-1 -2,0 -3,0 -4,0 -1,0 -2,0 -3,-1 -1,0 -2,1 -3,1 -1,0 -2,0 -4,0 -1,0 -2,0 -3,0 0,0 -1,0 -2,0 -1,0 -1,0 -2,0 -1,0 -2,0 -3,-1 -1,0 -2,0 -2,0 -1,0 -2,0 -2,0 -2,0 -3,-1 -5,-1 0,0 0,0 -1,0 -1,-1 -2,0 -3,-1 0,0 -1,0 -1,0 -1,-1 -2,-1 -2,-1 -1,0 -1,0 -2,0 0,0 -1,0 -1,0 -1,0 -1,0 -1,-1 -1,0 -1,-1 -1,-1 -1,-1 -2,0 -3,-1 0,0 -1,0 -1,0 0,-1 -1,-1 -1,-1 0,1 -1,1 -1,1 0,0 -1,1 -2,0 -1,0 -2,0 -2,-1 -1,0 0,-1 -1,-2 0,0 0,0 0,0 -1,-1 -1,0 -2,-1 0,0 -1,0 -1,0z"/>
  <path class="Brač" d="M774 685c0,0 -1,1 -1,1 0,0 0,1 0,1 0,1 -1,1 -1,1 0,0 0,1 0,1 -1,1 -1,1 -2,1 0,0 -1,1 -2,2 0,0 0,1 0,1 -1,0 -1,-1 -2,-1 0,0 0,1 -1,1 0,0 0,1 -1,1 -1,0 -2,0 -2,0 -1,0 -2,1 -3,1 -2,0 -3,0 -4,0 -1,0 -1,0 -2,0 0,0 -1,0 -2,0 -2,0 -4,0 -5,1 -1,0 -2,0 -3,0 -1,0 -2,0 -4,0 0,0 -1,0 -1,0 -1,0 -1,1 -1,1 0,-1 0,-1 0,-1 -1,0 -2,0 -2,0 0,0 -1,0 -1,0 -1,-1 -2,-1 -3,-1 -1,-1 -2,0 -3,0 0,0 -1,0 -2,0 -1,0 -2,0 -2,-1 -1,0 -1,-1 -2,-1 -1,0 -2,0 -3,0 -1,0 -2,0 -2,0 -1,0 -1,0 -2,0 -1,0 -1,0 -2,-1 -1,0 -2,-1 -2,-1 0,-1 0,-1 0,-2 0,0 -1,-1 -1,-1 -1,0 -1,1 -1,1 -1,0 -1,0 -1,-1 -1,0 -1,-1 -1,-1 0,0 -1,0 -1,-1 -1,0 -1,-1 -1,-1 -1,0 -1,0 -1,0 -1,1 -1,1 -1,1 -1,0 -1,-1 -1,-1 0,-1 -1,0 -1,0 -1,0 -1,0 -1,-1 0,-1 -1,-1 -1,-2 0,0 0,0 1,-1 0,0 1,1 2,2 0,0 0,0 1,0 0,0 1,-1 1,-1 1,-1 0,-1 0,-2 -1,0 -1,-1 0,-2 0,-1 1,0 2,-1 0,-1 -1,-1 -1,-2 0,-1 0,-1 0,-2 0,0 -1,0 -1,-1 -1,0 -1,0 -2,-1 0,-1 0,-2 1,-2 0,-1 1,0 1,0 1,0 2,0 2,0 1,0 2,0 3,0 0,0 1,1 2,1 0,0 1,0 2,0 1,1 1,1 2,1 1,0 1,-1 2,-1 0,-1 1,-1 2,-1 1,1 2,1 3,1 1,1 1,1 2,1 0,0 1,1 2,1 0,0 1,0 1,0 1,0 2,-1 3,-1 0,0 1,1 2,1 0,0 1,0 2,0 1,0 1,1 2,1 0,0 1,0 2,0 0,0 1,1 2,1 1,0 2,0 3,0 1,1 1,2 3,2 1,0 1,-1 2,-1 1,0 3,0 4,0 1,0 2,1 2,1 1,0 2,0 3,0 0,0 0,0 0,0 1,0 1,0 1,0 1,0 1,0 2,0 0,0 1,1 1,1 0,0 0,1 0,1 0,0 -1,1 -1,1 0,0 0,0 0,1 0,0 0,0 0,0 1,1 1,0 1,0 1,1 1,1 1,1 1,0 1,0 1,0 0,-1 0,-1 0,-2 1,0 1,0 2,0 1,0 3,1 4,1 1,1 1,2 1,2 0,0 1,0 2,0 0,0 0,1 0,1 1,0 1,0 2,1 0,0 0,0 0,0 0,1 0,1 0,1z"/>
  <path d="M698 649c0,0 -1,1 -2,1 -1,0 -1,0 -2,0 -1,1 -3,1 -5,1 -1,-1 -3,-1 -4,-1 -1,0 -2,-1 -3,-1 0,0 -1,1 -1,1 -1,0 -1,0 -2,0 0,0 0,0 -1,0 0,0 0,0 -1,0 0,1 0,1 -1,1 0,0 0,-1 -1,-1 0,-1 -1,-1 -1,-1 -1,0 -1,0 -1,0 0,0 0,-1 0,-1 1,0 1,-1 2,-1 1,0 2,1 3,1 1,0 1,-1 1,-1 1,-1 0,-1 0,-1 -1,-1 -1,-1 -2,-1 0,0 0,-1 0,-1 0,-1 1,-1 2,-1 1,0 1,0 2,0 1,0 1,1 2,1 0,0 0,0 1,0 1,0 1,0 2,0 2,0 3,1 4,1 1,1 1,2 1,2 1,0 2,1 3,1 0,0 1,-1 2,-1 0,0 0,1 0,1 1,0 2,0 2,0 0,0 0,1 0,1z"/>
  <path class="Šolta" d="M677 665c0,0 -1,0 -2,0 -1,0 -1,0 -2,-1 0,0 -1,1 -2,1 0,-1 -1,-1 -1,-1 -1,0 -2,0 -2,1 0,0 0,1 0,2 0,0 0,0 1,1 0,0 0,0 0,0 1,1 0,2 1,2 0,1 1,0 2,1 0,0 1,0 1,1 1,0 2,0 3,0 1,1 2,1 3,1 0,0 1,0 2,1 1,0 1,1 2,1 1,1 1,1 2,2 1,0 2,0 2,1 1,0 2,1 2,1 0,0 1,1 1,1 1,0 2,0 3,0 0,1 0,2 1,2 0,0 1,0 1,0 1,0 1,-1 1,-1 0,0 1,0 1,0 0,-1 0,-1 -1,-2 0,0 -1,-1 -1,-1 -1,-1 -1,-1 -1,-2 -1,0 -1,-1 -1,-2 -1,0 -1,-1 -2,-2 0,0 -1,0 -1,0 -1,-1 -1,-2 -2,-3 0,0 -1,0 -1,0 -1,0 -1,0 -1,1 0,0 0,1 -1,1 0,0 -1,-1 -1,-1 0,-1 0,-1 0,-2 0,0 0,-1 -1,-1 0,0 -1,0 -2,0 0,-1 -1,-1 -2,-2 0,0 -2,0 -2,0z"/>
  <path d="M666 656c0,1 0,2 0,2 0,1 0,1 0,1 -1,1 -1,1 -1,1 -1,0 -1,1 -1,1 0,0 -1,0 -1,0 -1,0 0,-1 -1,-1 0,0 -1,0 -1,0 0,0 0,1 0,1 -1,0 -1,0 -2,0 0,0 -1,-1 -1,-1 0,0 -1,1 -1,1 -1,-1 -1,-1 -1,-1 0,-1 1,-1 1,-1 0,0 1,0 1,-1 1,0 0,0 1,-1 0,0 1,1 1,0 0,0 0,0 0,0 0,-1 0,-1 -1,-1 0,0 0,-1 0,-1 1,0 1,0 2,0 0,0 0,0 1,0 0,0 1,0 2,0 1,0 1,1 1,1 1,0 1,0 1,0z"/>
  <path d="M653 658c-1,0 -1,1 -2,1 0,0 0,-1 -1,-1 0,0 0,0 -1,0 0,0 -1,0 -1,0 0,0 0,-1 0,-1 0,0 1,0 1,0 1,-1 1,-1 1,-1 1,-1 1,-1 1,0 1,0 1,1 1,1 1,0 1,-1 1,-1 1,0 1,0 1,1 0,0 1,0 1,1 -1,0 -1,0 -1,1 0,0 -1,-1 -1,-1z"/>
  <path d="M748 731c-1,0 -2,0 -3,0 0,0 -1,1 -1,1 0,0 -1,0 -1,0 -1,0 -1,0 -2,-1 -1,0 -1,0 -2,0 -1,0 -2,0 -2,0 -1,0 -1,0 -1,-1 0,0 1,-1 1,-1 1,0 2,0 3,0 1,0 1,0 2,0 1,0 1,0 1,0 1,0 1,0 2,0 0,0 1,0 2,0 0,0 1,0 1,0 0,0 0,1 0,1 0,0 0,1 0,1z"/>
  <path d="M725 731c0,0 0,0 0,0 0,0 0,0 0,0 0,0 0,0 0,0 0,0 0,1 0,1 0,0 0,-1 0,-1 0,0 0,0 0,0z"/>
  <path d="M667 669c0,0 0,0 0,0 0,0 0,0 0,0 0,0 0,0 0,0 0,0 0,0 0,0z"/>
  <path d="M673 651c0,0 0,0 -1,0 0,0 1,0 1,0 0,0 0,0 0,0 0,0 0,0 1,0 0,0 -1,0 -1,0z"/>
  <path d="M669 651c0,0 0,0 0,0 0,0 0,0 0,0 0,0 0,0 0,0 0,0 0,0 0,0z"/>
  <path d="M665 667c0,0 0,0 0,0 0,0 0,0 0,0 0,0 0,0 0,0 0,0 1,0 1,0 0,0 0,0 -1,0z"/>
 </g>

 <g id="Vukovarsko-srijemska županija" class="pol vs fil5">
  <path class="vs_kopno" d="M1087 247c1,1 2,2 3,3 0,1 1,2 0,3 0,1 -2,2 -3,3 -1,0 -1,1 -2,2 0,1 1,2 1,3 2,1 3,0 5,1 1,0 3,1 4,2 1,1 1,3 2,4 1,1 3,3 5,4 2,2 3,3 5,5 2,1 3,3 5,4 1,1 3,1 5,1 1,0 3,-1 4,-1 1,0 2,-1 2,-1 1,0 2,0 2,0l2 0 1 1 0 3 1 3 6 1 5 -1 4 0c0,0 5,1 8,0 0,1 0,3 0,4 1,1 1,3 2,4 1,0 0,1 0,1 0,1 0,4 0,5 -1,0 -2,0 -3,1 -1,1 -2,0 -4,2 -1,0 -3,0 -4,0 -2,0 0,-1 -2,-1 0,-1 -1,-4 -1,-5 0,0 0,-1 -1,-2l-7 0 0 5 -2 1 -5 0 -5 -4 -2 -1 -1 1 -2 2 3 2 -3 5 -3 3 -7 -2 -1 2 -1 4 2 2 2 6 -1 3 1 1 -1 4 1 5 -1 2 -5 3 -1 1 0 2 5 0 5 -1c1,2 1,3 2,5 -1,1 -2,2 -3,3 -1,1 -3,2 -4,3 -2,1 -1,0 -3,1 -1,1 -3,-1 -6,4 -1,0 -1,1 -1,1 1,2 2,4 3,6 -1,1 -2,1 -4,1 -4,1 -8,2 -12,2 -2,0 -5,0 -7,-1 -1,0 -3,0 -4,-1 -1,0 -1,-2 -3,-2 -2,-2 -5,-2 -7,-3 -1,-1 -3,-3 -4,-5 0,0 -1,-2 -1,-3 0,0 1,-1 1,-2 1,0 2,0 2,-1 1,0 1,-1 1,-2 0,-1 -1,-1 -1,-2 -1,-1 -1,-2 -1,-3 -1,-1 0,-2 -1,-3 -1,0 -2,-1 -3,-1 0,0 -1,1 -2,1 -1,0 -1,1 -2,0 0,0 0,-1 0,-1 0,-2 0,-3 0,-4 0,-1 0,-2 -1,-2 -1,-1 -3,-2 -4,-3 -1,0 -1,-1 -1,-2 -1,-2 -1,-3 -1,-4 0,-1 1,-3 0,-3 0,-1 -1,-2 -2,-1 -1,0 -2,0 -2,1 0,1 0,3 0,4 0,1 1,2 0,3 0,1 -2,1 -3,1 -1,1 -2,1 -3,0 -1,0 -1,-1 -1,-1 0,-1 2,-1 2,-1 1,-1 1,-2 1,-2 0,-1 0,-2 0,-2 -1,0 -2,0 -2,0 -1,0 -2,0 -3,0 0,0 -1,-1 -2,-1 0,0 -1,0 -2,1 0,1 1,2 1,3 0,0 -1,1 -1,1 -1,0 -2,0 -2,-1 -1,0 0,-1 -1,-2 0,0 -1,-1 -2,-1 -1,0 -2,1 -2,1l0 1c0,-1 -2,-2 -2,-3 -1,-1 -1,-2 0,-4 0,-2 2,-4 3,-6 1,-2 -1,-1 0,-4 1,-2 -1,-5 -3,-7l0 0 0 0c0,0 0,0 0,0 0,0 0,1 0,1l2 -1 2 -2c0,0 0,-1 1,-2 0,-1 1,-1 1,-2 -1,-2 -2,0 -4,-3 -1,-2 -3,-1 -3,-1 -3,-1 -1,-2 -4,-4 -2,-1 0,-3 3,-6 1,-2 3,-1 5,-1 2,0 0,-4 3,-8 1,-1 6,-3 8,-4 4,-2 7,-3 11,-5 2,0 3,-1 4,-2 3,-1 4,-2 7,-2 1,-1 2,1 4,1 2,0 1,1 2,-1 2,-4 1,-2 2,-4 1,-3 4,-4 7,-3 3,3 6,-2 8,0 1,1 1,1 4,1 2,0 5,-6 7,-5l0 -1z"/>
 </g>

 <g id="Šibensko-kninska županija" class="pol sk fil6">
  <path class="sk_kopno" d="M571 572l0 0c1,1 2,2 3,3 0,0 1,0 2,0 1,1 1,2 1,3 3,2 6,3 8,4 2,2 4,3 5,4 0,1 0,1 0,1 -1,0 -2,0 -2,0 -1,-1 -2,-1 -2,-2 -1,0 -2,0 -2,1 0,1 1,1 2,2 0,1 2,2 3,2 0,1 1,1 2,2 1,1 2,2 3,3 1,1 2,1 3,1 0,1 1,1 2,1 0,1 1,1 2,1 0,0 1,0 1,0 2,1 3,2 4,2 1,0 1,-1 2,-1 1,0 1,0 2,1 0,0 1,1 1,1 1,0 2,0 3,0 0,1 1,2 2,2 1,1 1,2 2,2 0,0 1,0 1,0 1,0 0,-1 1,-1 0,0 1,0 2,0 0,-1 0,-1 0,-2 -1,-1 -1,-2 -2,-3 -1,-1 -2,-3 -2,-4 -1,-1 -1,-1 -1,-2 0,0 1,0 1,-1 1,0 1,-1 1,-2 1,0 2,-1 2,-1 0,-1 -1,-2 -1,-2 0,-1 0,-2 1,-3 0,-1 1,-1 1,-1 1,-1 3,0 4,1 0,0 0,1 1,1 0,1 1,1 2,1 1,0 2,-1 3,-1 1,0 2,0 2,1 1,0 2,0 3,0 0,0 0,0 1,-1 0,0 0,-1 0,-1 1,-1 1,-1 1,-2 0,-1 0,-2 0,-3 0,-1 -1,-2 -2,-3 0,-1 0,-1 0,-2 1,-1 1,-3 2,-4 0,0 1,0 1,1 0,1 -1,3 -1,4 0,1 1,2 1,2 1,1 1,2 1,3 0,1 0,2 0,3 0,1 0,2 0,3 0,0 0,1 0,2 0,0 0,1 0,1 -1,1 -2,1 -2,1 -1,0 -2,-1 -2,-1 -1,0 -2,-1 -3,-1 -1,-1 -2,0 -3,0 -2,0 -3,1 -4,1 0,0 -1,0 -1,0 0,0 0,1 0,2 0,0 -1,0 -1,0 -1,0 -2,0 -2,0 -1,0 -1,0 -2,1 0,0 -1,1 -1,2 0,1 1,2 1,3 1,1 2,2 3,3 1,1 2,2 3,3 0,1 0,1 0,2 -1,1 -1,1 -2,1 -1,0 -1,-1 -1,-1 -1,1 -2,1 -2,2 0,0 0,1 0,2 1,1 2,1 3,2 1,0 2,1 3,0 0,0 1,0 1,-1 1,0 0,-1 0,-1 1,0 1,0 2,0 0,0 1,1 1,1 1,1 0,2 0,2 0,0 -1,0 -2,1 0,0 0,0 0,1 0,0 1,1 0,1 0,1 -2,1 -2,1 0,0 -1,0 -1,1 0,0 0,1 0,1 1,0 2,0 2,0 1,0 1,0 2,0 1,0 2,0 2,1 0,0 0,1 0,1 -1,1 -2,1 -2,1 -1,0 -1,-1 -2,-1 0,0 -1,0 -1,1 -1,0 0,1 0,2 0,1 0,1 0,2 0,1 -1,1 -1,2 0,1 1,1 1,2 0,1 -1,2 -1,3 0,0 1,0 2,1 0,0 1,0 1,0 0,1 -1,1 -1,2 0,0 0,0 0,1 0,1 1,2 2,2 0,1 1,1 2,2 0,0 0,1 0,1 1,0 2,-1 2,-1 1,0 1,-1 2,-1 0,0 0,1 0,1 0,1 0,2 -1,2 0,1 0,1 -1,1 0,0 -1,0 -2,0 0,0 -1,1 -1,1 1,1 2,2 3,2 1,1 1,0 2,0l0 0c0,0 0,0 0,0 0,-2 4,-2 5,-3 1,-1 1,-3 2,-4 1,-2 3,0 4,-1 1,-1 1,-3 1,-4 -1,-2 -3,-3 -4,-4 -1,-2 -2,-4 -1,-6 1,-2 4,-3 6,-3 2,-1 4,0 6,-1 1,-1 1,-4 2,-6 1,-1 3,0 5,0 1,-1 1,-3 2,-3 2,-1 4,1 6,1 2,0 3,-3 5,-4 2,-1 4,-2 6,-2 2,0 4,2 6,1 2,-1 3,-3 4,-5 0,-2 -3,-3 -3,-4 0,-2 2,-3 2,-4 1,-1 -1,-2 -1,-3 2,-1 4,-1 5,-2 3,-2 7,-5 6,-8 -2,-5 -9,-7 -12,-12 -1,-2 2,-4 3,-5 2,-1 5,0 7,-1 1,-1 1,-3 2,-4 0,-1 1,-2 3,-3 1,0 3,2 4,2 2,-1 2,-4 4,-5 1,-1 3,0 5,0 2,0 5,-1 8,-2l-5 -6 -7 -6 -6 -2 -3 -3 -2 -1 -4 -2 -6 -10 -6 -7 -5 -6 -3 -6 -1 -3 0 -1c0,0 0,0 0,0 -2,1 -3,2 -5,3 -4,2 -8,5 -11,8 -1,2 1,5 0,6 -2,2 -5,4 -8,4 -3,0 -6,-2 -9,-4 -1,-2 0,-4 0,-6 -1,-1 -2,-2 -3,-2 -2,1 -4,4 -7,5 -3,2 -6,2 -8,4 -2,3 -4,7 -5,11 0,1 2,2 2,3 -1,5 -4,8 -6,13 0,1 -2,3 -2,5 0,1 2,2 2,3 0,1 -1,2 -2,3 0,0 -1,1 -1,1 0,1 2,2 1,3 -1,2 -3,1 -5,3 -1,1 -1,3 -3,4 -1,1 -3,1 -4,2 -1,2 0,4 0,6 -1,1 -1,3 -3,3 -2,0 -3,-3 -6,-3 -2,0 -6,2 -8,1 -3,-1 -4,-6 -7,-7 -3,0 -5,3 -8,5 0,0 0,0 0,0z"/>
  <path class="Kornati" d="M561 608c0,0 0,0 1,1 0,0 1,1 1,1 1,0 2,0 2,0 0,0 1,1 1,1 0,0 1,0 1,-1 -1,0 -1,-1 -2,-1 0,0 -1,-1 -2,-1 0,0 -1,-1 -1,-2 0,0 -1,0 -1,0 -1,0 -1,1 -1,1 0,0 1,0 1,1z"/>
  <path d="M536 594c1,0 1,0 2,0 0,1 1,1 1,2 1,0 1,0 2,1 1,0 1,0 1,-1 1,0 0,0 0,-1 0,0 0,0 -1,-1 0,0 0,0 -1,0 0,0 -1,-1 -1,-1 -1,0 -1,0 -2,0 0,0 -1,-1 -1,-1 0,0 -1,1 -1,1 1,1 1,1 1,1z"/>
  <path d="M524 583c1,1 1,1 2,1 0,0 1,0 1,0 0,-1 -1,-1 -1,-2 -1,0 -1,0 -1,0 -1,0 -1,1 -1,1 0,0 0,0 0,0z"/>
  <path d="M544 598c0,0 0,1 1,1 0,0 1,0 1,0 1,-1 1,-1 1,-1 0,-1 0,-1 0,-1 -1,0 -1,0 -1,0 -1,0 -1,0 -1,0 -1,0 -1,0 -1,1z"/>
  <path d="M551 603c0,1 1,1 1,1 0,0 1,0 1,0 0,0 0,-1 0,-1 0,0 -1,-1 -1,-1 0,0 0,0 -1,1 0,0 0,0 0,0z"/>
  <path d="M557 604c0,0 1,1 1,1 0,0 1,0 1,0 0,0 0,-1 0,-1 0,0 -1,0 -1,0 0,0 -1,0 -1,0z"/>
  <path d="M561 604c0,0 1,0 1,0 0,0 1,0 1,-1 0,0 -1,0 -1,0 0,0 -1,0 -1,1z"/>
  <path d="M546 587c0,0 0,1 0,1 1,0 1,1 1,1 0,-1 0,-1 0,-1 0,-1 0,-1 -1,-1z"/>
  <path d="M524 570c-1,0 -1,0 -2,0 0,1 0,1 0,1 0,1 1,1 1,0 1,0 1,0 1,-1z"/>
  <path d="M532 562c1,0 1,1 2,1 0,1 1,2 2,2 0,0 0,0 0,0 0,-1 0,-1 0,-2 -1,0 -2,-1 -2,-2 0,0 -1,0 -1,-1 0,0 0,0 -1,0 0,1 0,1 0,2z"/>
  <path d="M570 576c-1,1 0,1 0,1 1,0 1,0 1,0 0,-1 0,-1 -1,-1 0,0 0,0 0,0z"/>
  <path d="M532 589c0,0 1,0 1,0 0,0 0,0 0,0 0,0 0,-1 0,-1 0,0 -1,0 -1,1z"/>
  <path d="M551 600c0,0 0,0 0,0 0,1 0,0 0,0 0,0 0,0 0,0 0,0 0,0 0,0z"/>
  <path d="M521 577c0,0 1,1 1,1 0,0 0,0 0,-1 0,0 0,0 0,0 0,0 -1,0 -1,0z"/>
  <path d="M527 563c0,0 1,0 1,0 0,0 0,0 0,0 0,0 0,-1 0,-1 0,0 -1,0 -1,1z"/>
  <path d="M572 585c0,0 0,0 0,0 0,0 1,0 1,0 0,0 -1,0 -1,0 0,0 0,0 0,0z"/>
  <path d="M588 594c-1,-1 -2,-1 -3,-2 0,-1 0,-2 0,-2 0,0 -1,-1 -1,-1 0,-1 0,-1 -1,-2 0,0 -1,0 -1,-1 -1,0 -1,0 -2,-1 0,-1 0,-1 0,-2 -1,-1 -1,0 -1,-1 0,0 -1,0 -1,1 0,0 0,0 0,1 0,0 -1,0 -1,0 0,0 -1,0 -1,-1 0,0 0,0 -1,0 0,0 0,1 0,1 0,1 1,1 1,2 0,1 0,1 1,1 1,1 2,1 2,1 1,1 1,1 1,2 0,0 1,1 1,1 0,1 1,2 1,2 1,0 1,1 2,1 0,0 1,0 1,0 1,1 1,1 2,1 0,0 1,0 1,0 0,0 0,-1 0,-1z"/>
  <path d="M595 611c1,1 1,1 1,1 1,1 0,1 0,1 0,1 0,1 1,1 0,0 0,-1 2,1 0,0 1,0 1,-1 1,0 1,-1 1,-1 -1,-1 -2,-1 -3,-2 -1,-1 0,-2 -1,-2 0,-1 -1,0 -2,-1 0,0 0,-1 -1,-1 0,0 0,0 -1,0 0,0 -1,0 -1,0 0,0 0,1 0,1 0,0 1,1 1,1 0,1 2,2 2,2z"/>
  <path d="M588 608c0,0 0,0 -1,0 0,0 0,0 0,1 -1,0 0,1 0,1 1,1 1,2 2,2 1,1 2,1 2,1 1,0 2,1 2,1 1,0 1,-1 1,-1 0,-1 -1,-1 -1,-1 -1,-1 -1,-1 -2,-1 -1,-1 -1,-1 -2,-1 0,-1 0,-1 -1,-2z"/>
  <path d="M609 612c0,0 -1,0 -2,0 0,-1 -1,-1 -2,-1 -1,0 -1,0 -1,0 0,1 -1,1 -1,1 1,1 1,1 1,1 1,0 1,0 2,0 1,1 0,0 2,1 2,1 3,-2 1,-2z"/>
  <path d="M620 610c1,0 1,1 1,2 1,0 1,1 1,1 0,1 0,1 -1,2 0,0 0,0 -1,0 0,-1 0,-1 0,-2 -1,0 -2,-1 -2,-1 -1,-1 -1,-1 -1,-2 0,0 1,0 1,0 0,-1 0,-1 0,-1 0,-1 1,-1 1,-1 0,1 1,1 1,2z"/>
  <path d="M606 608c-1,0 -1,-1 -1,-1 -1,-1 -1,-1 -1,-2 0,0 0,-1 0,-1 0,0 0,-1 0,-1 1,0 1,0 1,1 0,0 1,1 1,1 1,1 1,1 2,2 0,0 0,1 0,1 0,0 0,1 -1,1 0,0 -1,-1 -1,-1z"/>
  <path d="M609 603c-1,0 0,1 0,1 0,1 0,2 1,2 0,1 1,1 1,0 0,0 0,0 1,0 0,0 0,-1 0,-1 0,0 -1,-1 -1,-1 -1,0 -1,-1 -1,-1 -1,0 -1,0 -1,0z"/>
  <path d="M542 582c-1,-1 -2,-1 -3,-2 0,-1 0,-1 -1,-2 -1,0 -1,0 -2,0 -1,0 -1,0 -2,-1 0,0 0,-1 0,-1 0,-1 0,-1 0,-2 -1,0 -1,0 -2,-1 0,0 0,-1 -1,-1 0,0 -1,0 -2,0 0,0 -1,-1 -1,-1 0,-1 0,-1 0,-1 0,-1 0,-1 0,-2 0,0 1,0 1,0 1,0 1,1 1,1 0,0 1,0 1,0 0,0 0,-1 0,-1 0,0 1,0 1,0 1,0 0,1 1,1 0,0 0,0 1,0 0,0 0,1 0,1 0,0 0,1 0,1 1,0 1,1 2,1 0,0 0,0 0,-1 0,0 0,0 0,0 1,0 1,0 1,0 0,0 0,1 1,1 0,1 -1,2 0,3 0,1 1,1 1,1 1,1 2,1 2,2 1,0 1,1 1,2 1,0 1,1 2,2 0,0 1,1 1,1 0,1 -1,1 -1,0 0,0 -1,0 -1,0 0,0 0,-1 -1,-1z"/>
  <path d="M532 589c0,0 1,0 1,0 0,0 0,0 0,0 0,0 0,-1 0,-1 0,0 -1,0 -1,1z"/>
  <path d="M597 619c0,0 -1,0 -2,-1 0,0 0,-1 -1,-1 0,0 -1,0 -2,0 0,0 0,-1 0,-1 -1,-1 -1,-1 -2,-1 0,0 -1,1 -1,1 -1,-1 -1,-1 -2,-2 -1,0 -1,-1 -2,-1 0,0 -1,0 -2,0 0,0 0,-1 -1,-1 0,0 -1,0 -1,0 -1,0 -1,1 -1,1 1,1 2,2 3,3 1,0 2,0 2,1 1,0 2,1 3,2 1,0 1,1 1,2 1,0 2,0 2,0 1,0 1,-1 2,-1 1,0 1,0 2,0 1,1 1,1 2,1 1,0 1,0 1,0 0,-1 0,-1 0,-1 0,0 -1,0 -1,-1z"/>
  <path class="Kornati" d="M523 574c0,1 0,1 1,1 0,1 0,2 0,2 0,1 0,1 1,2 0,1 0,1 1,1 0,1 1,1 2,1 0,1 0,2 1,2 0,1 1,1 1,1 1,0 1,1 2,1 0,0 0,0 1,0 0,0 0,0 1,0 0,0 0,0 0,1 1,0 1,1 1,1 0,1 1,1 1,1 1,1 1,1 2,1 1,1 1,1 1,2 1,0 1,0 1,0 1,0 1,0 1,0 0,0 0,-1 0,-1 1,0 1,0 1,1 1,0 0,0 1,1 0,0 1,1 2,1 1,1 1,1 2,2 0,0 1,1 1,1 0,0 1,0 1,0 1,0 1,1 2,1 0,0 0,1 0,1 1,0 1,0 1,1 1,0 1,0 1,0 1,1 1,1 2,1 0,0 0,0 1,1 0,0 0,0 0,1 1,0 1,0 2,0 0,0 0,0 1,0 0,0 0,0 0,-1 0,0 -1,0 -1,-1 0,0 -1,0 -1,-1 0,0 -1,0 -2,0 0,-1 -1,-1 -1,-2 -1,-1 -2,-1 -3,-2 -1,0 -1,-1 -2,-1 -1,-1 -1,-1 -2,-2 0,0 -1,-1 -2,-1 0,-1 0,-1 0,-1 -1,-1 -1,-1 -2,-1 0,-1 0,-2 -1,-2 0,0 -1,0 -1,-1 -1,0 -1,0 -1,-1 0,0 -1,-1 -1,-1 0,-1 -1,-1 -2,-1 -1,0 -1,-1 -2,-1 -1,-1 -1,-1 -1,-1 -1,-1 -1,-1 -2,-2 -1,0 -2,0 -2,-1 -1,0 -1,-1 -1,-1 -1,0 -1,0 -2,-1 0,0 0,0 0,-1 0,0 1,0 1,0 0,-1 -1,-1 -1,-2 -1,0 -1,0 -1,0 -1,0 -1,0 -2,0 0,0 -1,0 -1,0 0,0 -1,0 -1,1 0,0 0,0 1,0z"/>
 </g>

 <g id="Osječko-baranjska županija" class="pol ob fil7">
  <path class="ob_kopno" d="M1087 248l0 -1c0,0 -1,0 -1,-1 -1,-1 -1,-2 0,-3 0,-2 1,-4 2,-5 1,-1 2,-1 3,-1 2,0 3,1 5,1 1,0 3,0 4,0 1,-1 2,-2 2,-3 1,-1 0,-3 0,-4 -1,-1 -2,-1 -3,-3 -1,-1 -3,0 -4,-1 -1,-1 -2,-2 -4,-2 -1,-1 -2,0 -3,0 -2,0 -3,2 -4,2 -2,1 -4,-5 -5,-5 -1,-1 -2,-1 -3,-2 -1,-1 -1,-2 -1,-3 0,-1 1,-1 2,-2 0,0 1,0 2,0 1,0 3,1 4,1 1,-1 2,-2 1,-2 0,-1 0,-2 -1,-3 -1,-1 -3,-1 -4,-2 -1,0 -2,0 -3,-1 -1,0 -1,-1 0,-2 0,0 1,0 2,0 1,0 3,1 4,0 1,0 1,-2 1,-3 0,-1 0,-2 -1,-3 -1,-2 -2,-3 -3,-4 0,-1 -1,-2 -1,-3 1,-1 2,1 3,0 1,0 1,-1 1,-1 0,-1 0,-1 0,-1 -1,-1 -2,-1 -3,-1 -1,0 -2,1 -3,1 0,-1 -1,-1 -1,-2 1,-1 3,-1 4,-2 1,-1 1,-2 1,-3 0,-1 0,-2 -1,-3 0,-1 -1,-3 -2,-3 -2,0 -3,1 -4,1 -2,0 -3,0 -5,0 -1,0 -2,0 -3,-1 -1,0 -2,-1 -2,-2 1,-1 3,0 4,-1 2,0 3,-1 4,-1 1,-1 1,-2 1,-2 0,-1 -1,-2 -2,-2 -1,-1 -2,-2 -3,-2 -1,0 -1,0 -2,-1 -1,-1 -1,-2 0,-3l2 -2 4 1 0 -2 -3 -3 0 -4 1 -2 0 -1 -7 2 -3 2 1 2 -2 2 -6 -1 -4 -3 -4 0 -3 -1 -2 0 -4 7 -5 2 -8 14 -6 1 -3 -1 -5 3 -3 4 -1 3 0 3 -6 -1 0 -1 -3 -3 -3 0 -2 1 -2 2 -3 0 -6 0 -7 -2c-1,-1 -2,-2 -4,-3 -1,-1 -2,-1 -3,-1 0,0 -1,1 -1,1 -1,0 -2,0 -2,0 -1,0 -2,0 -3,0 -1,0 -2,-1 -3,0 -1,0 -2,0 -2,1 -1,0 -1,1 -1,2 -1,0 -1,1 -1,1 -1,0 -2,0 -2,0 -3,0 -5,-1 -8,-2 -1,-1 -2,-3 -4,-3 -1,-1 -3,0 -4,0 -1,-1 -2,-1 -3,-1 -1,-1 -2,-1 -3,-1 -1,1 -2,1 -3,2l0 0 0 0c1,2 3,6 4,9 1,2 0,6 2,8 1,2 5,-1 7,1 2,1 2,3 3,5 1,2 0,5 1,7 0,2 3,2 4,4 0,1 -2,3 -2,4 -1,3 0,5 0,7 -1,1 -2,2 -3,3 -1,2 0,4 -1,5 -2,2 -4,1 -6,3 -1,2 0,6 -1,8 -1,1 -4,0 -5,2 -1,1 -1,2 -2,4l0 0c0,0 0,0 0,0 2,2 1,5 3,5 4,1 8,-1 12,0 1,0 3,1 4,2 2,1 3,2 4,4 1,2 4,3 5,5 1,1 1,2 1,3 0,1 -2,2 -2,3 1,3 4,6 4,9 0,3 -2,5 -4,7 -1,1 -3,2 -4,2l0 0c0,1 0,1 0,1 0,2 -1,3 0,4 1,1 3,0 5,1 7,0 14,2 21,2 1,0 3,0 4,-1 3,-1 5,-3 8,-4 8,-2 15,2 21,4 2,0 2,1 3,2 0,0 1,0 2,0 2,0 3,0 4,0l0 0c0,0 0,1 0,1l2 -1 2 -2c0,0 0,-1 1,-2 0,-1 1,-1 1,-2 -1,-2 -2,0 -4,-3 -1,-2 -3,-1 -3,-1 -3,-1 -1,-2 -4,-4 -2,-1 0,-3 3,-6 1,-2 3,-1 5,-1 2,0 0,-4 3,-8 1,-1 6,-3 8,-4 4,-2 7,-3 11,-5 2,0 3,-1 4,-2 3,-1 4,-2 7,-2 1,-1 2,1 4,1 2,0 1,1 2,-1 2,-4 1,-2 2,-4 1,-3 4,-4 7,-3 3,3 6,-2 8,0 1,1 1,1 4,1 2,0 5,-6 7,-5z"/>
 </g>

 <g id="Zadarska županija" class="pol z fil8">
  <path class="z_kopno" d="M533 472l0 0c2,-3 4,-10 6,-9 9,5 18,10 27,13 3,1 7,-1 10,0 3,2 4,6 7,8 4,4 9,8 14,10 3,0 5,-2 6,-4 1,-1 -1,-3 -1,-5 2,-2 4,-2 7,-3 2,0 4,3 6,2 1,0 3,-3 2,-4 -2,-5 -8,-7 -11,-12 0,-1 0,-2 1,-3 3,-3 6,-4 9,-6 3,-2 5,-5 8,-7 2,-1 4,-1 6,-2 1,-2 1,-5 2,-6 2,-2 5,-1 7,-3 4,-3 6,-7 9,-11l1 0c0,2 0,3 1,4 1,2 2,3 4,3 1,0 3,4 4,5 0,1 0,2 1,4 0,0 1,2 1,3 1,1 1,1 1,2 -1,1 -1,2 -1,3 -1,2 0,3 0,5 0,1 1,2 0,3 0,1 -1,2 -1,3 -1,1 0,2 0,3 0,1 0,2 0,3 0,1 6,3 6,3l3 1 3 6 4 11 2 6 0 0 0 0c0,0 0,0 0,0 -2,1 -3,2 -5,3 -4,2 -8,5 -11,8 -1,2 1,5 0,6 -2,2 -5,4 -8,4 -3,0 -6,-2 -9,-4 -1,-2 0,-4 0,-6 -1,-1 -2,-2 -3,-2 -2,1 -4,4 -7,5 -3,2 -6,2 -8,4 -2,3 -4,7 -5,11 0,1 2,2 2,3 -1,5 -4,8 -6,13 0,1 -2,3 -2,5 0,1 2,2 2,3 0,1 -1,2 -2,3 0,0 -1,1 -1,1 0,1 2,2 1,3 -1,2 -3,1 -5,3 -1,1 -1,3 -3,4 -1,1 -3,1 -4,2 -1,2 0,4 0,6 -1,1 -1,3 -3,3 -2,0 -3,-3 -6,-3 -2,0 -6,2 -8,1 -3,-1 -4,-6 -7,-7 -3,0 -5,3 -8,5 0,0 0,0 0,0l0 0c-1,-1 -1,-1 -2,-2 -1,-1 -2,-1 -3,-2 -1,-1 -1,-2 -2,-2 -1,-1 -2,-1 -3,-1 -1,-2 -3,-3 -4,-4 -1,-1 -1,-2 -2,-2 0,-1 0,-2 -1,-3 0,-1 -1,-1 -2,-2 -1,-1 -3,-2 -5,-4 -1,-1 -2,-2 -3,-4 0,-1 0,-2 -1,-3 -2,-1 -3,-3 -5,-4 -1,-1 -2,-2 -2,-3 -1,0 0,-1 0,-2 -1,0 -2,0 -2,0 -1,-1 -1,-1 -1,-1 -2,-2 -3,-4 -4,-6 -1,0 -2,0 -3,-1 -1,0 -2,-1 -3,-2 0,-1 0,-2 0,-3 0,-1 -1,-3 -2,-4 -2,-3 -4,-5 -7,-8 0,-1 -1,-2 -2,-3 0,0 1,-1 1,-1 0,-1 1,-1 1,-2 0,0 0,0 0,-1 0,0 0,-1 0,-2 0,0 0,-1 0,-1 -1,-1 -2,-1 -2,-2 -2,-1 -2,-2 -3,-3 0,-1 0,-1 0,-2 0,0 1,0 1,0 1,-1 0,-1 0,-2 1,0 1,-1 1,-1 1,1 2,1 2,2 1,1 2,2 3,3 1,1 2,1 3,1 1,0 2,-1 2,-2 1,0 0,-1 0,-2 -1,-1 -2,-1 -2,-2 -1,-1 -1,-1 0,-1 0,-1 1,0 1,0 1,0 1,-1 2,-1 0,0 1,0 1,0 1,1 2,2 3,3 1,1 2,2 3,3 1,0 2,1 3,2 1,0 1,0 2,0 0,-1 1,-1 0,-2 0,-1 -1,-2 -1,-2 0,-1 0,-1 0,-2 0,0 1,0 2,-1 0,0 0,-1 0,-2 -1,-1 -3,-2 -4,-3 -1,-1 -1,-1 -1,-2 -1,0 0,-1 0,-1 0,-1 1,-1 1,-1 1,0 2,1 3,1 0,1 1,1 1,2 1,1 3,1 4,2 0,1 0,1 0,2 1,1 1,1 2,1 1,1 2,2 3,3 1,0 2,0 3,0 1,1 1,2 1,2 2,1 3,2 5,2 1,0 2,-2 3,-2 2,0 3,0 4,1 1,0 1,1 2,2 1,1 3,1 4,2 0,0 0,1 0,1 1,1 1,1 2,2 0,1 0,1 0,2 -1,0 -1,0 -2,0 -1,0 -2,1 -2,1 -1,0 -2,0 -3,0 0,1 0,1 0,2 1,0 1,1 2,1 0,0 1,0 2,0 1,1 0,1 1,2 0,0 1,1 2,1 1,0 3,1 4,1 1,0 1,-1 2,-2 1,0 2,1 2,1 2,1 3,2 3,3 1,1 1,1 0,2 0,1 -1,2 -1,3 0,0 1,1 2,1 1,0 2,1 2,1 1,0 1,0 2,-1 0,0 1,-1 1,-1 0,-1 0,-2 -1,-2 0,-1 -2,-1 -2,-2 -1,-1 -1,-2 -2,-3 0,-1 0,-2 -1,-3 0,-1 1,-1 0,-2 0,-1 0,-1 0,-1 -1,-1 -2,0 -2,0 -1,0 -1,-1 -1,-1 -1,0 -1,0 -2,0 -1,0 -1,-1 -2,-1 -1,-1 -2,-1 -2,-1 -1,-1 -1,-2 -1,-2 0,-1 0,-2 1,-3 0,0 1,0 1,-1 0,0 0,-1 -1,-2 0,0 -1,-1 -2,-1 0,-1 -1,-1 -1,0 -1,0 -1,0 -2,0 -1,0 -1,0 -2,0 -1,-1 -2,-2 -3,-3 -1,0 -1,0 -2,0 -1,0 -1,-1 -2,-1 -1,-1 -1,-2 -2,-3 -1,-1 -3,-2 -5,-3 -1,0 -1,-1 -2,-1 -1,0 -2,-1 -3,-1 0,0 -1,0 -2,0 0,-1 -1,-2 -1,-2 -3,-2 -6,-4 -8,-6z"/>
  <path class="Pag" d="M483 437l0 0 -5 2 0 0c1,0 1,1 1,1 0,1 0,1 0,2 0,1 1,1 1,2 -1,1 -1,1 -2,1 0,0 0,0 -1,1 0,0 0,0 0,1 1,0 1,0 2,0 0,1 1,2 2,3 0,0 0,1 1,1 1,0 1,0 1,0 1,-1 0,-1 1,-1 0,-1 0,-1 1,0 0,0 0,0 0,1 0,0 1,1 1,1 1,1 2,2 3,3 1,1 3,2 4,3 1,1 2,2 2,3 1,0 1,1 2,2 0,1 0,2 1,2 0,1 1,1 1,2 1,0 2,0 2,-1 0,0 0,-1 0,-1 0,-1 1,-1 1,-1 0,0 1,1 1,1 0,0 0,0 1,1 0,0 0,0 1,1 0,0 1,0 1,0 1,1 1,1 1,2 1,0 1,1 0,1 0,0 0,0 -1,1 0,0 0,0 0,1 0,0 -1,1 0,1 0,1 1,2 1,2 1,1 1,1 1,2 -1,0 -1,0 -2,1 0,0 0,1 0,1 1,1 2,1 3,2 1,1 2,1 2,1 1,0 1,1 1,1 1,1 2,2 2,2 1,0 1,1 2,0 0,0 0,-1 0,-1 0,0 -1,0 -1,-1 0,0 0,0 -1,-1 0,0 -1,-1 -1,-1 -1,0 -1,0 -1,-1 0,0 -1,0 -1,-1 0,0 0,0 0,0 1,-1 1,-1 2,-1 0,0 1,0 1,1 1,1 3,1 4,2 0,1 1,1 1,1 1,0 1,0 2,0 0,0 0,1 1,1 0,0 0,0 0,0 1,0 1,-1 1,-1 0,0 0,0 0,-1 0,0 0,0 0,-1 0,0 1,1 1,0 0,0 0,0 0,-1 0,0 -1,-1 -1,-1 -1,-1 -2,-1 -2,-2 -1,0 -1,0 -1,-1 -1,-1 -2,-1 -3,-2 0,0 0,-1 0,-1 0,-1 0,-1 1,0 0,0 0,0 0,0 1,1 1,0 2,0 0,1 0,2 1,2 0,1 1,1 2,2 1,1 2,2 4,2 0,1 1,1 1,1 1,0 1,-1 1,-1 0,0 0,-1 -1,-1 0,-1 0,-1 -1,-1 0,-1 0,-1 0,-1 0,-1 0,-1 0,-1 -1,-1 -1,-1 -1,-1 -1,-1 -2,-1 -2,-1 -1,-1 -1,-1 -1,-2 0,0 -1,-1 -1,-1 0,0 -1,0 -1,0 -1,0 -2,-1 -3,-2 0,0 0,-1 0,-2 -1,0 -2,-1 -3,-1 0,0 -1,0 -2,0 0,0 -1,-1 -1,-1 -1,-1 -1,-2 -1,-3 -1,-2 -2,-3 -4,-5 0,0 -1,-1 -2,-2 0,0 -1,0 -2,-1 -1,0 -1,-1 -1,-1 0,0 -1,0 -1,0 0,0 0,0 0,0 0,1 0,1 0,2 0,0 -1,1 -1,1 0,1 1,1 1,1 0,1 1,2 1,2 1,1 2,1 2,2 1,1 0,1 0,1 0,0 0,1 0,0 -1,0 -2,0 -2,-1 -1,-1 -2,-2 -3,-3 -1,-1 -1,-2 -2,-2 0,-1 -1,-2 -1,-3 -1,0 -1,-1 -1,-1 -1,-1 -1,-1 -2,-1 0,0 -1,0 -1,-1 -1,-1 0,-2 -1,-2 -1,-1 -2,-2 -3,-2 0,-1 0,-2 -1,-2 0,-1 -1,-1 -2,-1 0,0 0,-1 0,-1 0,-1 0,-2 -1,-2 0,-1 -1,-1 -1,-1z"/>
  <path d="M510 485c0,0 -1,0 -1,0 -1,0 -2,-1 -2,-1 -1,-1 -2,0 -2,-1 -1,-1 -1,-2 -2,-3 -1,0 -2,0 -2,0 -1,0 -1,0 -1,-1 -1,0 -1,-1 -1,-1 0,0 -1,0 -1,0 -1,0 -1,0 -1,0 0,0 -1,0 -1,0 -1,1 -1,1 -1,2 0,0 0,1 1,2 0,1 0,2 0,3 0,1 1,1 2,2 0,0 1,0 2,0 0,1 1,1 1,1 1,0 2,-1 2,-1 0,-1 0,-1 1,-2 0,0 0,0 1,0 1,0 1,0 1,1 1,0 1,1 1,1 0,0 0,1 0,1 1,0 1,0 1,0 1,0 2,-1 2,-1 1,0 1,-1 1,-1 0,0 -1,-1 -1,-1z"/>
  <path d="M457 460c0,0 0,1 0,1 0,1 1,1 1,2 0,1 1,1 1,2 0,1 -1,2 -1,3 0,0 -1,0 -1,1 -1,0 -1,1 -1,1 0,0 0,0 1,1 0,0 0,0 1,0 0,1 0,1 0,2 1,1 1,2 2,2 1,0 1,0 2,0 1,0 1,0 2,-1 0,0 0,-1 0,-1 0,-1 0,-2 0,-2 -1,-2 -2,-3 -2,-5 0,0 0,-1 1,-1 0,0 1,-1 1,-1 0,0 0,-1 0,-1 -1,-1 -2,-2 -2,-2 -1,-1 -1,-1 -1,-1 -1,-1 -1,-1 -1,-1 -1,0 -1,0 -1,1 -1,0 -2,-1 -2,0z"/>
  <path d="M448 463c0,0 1,1 1,1 0,1 -1,1 -1,2 0,1 0,2 1,3 0,0 1,1 1,1 1,1 2,2 2,2 0,1 0,2 0,2 -1,0 -1,0 -2,0 -1,-1 -2,-2 -2,-3 -1,0 -1,-1 -1,-1 0,-1 0,-2 -1,-2 0,-1 0,-1 -1,-2 -1,0 -1,-1 -2,-1 0,-1 -1,-2 0,-3 0,0 1,-1 1,-1 1,0 1,-1 2,-1 0,0 1,1 1,1 0,0 1,2 1,2z"/>
  <path d="M433 471c0,0 1,1 1,2 1,1 1,1 1,1 1,0 2,0 2,0 0,1 1,1 1,2 1,1 2,2 2,3 1,0 1,1 2,2 0,0 0,1 -1,1 0,0 -1,0 -1,0 -1,-1 -1,-2 -1,-2 -1,-1 -2,0 -3,-1 0,0 0,-1 0,-1 -1,0 -1,0 -2,-1 -1,0 -1,-1 -2,-2 0,0 -1,-1 -1,-2 -1,0 0,-1 0,-1 0,0 0,-1 0,-1 0,0 0,-1 1,-1 0,0 0,0 1,1z"/>
  <path d="M469 470c0,0 0,0 1,1 0,0 0,1 0,1 1,0 1,0 1,0 0,-1 0,-2 0,-2 0,-1 -1,-1 -1,-2 0,0 -1,0 -1,0 -1,0 -1,1 -1,1 0,0 0,1 1,1z"/>
  <path d="M473 455c1,1 3,2 4,3 1,1 2,2 3,3 0,1 1,2 2,2 0,0 1,0 1,0 1,0 1,-1 0,-1 0,-1 -2,-2 -3,-3 -1,0 -2,-1 -2,-3 -1,0 -1,-1 -1,-1 -1,-1 -1,-2 -2,-2 -1,0 -1,0 -2,0 0,0 0,0 0,1 0,0 0,0 0,1z"/>
  <path d="M452 493c0,-1 -1,-1 -1,-1 0,-1 0,-2 0,-2 0,0 0,-1 0,-1 1,0 1,1 2,1 0,-1 0,-1 0,-1 0,-1 0,-1 0,-2 0,0 1,0 1,0 1,0 1,1 1,1 1,1 2,1 3,2 0,0 1,1 1,1 0,1 -1,1 -2,1 0,0 -1,0 -1,0 0,0 -1,-1 -1,0 0,0 0,0 0,0 -1,1 0,1 0,2 -1,0 -1,0 -1,0 -1,0 -1,0 -1,0 -1,0 -1,-1 -1,-1z"/>
  <path d="M445 488c0,0 0,0 0,1 1,0 1,0 1,1 0,0 0,1 0,1 1,-1 1,-1 2,-1 0,0 1,-1 1,-1 0,-1 0,-2 0,-2 -1,-1 -1,-1 -2,-1 -1,0 -1,0 -1,0 -1,0 -1,0 -2,0 0,0 0,0 0,1 0,0 0,0 1,1z"/>
  <path d="M459 496c0,0 0,0 1,1 0,0 0,1 0,2 0,1 1,1 1,2 1,1 1,2 2,3 0,0 0,1 1,1 0,0 1,-1 1,-1 0,-1 -1,-1 -1,-2 0,-1 -1,-1 -1,-2 1,0 1,0 1,0 1,0 2,1 2,1 1,1 2,1 3,1 0,1 0,1 1,2 0,0 1,1 2,1 0,0 0,1 1,1 0,0 1,-1 1,-1 0,-1 -1,-1 -1,-2 0,-1 1,0 1,-1 0,-1 0,-2 -1,-2 0,-1 0,-1 -1,-2 0,0 -1,0 -1,0 0,0 0,2 0,2 -1,0 -1,0 -2,0 0,0 -1,-1 -1,-1 -1,-1 -1,-2 -2,-2 -1,-1 -3,-1 -4,-1 -1,-1 0,-2 -1,-2 0,-1 -1,-1 -1,-1 -1,0 -1,1 -1,1 -1,1 -1,1 0,2z"/>
  <path d="M488 516c0,0 1,-1 1,0 1,0 1,2 1,2 1,1 1,1 2,1 0,1 1,1 2,1 0,0 0,1 1,1 0,0 1,0 1,0 1,-1 1,-2 0,-3 0,-1 -1,-1 -2,-2 0,0 0,-1 -1,-1 0,-1 -1,-1 -2,-1 -1,-1 -2,-2 -2,-2 -1,-1 -2,-2 -3,-2 0,-1 -1,-1 -2,-2 0,0 0,-1 0,-1 0,0 0,-1 -1,-1 0,0 -1,0 -1,1 0,1 0,2 1,3 0,1 1,2 2,3 0,0 1,0 1,1 1,0 0,1 1,1 0,0 0,1 1,1z"/>
  <path d="M475 513c0,0 0,0 1,0 0,0 0,1 1,1 0,1 1,1 1,1 1,0 1,0 2,1 0,0 0,0 1,-1 0,0 -1,-1 -1,-1 0,-1 -1,-2 -2,-3 -1,0 -1,0 -2,-1 -1,0 -1,0 -2,-1 0,0 -1,1 -1,1 0,1 0,1 1,2 0,0 0,1 1,1z"/>
  <path class="Dugi otok" d="M465 512c0,0 0,0 0,1 0,0 0,0 0,1 0,0 0,0 0,0 1,1 1,1 2,1 0,0 0,1 0,1 1,0 1,-1 2,-1 0,0 0,-1 0,-2 0,0 -1,0 -1,-1 0,0 1,0 0,-1 0,0 0,0 0,-1 0,0 0,0 0,-1 1,0 1,0 1,1 1,0 1,1 1,1 0,0 1,0 1,0 0,1 1,1 1,1 0,1 -1,1 0,1 0,1 0,1 1,2 1,0 2,0 2,1 1,0 1,0 1,1 0,0 -1,0 -1,0 0,1 0,1 0,1 1,1 1,1 2,1 0,0 1,0 1,1 0,0 1,0 1,1 0,0 1,0 1,0 0,0 1,-1 1,-1 0,0 1,1 1,1 0,0 0,1 0,2 0,0 0,0 0,1 1,0 2,0 2,1 1,0 1,1 1,1 0,1 1,1 1,1 1,0 1,-1 2,-1 0,1 0,1 0,2 1,0 1,1 2,1 0,1 1,1 2,1 1,1 1,1 1,2 0,0 1,1 1,2 0,0 0,1 0,1 1,2 2,2 2,3 1,1 1,1 1,2 0,0 0,1 1,1 0,1 1,2 1,2 1,1 2,2 2,2 0,1 0,2 1,2 0,0 0,0 1,0 0,0 0,0 0,-1 0,0 0,-1 0,-1 0,0 1,0 1,0 0,1 0,1 0,2 1,0 2,0 2,1 0,0 0,1 0,1 0,0 0,1 0,1 0,1 1,1 2,2 0,1 0,1 0,2 0,0 0,1 0,1 0,0 0,0 1,0 0,0 0,0 1,0 0,0 0,0 1,0 0,1 1,2 1,3 1,0 1,1 2,2 0,0 1,0 1,1 1,0 1,0 1,1 1,0 0,0 0,0 0,1 0,1 0,1 1,0 1,1 2,1 0,0 0,0 0,0 1,0 1,1 1,1 1,1 2,1 2,2 0,0 1,0 0,1 0,0 0,0 0,0 0,1 -1,1 -1,1 0,0 1,1 1,1 -1,1 -2,0 -2,0 0,0 0,0 -1,0 0,-1 -1,-2 -2,-3 0,0 -1,0 -1,0 -1,-1 -1,0 -1,-1 0,0 0,0 -1,0 0,-1 1,-1 0,-1 0,-1 -1,-1 -1,-1 0,0 -1,0 -1,0 0,-1 0,-1 -1,-1 0,-1 -1,0 -1,0 0,0 0,1 0,1 0,1 1,1 1,1 0,1 0,1 1,1 0,1 0,1 0,1 1,0 1,0 2,0 0,1 0,1 0,1 1,0 2,0 2,1 0,0 0,0 0,1 1,0 1,1 2,1 0,0 1,0 1,1 0,0 0,0 0,1 1,0 1,0 2,1 0,0 0,0 0,0 0,1 0,1 0,1 -1,0 -1,0 -1,0 -1,-1 -2,-1 -2,-2 -1,0 -1,-1 -2,-1 -1,-1 -1,-2 -2,-2 0,0 -1,0 -2,-1 0,0 0,0 -1,-1 0,0 -1,-1 -1,-1 -1,-1 -1,-1 -1,-2 -1,-1 -1,-2 -2,-4 -1,-1 -1,-2 -2,-3 0,0 -1,-1 -1,-1 0,-1 0,-2 0,-2 0,-1 -1,-1 -1,-2 -1,-1 -2,-1 -3,-2 0,-1 -1,-2 -1,-3 0,0 0,-1 -1,-1 0,-1 -1,-2 -2,-3 0,-1 -1,-2 -2,-4 -1,-1 -1,-1 -2,-2 -1,-1 -2,-2 -3,-3 0,-1 -1,-2 -2,-3 0,-1 -1,-1 -2,-1 -1,-1 -2,-2 -2,-2 -1,-1 -2,-2 -3,-3 -1,0 -1,-1 -2,-2 0,0 0,-1 -1,-2 0,0 -1,0 -2,0 0,-1 0,-1 -1,-1 0,-1 0,-2 -1,-2 0,0 -1,-1 -1,-1 0,0 -1,0 -1,1 0,0 0,1 0,1 0,0 0,0 0,0 -1,0 -1,0 -1,0 -1,-1 -1,-2 -2,-2 -1,-1 -2,-1 -2,-2 -1,-1 -1,-1 -2,-2 0,-1 0,-1 1,-2 0,0 0,0 1,0z"/>
  <path d="M494 512c0,1 1,1 1,2 1,0 1,1 2,2 0,0 1,0 1,-1 0,0 0,-1 0,-1 -1,-1 -1,-2 -2,-3 0,0 -1,0 -1,0 -1,0 -1,1 -1,1z"/>
  <path d="M456 502c0,0 1,0 2,0 0,0 0,-1 0,-2 -1,0 -1,0 -2,0 0,0 -1,0 -1,1 0,0 1,1 1,1z"/>
  <path d="M499 529c0,1 1,2 2,2 0,1 0,2 0,2 0,1 0,2 0,2 1,1 1,1 1,1 1,0 2,0 2,1 1,0 1,1 2,2 0,1 1,1 1,2 1,0 1,0 1,1 1,0 1,1 1,1 1,0 1,0 2,1 0,0 0,0 1,0 0,0 1,0 1,0 -1,-1 -2,-1 -2,-2 0,0 0,-1 0,-2 -1,0 -2,-1 -2,-2 -1,0 -1,-2 -2,-3 0,0 -1,0 -1,-1 -1,-1 -1,-2 -1,-3 -1,-1 -2,-1 -3,-1 0,0 -1,-1 -1,-2 -1,0 -1,0 -2,0 0,0 0,1 0,1z"/>
  <path class="Ugljan" d="M527 538c0,1 1,1 0,2 0,1 0,1 0,1 -1,0 -1,1 -1,1 0,0 -1,0 -1,0 -1,0 -1,0 -1,-1 0,0 0,-1 0,-1 0,-1 -1,-2 -1,-2 0,-1 -1,-1 -1,-1 -1,0 -1,0 -2,0 0,1 0,1 0,2 -1,0 -1,0 -1,0 -1,-1 -2,-2 -3,-3 0,-1 -1,-1 -2,-2 0,0 0,-1 0,-2 -1,-1 -2,-1 -3,-2 0,-1 0,-1 -1,-2 0,0 -1,-1 -2,-1 0,-1 -1,-1 -1,-2 -1,0 -1,-1 -2,-1 0,-1 -1,-2 -2,-2 -1,-1 -2,-2 -2,-3 0,0 0,-1 0,-2 0,0 -1,-1 -1,-1 0,-1 0,-1 0,-1 0,-1 1,-1 1,-1 0,0 0,0 1,0 0,0 1,1 1,1 1,1 1,1 2,1 0,1 1,1 1,2 1,0 1,1 1,1 1,0 2,0 2,1 1,0 1,0 1,1 1,0 2,1 2,2 0,0 0,0 0,1 0,0 1,0 1,0 0,0 1,0 1,0 0,0 0,0 1,0 0,0 0,0 0,0 1,1 1,1 1,1 0,1 1,1 2,1 0,0 0,1 0,1 0,1 0,1 0,2 1,1 3,2 4,4 0,0 1,1 1,1 1,0 1,0 2,1 0,0 0,0 0,1 0,0 0,1 1,1 0,1 1,1 1,1z"/>
  <path class="Pašman" d="M552 569c-1,0 -1,-1 -2,-2 -1,0 -1,-1 -2,-1 0,0 -1,0 -1,0 -1,0 -1,0 -2,0 -1,-1 -1,-1 -2,-2 0,0 0,-1 -1,-1 0,-1 0,-1 0,-1 0,-1 -1,-1 -2,-2 0,0 0,-1 -1,-1 0,-1 -1,-1 -2,-1 -1,-1 -1,-2 -2,-3 -1,-1 -2,-2 -2,-3 0,-1 -1,-1 -1,-2 0,-1 -1,-1 -2,-2 0,-1 0,-1 0,-2 -1,-1 -2,-1 -2,-2 -1,0 -1,0 -1,-1 0,0 0,0 1,0 0,0 0,0 1,0 0,0 0,-1 0,-1 0,-1 1,-1 1,-1 1,0 1,0 1,1 1,0 1,1 1,1 1,1 2,1 3,2 1,1 2,2 3,4 0,0 1,0 2,1 0,0 1,1 1,2 0,0 0,1 1,1 0,1 1,1 1,1 0,0 1,-1 1,0 1,0 1,0 1,0 1,1 1,1 1,2 0,0 1,1 1,2 0,0 1,2 1,2 1,0 2,0 2,1 0,0 1,1 1,1 1,1 2,2 2,2 1,1 2,1 2,2 1,0 1,1 1,2 0,0 0,1 0,1 -1,0 -1,0 -2,0 0,0 0,0 -1,0 0,0 -1,0 -1,0z"/>
  <path d="M518 558c1,1 1,1 1,1 0,1 0,1 0,2 1,0 1,1 1,1 1,0 1,1 2,1 0,0 0,-1 0,-2 0,0 -1,-1 -1,-1 0,-1 0,-2 -1,-2 0,-1 -1,-1 -1,-1 -1,0 -1,1 -1,1z"/>
  <path d="M551 572c1,0 1,1 2,1 0,0 0,-1 0,-1 0,-1 0,-1 -1,-1 0,0 0,0 -1,0 0,0 0,1 0,1z"/>
  <path d="M554 576c1,0 1,0 1,0 1,1 1,1 1,1 0,0 1,0 1,0 0,-1 0,-1 -1,-1 0,-1 0,-1 -1,-1 0,0 -1,0 -1,0 0,0 0,0 0,1z"/>
  <path d="M563 578c1,0 1,0 1,1 0,0 0,0 0,1 1,0 1,0 2,-1 0,0 0,-1 -1,-2 0,0 0,-1 0,-1 0,-1 -1,0 -1,0 0,0 -1,0 -1,0 0,0 -1,0 -1,0 0,1 0,1 0,1 0,0 1,1 1,1z"/>
  <path d="M500 540c0,1 0,0 1,0 0,1 0,1 0,1 1,0 1,0 1,0 0,-1 0,-1 0,-1 0,-1 -1,-1 -2,-1 0,0 0,-1 0,-2 0,0 -1,0 -1,0 0,0 -1,0 -1,1 0,0 1,1 1,1 0,1 0,1 1,1z"/>
  <path d="M552 559c0,0 0,0 0,0 0,1 0,1 0,1 1,1 1,0 1,0 0,0 0,-1 0,-1 0,0 0,0 -1,0z"/>
  <path d="M510 552c0,0 0,0 0,1 0,0 0,0 0,0 1,0 1,0 1,-1 -1,0 -1,0 -1,0z"/>
  <path d="M567 582c-1,0 -1,0 -1,0 0,0 1,0 1,0 0,0 0,0 0,0 0,0 0,0 0,0z"/>
 </g>

 <g id="Brodsko-posavska županija" class="pol bp fil9">
  <path class="bp_kopno" d="M1017 301l0 0c-1,0 -2,0 -4,0 -1,0 -2,0 -2,0 -1,-1 -1,-2 -3,-2 -6,-2 -13,-6 -21,-4 -3,1 -5,3 -8,4 -1,1 -3,1 -4,1 -7,0 -14,-2 -21,-2 -2,-1 -4,0 -5,-1 -1,-1 0,-2 0,-4 0,0 0,0 0,-1l0 0 0 0c-1,0 -1,-1 -2,-1 -2,-2 -3,-2 -5,-2 -5,-1 -10,0 -14,0 -2,0 -4,0 -5,2 -3,4 -4,4 -7,8 -2,2 -5,2 -8,3 -2,1 -3,1 -5,1 -1,0 -4,-1 -4,-2 -1,-2 0,0 0,-2 -1,-4 -3,-8 -6,-10 -1,-1 -4,0 -7,0 -2,0 -5,1 -7,0 -5,-2 -9,-5 -13,-9 -2,-2 0,-5 -2,-7 -1,-1 -4,1 -5,0 -2,-1 -1,-4 -2,-4 -3,-2 -6,-1 -8,-1 -3,1 -5,4 -8,5 -1,0 -3,1 -4,1 -2,-1 -3,-4 -5,-5 -2,-1 -4,-1 -6,1 -2,1 -3,4 -5,7 -1,2 -1,4 -1,6l0 0 0 0c0,0 0,0 0,1 2,0 3,3 2,4 -4,4 -10,6 -13,10 -1,2 -1,4 0,5 1,2 3,2 4,4 0,1 -1,2 -1,4 1,0 2,0 3,1 2,0 4,1 5,1 2,0 3,0 5,0 1,-1 2,-1 2,-2 1,-1 2,-2 2,-3 0,0 0,-1 1,-2 1,0 2,-1 2,-1 1,0 2,1 2,1 1,1 1,2 2,2 0,0 1,1 1,1 1,0 2,0 3,0 0,1 1,2 1,2 1,1 2,2 3,3 1,1 3,1 4,1 1,0 3,0 4,0 1,-1 1,-1 2,-2 0,-1 0,-2 1,-3 0,-1 1,0 2,0 0,0 1,0 1,1 0,0 0,1 0,2 0,1 0,2 1,2 0,1 1,1 1,0 1,0 1,0 2,-1 0,0 1,0 1,0 1,0 2,0 2,1 0,0 0,1 -1,2 0,1 0,1 0,2 0,0 1,0 2,0 0,0 1,0 1,0 2,0 3,-1 5,-1 1,-1 3,0 4,0 1,0 2,1 3,0 1,0 3,-1 5,-1 1,-1 3,-2 4,-2 2,0 3,0 4,1 1,0 1,1 2,1 1,1 2,1 2,2 1,0 1,1 2,2 1,1 2,2 4,3 1,0 3,1 5,2 1,0 2,1 3,2 1,1 2,2 3,3 1,0 2,0 3,0 2,-1 3,-1 4,-2 1,-1 3,-2 4,-4 1,-1 2,-1 3,-3 0,-1 0,-2 0,-3 0,-1 1,-1 1,-2 1,0 2,-1 3,-1 0,-1 1,-1 1,-2 1,0 1,-1 1,-2 1,0 2,-1 3,-1 1,0 2,-1 3,0 1,0 1,2 2,2 0,1 1,1 2,1 0,0 1,0 2,0 1,0 1,-1 2,-1 1,1 2,1 2,2 1,1 0,2 1,3 0,2 1,4 2,5 2,1 4,0 5,0 2,1 4,1 5,1 2,0 3,0 4,-1 1,0 2,-1 2,-2 1,0 1,-1 1,-2 0,-1 -1,-2 0,-3 0,-1 1,-2 1,-2 2,0 3,0 5,0 1,0 3,0 5,1 1,0 1,2 2,3 2,1 4,1 5,1 2,0 3,0 5,0 1,0 2,1 3,1 2,0 4,0 5,0 1,0 2,1 3,2 1,1 2,2 3,4 1,0 2,1 3,1 1,1 3,2 5,3 0,0 1,0 2,1 0,0 0,1 1,2 1,0 2,0 2,-1 1,0 1,-2 1,-3 0,-1 0,-2 0,-3 0,0 -1,-1 -1,-1l0 0c0,-1 -2,-2 -2,-3 -1,-1 -1,-2 0,-4 0,-2 2,-4 3,-6 1,-2 -1,-1 0,-4 1,-2 -1,-5 -3,-7z"/>
 </g>

 <g id="Požeško-slavonska županija" class="pol ps fil10">
  <path class="ps_kopno" d="M779 254l0 0c0,0 0,0 0,0 1,0 2,-1 4,-1 4,1 8,2 11,4 2,2 -1,7 1,8 2,1 3,-4 6,-5 1,0 3,1 3,2 1,3 -2,6 0,9 2,2 7,1 9,4 1,2 -1,5 0,7 2,1 5,1 7,1l0 0c0,-2 0,-4 1,-6 2,-3 3,-6 5,-7 2,-2 4,-2 6,-1 2,1 3,4 5,5 1,0 3,-1 4,-1 3,-1 5,-4 8,-5 2,0 5,-1 8,1 1,0 0,3 2,4 1,1 4,-1 5,0 2,2 0,5 2,7 4,4 8,7 13,9 2,1 5,0 7,0 3,0 6,-1 7,0 3,2 5,6 6,10 0,2 -1,0 0,2 0,1 3,2 4,2 2,0 3,0 5,-1 3,-1 6,-1 8,-3 3,-4 4,-4 7,-8 1,-2 3,-2 5,-2 4,0 9,-1 14,0 2,0 3,0 5,2 1,0 1,1 2,1l0 0c1,0 3,-1 4,-2 2,-2 4,-4 4,-7 0,-3 -3,-6 -4,-9 0,-1 2,-2 2,-3 0,-1 0,-2 -1,-3 -1,-2 -4,-3 -5,-5 -1,-2 -2,-3 -4,-4 -1,-1 -3,-2 -4,-2 -4,-1 -8,1 -12,0 -2,0 -1,-3 -3,-5 -2,-2 -4,-4 -6,-5 -2,0 -3,2 -4,3 -2,0 -5,1 -7,0 -1,-2 2,-5 1,-6 -2,-2 -5,-1 -8,-1 -1,0 -2,2 -3,2 -1,1 -2,1 -3,0 -1,-1 -1,-4 -3,-4 -4,-2 -8,0 -12,-2 -3,-1 -3,-5 -5,-6 -2,-2 -5,-4 -7,-3 -2,0 -1,3 -1,4 -1,1 -2,2 -4,2 0,0 0,0 0,0l0 0c-1,1 -3,1 -4,1 -1,1 -2,2 -3,3 -1,1 -2,3 -3,3 -2,1 -4,1 -6,0 -1,-1 -1,-4 -3,-4 -2,0 -5,1 -8,2 -4,1 -7,2 -11,2 -2,0 -3,-2 -5,-3 -1,0 -3,-1 -4,0 -1,0 -1,3 -2,3 -2,1 -5,0 -6,0 -2,1 -3,3 -4,4 -2,0 -3,-2 -4,-2 -2,0 -4,1 -5,0 -2,-1 -3,-4 -4,-5 -1,-1 -3,0 -4,0 -2,-1 -2,-3 -3,-3 -2,0 -3,1 -4,2 -1,2 1,4 0,6 0,3 -1,6 -2,8l0 1z"/>
 </g>

 <g id="Virovitičko-podravska županija" class="pol vp fil11">
  <path class="vp_kopno" d="M925 182l0 0c1,2 3,6 4,9 1,2 0,6 2,8 1,2 5,-1 7,1 2,1 2,3 3,5 1,2 0,5 1,7 0,2 3,2 4,4 0,1 -2,3 -2,4 -1,3 0,5 0,7 -1,1 -2,2 -3,3 -1,2 0,4 -1,5 -2,2 -4,1 -6,3 -1,2 0,6 -1,8 -1,1 -4,0 -5,2 -1,1 -1,2 -2,4l0 0c-2,-2 -4,-4 -6,-5 -2,0 -3,2 -4,3 -2,0 -5,1 -7,0 -1,-2 2,-5 1,-6 -2,-2 -5,-1 -8,-1 -1,0 -2,2 -3,2 -1,1 -2,1 -3,0 -1,-1 -1,-4 -3,-4 -4,-2 -8,0 -12,-2 -3,-1 -3,-5 -5,-6 -2,-2 -5,-4 -7,-3 -2,0 -1,3 -1,4 -1,1 -2,2 -4,2 0,0 0,0 0,0l0 0 0 0c-2,-1 -4,0 -6,-2 -1,-2 -1,-6 -1,-8 1,-2 2,-3 3,-4 0,-1 -1,-1 -1,-1 2,-3 6,-4 7,-6 1,-2 -1,-4 -1,-6 0,-1 2,-3 1,-4 -1,-1 -3,0 -4,-1 -1,-1 -1,-3 -1,-4 -1,-1 -2,-1 -3,-1 -2,2 -3,5 -5,6 -2,1 -5,-1 -6,-2 -1,-2 2,-4 2,-5 -1,-2 -1,-2 -3,-3 -1,0 -2,2 -4,2 -1,0 -1,-2 -2,-3 0,-1 1,-2 0,-3 0,-2 -2,-1 -3,-2 -1,-2 -1,-4 -2,-5 -3,-3 -8,-4 -11,-7 -2,-2 -2,-5 -4,-6 -2,-1 -5,2 -7,1 -1,-1 0,-3 -1,-4l0 0c2,-2 3,-3 5,-5 2,-2 5,-4 7,-7 1,-1 1,-3 2,-4 0,0 1,-1 2,0 1,0 2,2 4,2 1,0 2,-1 3,-2 1,-2 2,-4 2,-7l0 0 0 0c0,0 1,0 1,0 0,-1 0,-2 0,-2 1,0 1,0 2,0 0,1 0,2 0,2 0,1 -1,2 -1,3 0,0 1,1 1,1 0,0 1,1 1,1 1,0 1,0 2,-1 0,0 0,0 1,-1 0,0 1,0 2,0 0,1 0,2 1,2 0,1 1,0 1,0 1,0 3,0 4,0 1,0 2,-1 2,-1 1,0 2,0 2,0 2,1 3,1 4,1 2,0 3,1 5,1 1,0 3,-1 4,-1 1,0 3,1 4,2 3,1 5,2 7,4 1,0 2,1 2,2 0,1 0,2 0,3 1,1 1,2 1,2 1,1 2,2 2,3 1,1 0,3 1,4 0,1 1,2 2,2 3,1 5,0 7,1 1,0 2,0 3,1 1,0 2,1 4,2 1,0 2,0 3,1 1,0 2,0 3,1 1,0 2,1 3,3 1,0 0,2 1,3 0,0 0,0 1,1 1,0 1,0 2,-1 1,0 1,-1 1,-2 1,0 1,0 2,0 1,-1 1,-1 2,-1 1,-1 2,0 3,0 0,0 1,1 2,1z"/>
 </g>

 <g id="Ličko-senjska županija" class="pol ls fil12">
  <path d="M483 437l0 0 -5 2c0,0 0,-1 0,-1 0,-1 0,-1 -1,-2 0,0 -1,0 -1,-1 -1,0 -2,-1 -2,-2 0,-1 -1,-1 0,-2 0,0 0,0 0,0 1,-1 0,-1 0,-1 0,-1 -1,-1 -1,-1 -1,-1 -2,-1 -2,-2 -1,-1 -1,-2 -2,-3 -1,-1 -2,-1 -2,-2 -1,0 -1,-1 -1,-1 -1,-1 -2,-2 -2,-2 -1,-1 -1,-1 -1,-2 0,0 0,-1 0,-1 0,-1 -1,-1 -1,-2 -1,0 -2,-1 -2,-2 -1,-1 -1,-1 -1,-2 -1,-1 -2,-2 -2,-3 -1,0 -1,-1 -1,-1 0,-1 -1,-1 0,-2 0,0 0,0 1,0 0,0 0,1 1,1 0,1 1,1 1,1 0,0 1,1 1,1 1,1 1,3 2,4 0,1 1,1 2,2 0,1 0,1 1,2 0,1 1,1 2,2 0,0 1,1 1,2 0,0 0,1 0,1 1,1 2,1 2,2 1,0 1,1 2,1 0,1 0,2 1,2 0,1 0,1 1,1 0,0 1,0 1,0 0,-1 -1,-1 -1,-2 0,-1 0,-1 0,-1 -1,-1 -1,-2 -1,-3 0,0 0,0 0,-1 1,0 1,0 1,0 1,0 2,1 2,1 1,0 1,-1 1,-1 1,0 1,0 1,0 1,0 1,1 1,1 0,1 0,1 0,1 1,1 1,1 1,1 1,0 1,1 2,1 1,1 1,2 2,3 1,1 2,2 2,3 1,1 1,2 1,2 1,1 2,1 2,2 1,0 1,1 2,2 0,0 1,1 1,1 1,1 2,1 3,2 2,1 3,2 5,3 0,0 0,1 1,1 0,1 0,2 0,3 0,0 1,1 1,2 0,0 1,1 1,1 0,1 -1,1 -1,1 -1,0 -1,0 -1,-1 -1,0 -1,-1 -2,-1 0,-1 -1,0 -1,-1 -1,0 -1,0 -1,0 -1,-1 -1,-2 -2,-3 0,0 -1,-1 -2,-1 -1,0 -2,0 -2,0 -1,-1 -1,-1 -1,-2 -1,0 -1,0 -2,-1 0,0 0,0 0,0 -1,-1 0,-1 -1,-2 0,0 -1,0 -2,-1 -1,0 -1,-1 -1,-1 -1,-1 -1,-1 -1,-1 -1,-1 -1,-1 -1,0 -1,0 -1,0 -1,0 0,1 0,2 1,2 0,0 0,1 1,1z"/>
  <path d="M469 449c0,0 0,0 1,1 0,0 0,1 1,1 0,0 1,0 1,-1 0,-1 -1,-1 -1,-2 -1,0 -1,-1 -2,-1 0,0 -1,0 -1,0 0,0 0,1 0,1 0,0 0,1 1,1z"/>
  <path class="ls_kopno" d="M500 318l0 0 0 0c2,0 4,0 6,0 3,2 4,5 6,6 2,1 4,1 5,0 2,-1 4,-3 6,-4 1,-1 2,0 3,1 2,1 2,3 3,5 3,2 7,2 9,5 2,1 1,3 2,5 1,1 2,2 4,2 1,0 3,-2 4,-1 4,4 7,9 10,13 1,3 1,6 3,8 2,1 5,0 7,1 1,1 1,2 2,3 1,1 2,2 3,2 1,0 1,-1 1,-2 1,-2 0,-4 1,-5 1,-1 2,-3 4,-3 2,0 2,3 4,3 1,0 2,0 3,-1 1,0 1,0 1,0 1,0 1,-1 2,-1 0,-1 1,-1 2,-1 1,0 1,0 2,0 1,1 2,2 2,2 1,1 1,1 1,1 2,2 3,1 3,1 0,0 1,-1 2,-1 1,0 1,1 3,-2l0 3 3 7 2 4 0 5 -3 2 -2 2 0 2 4 4 2 4 3 3 1 3 4 6 3 3 4 0 5 -2c1,1 2,0 3,1 1,0 1,1 1,1 1,2 1,4 2,6 2,1 4,2 5,3 1,1 3,2 3,3 2,1 2,3 3,4 1,2 3,4 4,5 0,2 -4,4 -3,5 0,1 0,1 0,1 0,0 1,0 1,0 -4,4 -6,8 -10,11 -2,2 -5,1 -7,3 -1,1 -1,4 -2,6 -2,1 -4,1 -6,2 -3,2 -5,5 -8,7 -3,2 -6,3 -9,6 -1,1 -1,2 -1,3 3,5 9,7 11,12 1,1 -1,4 -2,4 -2,1 -4,-2 -6,-2 -3,1 -5,1 -7,3 0,2 2,4 1,5 -1,2 -3,4 -6,4 -5,-2 -10,-6 -14,-10 -3,-2 -4,-6 -7,-8 -3,-1 -7,1 -10,0 -9,-3 -18,-8 -27,-13 -2,-1 -4,6 -6,9l0 0c-1,0 -2,-1 -2,-1 -3,-3 -5,-6 -8,-9 0,-1 0,-2 -1,-3 -1,0 -2,1 -2,0 -1,0 -2,-2 -2,-2 -1,-1 -1,-1 -2,-2 0,-1 0,-2 -1,-2 -1,-1 -2,-1 -3,-2 -1,-2 -3,-3 -4,-5 0,0 0,-2 0,-3 -1,-1 -1,-1 -2,-2 -1,-2 -3,-3 -5,-4 -1,-1 -2,-2 -3,-3 -2,-1 -4,-2 -6,-4 -1,-2 -3,-5 -4,-7 -1,-1 -1,-2 -2,-3 0,-1 1,-2 0,-3 0,0 -1,0 -1,-1 -1,0 -2,-1 -3,-2 0,-1 -1,-2 -1,-4 0,-1 -1,-1 -1,-2 -1,-2 -2,-4 -3,-6 0,-2 -1,-3 -1,-5 0,-2 1,-3 0,-4 0,-1 0,-2 0,-3 -1,-1 0,-2 -1,-4 0,-1 0,-2 0,-3 -1,-1 -1,-2 -1,-3 1,-1 1,-3 1,-5 0,-1 0,-2 0,-3 1,0 1,0 2,-1 0,-1 0,-2 0,-2 0,-2 1,-4 1,-6 1,-4 2,-7 3,-11 0,0 0,-1 0,-2 0,-1 -1,-2 -2,-3 0,-1 -1,-2 -1,-3 0,-1 0,-2 0,-3 0,-2 -1,-4 -1,-6 -1,-2 -1,-3 -2,-4l0 0c2,-1 3,-2 5,-3 1,0 3,-1 4,-2 1,0 1,2 2,2 1,0 2,0 3,0 2,0 4,1 5,1 1,0 1,-2 2,-3 1,-2 3,-3 4,-5 0,-1 0,-2 0,-3z"/>
 </g>

 <g id="Primorsko-goranska županija" class="pol pg fil13">
  <path id="pg_kopno" d="M371 240l1 0 4 1c0,0 0,0 1,0l3 -1 2 2c0,0 1,0 1,0l2 0c1,0 2,0 2,-1l0 -2 1 -2 3 0 3 2c0,0 0,1 1,1l3 -1 4 3c1,0 1,0 2,0l2 -1 2 0c1,0 1,0 1,0l5 -3c0,0 0,0 0,0l1 -3 5 -1c0,0 0,0 0,0 3,-2 5,-4 8,-7 0,0 0,-1 0,-1l0 -2 1 -4c0,0 0,0 0,0l-1 -3 1 -2 0 0 4 -1c0,0 0,0 1,-1l2 -5 0 0 1 -3c0,0 0,0 0,-1l0 -1 1 0 1 0 1 1c1,0 1,0 1,0l2 0 1 1 0 1 -1 6c0,1 0,1 0,1l2 1 2 2 1 2c1,1 1,1 1,1l3 1 1 2 2 1 0 2 0 3 0 0 0 4c0,0 0,0 0,0l0 1c0,0 0,1 1,1l1 0c1,0 1,0 1,0l1 -1 1 0 1 0c1,1 1,2 2,3 0,0 1,0 2,1 1,0 1,1 2,1 0,1 1,1 1,1 1,0 2,0 2,0 1,1 2,1 2,2 0,1 -1,3 0,4 0,1 0,2 1,2 0,1 1,1 1,1 1,0 2,0 2,0 1,-1 2,-2 3,-3 1,0 1,0 2,0 1,0 2,0 2,0 1,-1 1,-2 1,-2 0,-1 0,-2 1,-3 1,-2 2,-3 3,-4 0,0 1,0 2,0 0,0 1,1 1,1 0,0 1,0 1,1 1,0 1,0 2,0 0,0 0,1 1,2 1,0 2,0 3,1 1,0 1,1 2,1 1,0 3,-1 4,-1 1,0 2,1 3,1 1,0 2,-1 3,0 1,0 1,1 1,1 0,1 0,2 0,3 1,1 2,2 2,2 1,0 2,0 3,1 0,0 1,1 2,2 0,0 1,0 2,0 1,1 1,3 2,3 0,1 1,1 2,1 1,0 2,-1 3,-1 1,0 1,0 2,0 0,1 1,1 2,1 0,0 0,0 0,0 -2,4 -4,7 -6,10 -1,2 -1,5 -2,7 0,2 1,3 1,4 -1,1 -2,2 -3,2 -1,1 -3,1 -4,2 -2,1 -3,3 -4,4 -1,1 -2,1 -3,0 -1,-1 -1,-3 -2,-3 -2,-1 -5,1 -7,0 -1,0 0,-3 -1,-4 -1,-1 -4,0 -5,0 -1,1 -1,3 -2,4 0,2 -1,3 -1,4 0,2 2,3 3,4 0,2 -1,3 -1,5 0,2 1,5 0,7 -1,2 -4,3 -3,5 1,4 6,6 8,10 1,1 1,3 1,5 -1,2 -3,3 -4,5 -1,1 -1,3 -2,3 -1,0 -3,-1 -5,-1 -1,0 -2,0 -3,0 -1,0 -1,-2 -2,-2 -1,1 -3,2 -4,2 -2,1 -3,2 -5,3l0 0c-1,-2 -2,-4 -2,-6 -1,-1 -1,-2 -1,-3 0,-1 1,-2 1,-2 0,-1 -1,-1 -1,-1 -1,0 -2,0 -2,0 -1,-1 -1,-1 -2,-2 0,0 -1,-1 -2,-2 -1,0 -3,-1 -4,-1 -1,-1 -2,-1 -3,-2 -1,-1 -2,-3 -4,-5 -1,-1 -2,-3 -3,-4 -1,-1 -3,-3 -5,-4 -1,-2 -3,-3 -4,-5 0,0 -4,-5 -5,-5 0,-1 -2,-3 -3,-4 0,0 0,-1 0,-1 0,-1 1,-1 2,-1 0,-1 0,-1 0,-2 -1,-1 -1,-1 -3,-2 -1,-1 -2,0 -2,1 0,0 2,2 1,2 0,2 -3,0 -4,-1 -2,-1 -3,-3 -5,-5 -1,-1 -2,-1 -3,-2 -2,-1 -5,-2 -8,-3 -1,0 -2,0 -4,-1 -1,0 -2,-1 -3,-1 -1,-1 -2,-2 -3,-2 -1,-1 -2,0 -3,0 0,0 -1,0 -1,0 0,1 0,1 -1,1 0,1 -1,2 -1,3 -1,1 -1,2 -1,2 -1,2 -2,2 -3,4 -1,2 -1,4 -2,6 0,2 -1,3 -2,5 0,1 0,2 0,3 -1,2 -2,2 -2,4 -1,1 0,3 0,5 -1,4 -3,7 -4,10 0,1 0,1 0,1 0,0 0,0 0,0l0 0c-1,0 0,0 -1,0 -1,-2 -2,-3 -3,-4 -1,-2 -1,-4 -1,-6 -1,-5 -1,-9 -1,-14 1,-3 3,-6 3,-9 1,-5 1,-9 0,-14 0,-3 -1,-10 -3,-13 -1,-3 -6,-2 -6,-5 0,-3 0,-3 0,-6z"/>
  <path class="Cres" d="M404 305c1,0 1,1 1,2 1,0 1,1 1,2 0,0 -1,1 -2,1 0,1 1,1 0,2 0,0 0,1 0,2 0,1 -1,1 0,2 0,1 0,2 1,3 0,1 0,1 0,2 0,1 1,3 1,4 0,1 0,2 0,3 1,1 1,2 2,3 0,1 1,2 1,3 0,1 1,1 1,2 0,1 -1,1 0,2 0,1 0,2 1,2 0,1 0,1 1,2 0,0 1,1 1,1 0,0 0,1 0,1 0,0 1,1 1,1 1,0 1,0 2,0 0,0 0,-1 0,-1 1,0 1,0 2,0 0,0 1,1 1,2 1,0 0,1 1,1 0,0 0,0 1,1 0,0 0,1 0,1 -1,0 -1,0 -2,1 0,0 -1,0 -1,0 -1,0 0,1 0,1 0,1 0,1 0,2 0,1 0,1 0,2 -1,0 -1,1 -2,2 0,1 1,2 1,3 0,0 -1,0 -1,1 -1,1 -1,1 -1,2 0,1 0,2 0,3 0,2 1,3 1,5 0,0 0,1 1,2 0,1 0,1 0,2 1,1 0,2 0,3 0,1 0,1 1,2 0,0 0,1 0,2 0,0 -1,0 -1,0 0,0 -1,1 -1,1 0,0 0,0 0,1 0,0 1,1 1,1 0,1 1,1 1,2 0,0 0,1 0,1 0,1 0,1 1,1 0,1 0,2 0,3 0,0 0,1 -1,1 0,0 0,0 -1,0 0,0 0,0 0,1 0,0 0,0 -1,1 0,0 0,0 0,1 0,0 0,1 0,1 0,0 1,0 1,1 0,0 0,1 0,1 0,1 1,1 1,2 0,0 0,1 0,1 0,1 0,2 1,2 0,1 0,1 0,2 1,0 2,1 3,1 0,0 0,1 1,1 0,1 0,2 0,2 0,1 0,1 0,2 0,0 0,1 0,1 1,0 1,0 1,1 0,0 1,0 1,-1 1,0 0,0 0,0 0,-1 0,-1 0,-1 0,-1 1,0 1,0 0,0 1,1 1,1 0,1 0,1 0,2 0,0 0,1 -1,1 0,1 -1,0 -2,0 0,1 0,1 0,1 0,1 0,1 0,2 -1,0 -1,0 -2,0 0,-1 0,-1 0,-2 0,0 -1,0 -1,0 0,0 0,0 0,0 0,1 0,1 0,2 0,0 0,1 -1,1 0,0 -1,0 -1,0 -1,-1 -1,-2 -1,-3 -1,0 -1,0 -2,0 0,0 -1,-1 -1,-1 -1,-2 -1,-3 -2,-5 0,0 0,-1 -1,-2 0,0 1,-1 0,-1 0,0 0,0 -1,0 0,0 0,1 -1,1 0,0 0,-1 0,-1 0,-1 0,-1 0,-2 0,0 -1,-1 -1,-2 -1,0 -1,-1 -1,-2 -1,0 -1,0 -2,-1 0,0 0,0 0,-1 0,0 0,0 0,-1 0,0 1,-1 0,-2 0,0 0,-1 0,-2 0,0 0,0 0,-1 0,0 1,0 1,-1 0,0 0,-1 -1,-1 0,-1 0,-1 0,-2 0,0 -1,0 -1,1 0,0 0,0 0,0 -1,0 0,1 -1,1 0,0 0,0 0,0 -1,0 -1,-1 -1,-1 0,-1 0,-2 0,-3 0,-1 -1,-2 -1,-3 0,-1 0,-2 0,-3 0,-1 0,-2 0,-3 0,0 0,-1 -1,-1 0,0 0,0 -1,0 0,0 0,0 0,0 0,1 -1,1 -1,1 0,0 0,-1 0,-1 -1,-1 0,-2 0,-3 -1,0 -1,0 -1,-1 0,-1 0,-3 0,-4 0,-1 -1,-2 -1,-2 -1,-1 0,-2 0,-3 0,-1 -1,-2 -1,-2 0,-1 0,-2 -1,-3 0,0 1,-1 0,-1 0,-1 -1,-1 -1,-1 -1,-1 0,-1 0,-2 0,0 0,0 0,-1 0,-1 0,-1 0,-2 0,0 0,-1 0,-1 0,-1 0,-1 0,-1 1,-1 0,-1 0,-1 0,-1 1,-1 1,-1 0,0 1,0 1,0 0,1 1,2 1,2 0,1 1,1 1,2 1,0 1,1 2,1 0,1 1,1 1,1 0,1 0,1 0,2 1,0 1,1 1,1 0,1 1,1 1,1 0,0 1,0 1,0 1,0 2,0 2,-1 1,0 1,-1 1,-1 0,-1 0,-2 0,-3 0,-1 0,-2 0,-3 0,0 -1,-1 0,-1 0,0 0,-1 0,-1 0,0 1,1 1,1 0,0 0,1 0,1 0,0 1,0 1,0 1,0 1,0 1,0 0,-1 0,-2 -1,-3 0,0 1,0 0,-1 0,0 0,0 -1,0 0,0 0,1 -1,1 0,0 0,-1 -1,-1 0,0 0,-1 0,-2 0,0 0,-1 0,-1 -1,-1 -1,-1 -2,-2 0,0 1,-1 0,-2 0,0 -1,0 -1,0 -1,-1 -1,-2 -1,-2 -1,-1 0,-2 0,-3 0,-1 0,-2 0,-3 0,-1 0,-2 -1,-3 0,-1 -1,-2 -2,-3 0,0 0,0 -1,0 0,-1 -1,0 -1,0 0,-1 -1,-1 -1,-1 0,-1 -1,-1 -1,-2 0,-1 0,-2 0,-3 0,0 0,-1 -1,-1 0,0 0,0 -1,0 0,-1 -1,-1 -1,-1 0,-1 -1,-2 -1,-3 0,-1 0,-2 0,-2 1,-1 1,-1 2,-1 1,-1 1,-2 2,-3 0,-1 0,-2 0,-3 0,0 1,-1 1,-2 0,0 0,-1 1,-1 0,0 1,0 1,0 1,0 1,0 2,0 1,0 1,1 1,1 1,0 1,0 2,1 0,0 1,0 1,0z"/>
  <path d="M425 347c-1,0 -2,0 -2,-1 -1,0 -1,0 -1,0 0,-1 0,-1 0,-2 0,0 1,0 1,0 1,0 2,0 2,0 0,0 1,0 1,0 1,0 1,0 2,0 0,0 0,1 0,2 1,0 1,1 2,1 0,1 0,1 1,1 0,1 0,1 0,2 0,0 -1,0 -2,0 -1,0 -2,0 -3,-1 0,0 0,-1 -1,-1 0,-1 0,-1 0,-1z"/>
  <path d="M433 351c0,1 1,1 1,2 0,0 1,0 1,0 1,0 0,0 0,-1 0,0 0,0 -1,-1 0,0 0,0 0,-1 0,0 -1,0 -1,1 0,0 0,0 0,0z"/>
  <path d="M395 382c-1,0 -1,0 -2,0 0,1 0,2 0,2 0,1 0,1 0,2 0,0 0,1 0,1 0,1 1,1 1,1 1,-1 1,-1 1,-2 0,0 0,-1 0,-1 0,-1 1,-1 1,-2 0,0 0,-1 0,-1 -1,0 -1,0 -1,0z"/>
  <path d="M389 403c0,0 0,1 0,1 0,1 0,1 0,1 0,1 0,1 0,1 0,1 1,1 1,1 0,1 0,1 0,1 0,1 -1,1 -1,1 -1,0 -1,0 -1,-1 0,0 0,0 -1,0 0,0 -1,0 -1,0 0,1 0,1 0,1 0,1 1,2 1,2 0,1 0,1 0,1 -1,1 -1,1 -2,1 0,0 0,1 0,1 1,0 1,0 2,1 0,0 0,1 0,1 0,1 1,2 1,2 0,1 1,1 1,1 0,1 0,1 -1,1 0,1 0,0 -1,0 0,0 -1,-1 -1,-2 -1,0 -1,0 -1,-1 0,0 -1,1 -1,1 -1,-1 -1,-1 -2,-1 0,0 0,-1 0,-1 0,-1 0,-2 1,-2 0,-1 0,-1 0,-2 0,-1 0,-2 0,-2 0,-1 1,-1 1,-2 0,0 0,0 1,-1 0,0 0,-1 0,-1 0,0 1,0 2,-1 0,0 0,-1 1,-2 0,0 0,0 0,0 0,-1 0,-1 1,-1 0,0 0,0 0,1z"/>
  <path class="Veli Lošinj" d="M406 404c0,0 0,0 0,1 0,0 0,1 0,1 0,1 0,2 1,3 0,1 0,1 0,2 0,1 -1,1 -1,2 0,1 1,1 1,2 0,1 0,1 0,2 1,2 1,3 2,5 1,2 2,4 3,6 1,1 1,1 2,2 0,0 0,0 0,1 0,0 0,0 -1,0 0,0 0,0 0,-1 -1,0 -1,0 -2,-1 0,0 0,-1 -1,-1 0,0 -1,1 -2,1 0,-1 0,-1 -1,-1 -1,0 -1,1 -1,1 -1,0 -1,1 -2,0 0,0 -1,0 -1,0 -1,-1 0,-2 0,-2 0,-1 -1,-2 -1,-3 0,-1 2,-1 2,-1 0,-1 0,-1 0,-2 0,-1 0,-1 0,-2 0,-1 0,-1 0,-2 0,-1 -1,-1 -2,-2 0,-1 0,-1 0,-2 0,0 -1,0 -1,0 0,0 -1,0 -1,0 0,0 0,-1 0,-1 -1,-1 -1,-2 -1,-3 0,-1 0,-2 0,-3 -1,-1 -1,-2 -1,-2 -1,-1 0,-2 0,-2 0,-1 0,-1 0,-2 0,0 1,-1 1,-1 0,0 1,0 1,0 0,1 0,2 1,2 0,0 1,0 1,0 1,0 1,1 1,1 1,0 1,0 1,0 1,0 1,0 1,1 1,0 1,0 1,1z"/>
  <path class="Mali Lošinj" d="M416 432c0,0 -1,-1 -1,-1 0,0 -1,0 -1,1 0,0 1,1 1,1 0,1 -1,1 -1,1 -1,-1 -1,0 -1,1 0,1 1,1 2,2 0,1 0,1 1,2 0,1 0,2 1,3 1,0 1,0 2,0 0,0 1,0 1,1 1,0 1,1 1,2 1,1 1,1 2,2 0,0 1,-1 1,-1 0,0 1,-1 1,-1 0,-1 0,-1 0,-1 -1,-1 -1,-1 -1,-1 0,0 0,-1 0,-1 0,-1 0,-1 0,-1 0,0 -1,0 -1,-1 0,-1 0,-1 0,-2 0,-1 -1,-1 -1,-1 0,-1 -1,-1 -1,-2 0,0 -1,0 -1,0 0,0 -1,0 -1,0 -1,0 -1,-1 -2,-2 0,0 -1,-1 -1,-1z"/>
  <path d="M394 436c-1,0 -1,1 -2,1 0,0 0,0 0,0 -1,0 -1,-1 -1,-1 0,-1 0,-1 0,-1 -1,0 -1,0 -2,0 0,0 -1,0 -1,1 0,0 0,1 0,1 1,1 1,1 2,2 0,0 0,0 1,1 1,0 1,-1 2,-1 0,0 1,-1 1,-1 0,0 1,-1 1,-1 -1,0 -1,-1 -1,-1z"/>
  <path d="M429 450c0,0 -1,0 -1,0 -1,0 -1,0 -2,0 0,0 0,-1 -1,-1 0,0 0,0 0,1 -1,0 -1,1 -1,2 0,0 1,1 1,1 0,0 1,1 1,1 0,0 1,0 1,0 0,0 0,-1 1,-1 0,0 0,1 1,1 0,0 0,-1 0,-1 1,0 1,0 1,0 1,0 1,0 1,-1 0,0 -1,-1 -1,-1 0,0 1,-1 0,-1 0,0 0,0 -1,0z"/>
  <path d="M390 423c0,1 1,1 2,2 0,0 0,1 0,1 1,0 1,1 2,1 0,0 0,0 1,0 0,0 0,0 0,0 0,-1 0,-1 -1,-2 0,-1 -1,-1 -2,-2 0,0 -1,0 -1,0 0,-1 -1,0 -1,0z"/>
  <path d="M397 429c0,0 0,1 1,1 0,0 0,1 1,1 0,-1 0,-1 0,-1 0,-1 0,-1 -1,-1 0,-1 -1,-1 -1,-1 -1,0 -1,0 0,1z"/>
  <path d="M428 442c0,1 0,1 0,1 0,1 1,1 1,1 1,0 1,0 1,-1 0,0 0,-1 0,-1 -1,0 -1,-1 -1,-1 -1,1 -1,1 -1,1z"/>
  <path class="Rab" d="M472 398c0,1 1,1 1,1 0,1 -1,1 -1,1 0,0 0,0 -1,0 0,1 0,1 0,1 -1,0 -1,0 -1,0 0,0 -1,0 -1,0 0,0 0,-1 -1,-1 -1,-1 -1,-2 -2,-3 -1,-1 -2,-1 -3,-2 0,0 -1,-1 -1,-1 -1,-1 -2,-2 -2,-2 -1,0 -1,0 -1,0 -1,0 -1,0 -1,0 0,1 1,1 1,2 0,0 0,0 0,0 0,1 -1,1 -1,0 0,0 -1,-1 -1,-1 0,0 0,-1 -1,-1 0,0 -1,1 -2,1 0,0 0,0 -1,0 0,0 0,0 -1,-1 0,0 0,0 0,-1 0,0 -1,1 -1,1 -1,0 -1,0 -1,-1 -1,0 0,0 -1,-1 0,0 -1,0 -1,0 0,0 -1,0 -1,-1 0,0 0,-1 -1,-1 0,-1 -1,-1 -1,-1 0,0 -1,-1 -1,-1 0,-1 0,-1 1,-2 0,0 0,0 1,0 0,0 0,0 1,0 0,0 1,0 1,0 1,0 1,0 1,1 1,0 1,1 1,1 1,0 1,0 1,0 1,0 1,-1 0,-1 0,-1 -1,-1 -1,-2 0,0 1,-1 1,-1 0,0 1,1 1,1 0,0 1,1 1,1 0,0 1,-1 1,-1 -1,-1 -1,-2 -2,-3 -1,-1 -2,-2 -3,-3 0,-1 -1,-1 -1,-2 0,0 0,-1 0,-1 0,0 1,0 1,0 1,0 1,-1 2,0 0,0 0,0 1,0 0,1 0,1 1,1 0,1 1,2 1,2 1,0 2,-1 1,-2 -1,0 -1,-1 -1,-1 0,-1 0,-1 1,-2 0,0 0,0 0,0 1,1 0,1 1,1 0,1 0,0 1,0 0,0 0,0 1,0 0,1 0,2 0,2 0,0 1,0 2,0 0,0 0,1 0,1 0,0 -1,0 -1,1 0,0 0,0 0,1 0,0 -1,0 -2,0 0,0 0,1 0,2 0,0 1,1 1,1 1,1 2,2 3,3 1,1 0,2 1,3 1,1 3,1 4,2 1,0 1,2 1,3 1,1 2,2 2,2 1,1 1,2 1,3 1,0 2,1 2,1z"/>
  <path d="M466 400c-1,-1 -1,-2 -3,-3 0,0 -1,-1 -2,-1 0,0 0,1 0,1 1,1 1,1 2,2 0,1 1,1 2,2 0,0 1,1 1,2 1,0 1,0 1,0 1,0 1,0 0,-1 0,0 -1,-1 -1,-2z"/>
  <path d="M465 362c1,1 1,1 2,2 0,0 1,0 1,0 0,1 1,1 1,2 0,0 1,0 1,-1 0,0 0,-1 0,-2 0,-1 0,-2 -1,-3 -1,-1 -2,-2 -3,-4 -1,0 -1,0 -2,0 0,0 -1,0 -1,0 0,0 -1,0 -1,0 0,0 0,0 0,1 0,0 0,0 0,0 0,1 -1,1 -1,2 0,0 1,1 1,1 0,1 1,1 1,2 1,0 2,0 2,0z"/>
  <path d="M459 371c0,0 0,1 1,1 0,0 1,0 1,0 1,0 2,0 2,0 0,0 1,0 1,-1 0,0 -1,-1 -1,-1 -1,-1 -1,-1 -2,-2 0,0 0,-1 0,-1 -1,0 -1,0 -2,0 0,0 0,-1 -1,-1 0,0 -1,0 -1,0 0,0 0,0 0,1 0,0 0,1 0,1 0,0 -1,0 -1,0 0,1 0,1 1,2 0,0 0,1 0,1 1,0 1,0 2,0z"/>
  <path d="M466 374c-1,0 0,1 0,1 0,0 0,1 0,1 1,0 1,0 1,0 1,0 1,0 1,1 0,0 0,0 1,0 0,-1 0,-1 1,-1 0,-1 0,-1 1,-1 0,0 0,-1 0,-1 0,-1 -1,-1 -1,-1 0,0 -1,0 -1,0 -1,0 -1,0 -1,0 -1,0 -1,0 -1,0 -1,0 -1,0 -1,1z"/>
  <path d="M434 289c0,1 1,1 1,1 1,0 1,0 1,0 0,-1 0,-1 -1,-2 0,0 -1,1 -1,1z"/>
  <path class="Krk" d="M468 346c0,0 1,1 0,1 0,1 0,1 -1,2 0,0 -1,0 -1,1 0,0 -1,-1 -1,-1 0,0 -1,0 -1,0 -1,0 -1,0 -1,0 0,0 -1,0 -1,0 0,1 1,1 1,1 0,1 0,2 0,2 0,0 -1,1 -1,1 -1,0 -2,0 -2,0 -1,0 -1,-1 -1,0 -1,0 -1,0 -2,1 0,0 0,0 0,1 -1,0 -1,1 -1,1 -1,0 -1,0 -1,-1 -1,0 -1,-1 -1,-1 -1,-1 -1,-1 -2,-1 0,0 -1,0 -2,0 0,-1 0,-1 0,-1 0,-1 0,-1 0,-2 0,0 -1,-1 -1,-1 -1,-1 -1,0 -1,0 -1,0 -1,0 -2,0 0,0 0,0 0,0 -1,0 -1,-1 -2,-1 -1,-1 -1,-1 -2,-1 0,0 -1,-1 -1,-1 0,-1 -1,-1 -1,-2 0,0 0,-1 0,-1 1,-1 1,-1 2,-2 0,0 -1,0 -1,-1 0,0 0,-1 0,-2 1,0 1,-1 1,-1 0,-1 0,-1 0,-1 0,-1 0,-2 -1,-2 0,-1 0,-1 0,-1 -1,0 -1,0 -1,0 0,0 0,1 -1,1 0,1 0,1 0,2 0,0 0,1 0,1 0,0 1,0 1,1 0,0 0,1 -1,1 0,-1 -1,0 -1,-1 -1,0 -1,0 -1,-1 -1,-1 -1,-2 -3,-1 0,0 -1,1 -1,1 -1,1 -1,1 -2,0 -1,0 -3,-1 -4,-1 -1,-1 -2,-1 -3,-2 0,-1 -1,-1 -2,-2 0,0 0,-1 0,-2 -1,0 -1,0 -1,0 -1,0 -1,0 -1,0 -1,0 -2,-1 -2,-2 -1,-1 -2,-2 -2,-4 0,-1 0,-1 0,-2 0,-1 0,-1 1,-2 0,0 0,0 1,0 0,-1 1,0 1,-1 0,0 1,-1 1,-1 0,0 0,-1 0,-1 0,-1 0,-1 0,-1 0,-1 0,-1 0,-2 0,0 0,-1 1,-1 0,0 0,0 1,0 0,0 1,0 1,0 1,1 1,1 2,2 0,0 1,0 1,0 1,0 1,0 2,-1 0,0 0,-1 0,-2 1,0 1,-1 0,-2 0,-1 0,-1 0,-1 0,-1 0,-1 1,-1 0,-1 0,0 1,0 0,-1 0,-2 0,-3 1,0 1,-1 1,-1 0,-1 -1,-2 -1,-3 0,0 1,-1 1,-2 0,0 0,-1 0,-1 0,0 0,-1 -1,-1 0,0 0,-1 0,-1 -1,0 -1,-1 -1,-1 1,0 1,-1 1,-1 1,1 1,1 1,2 1,0 1,0 1,1 0,0 0,1 1,1 0,0 0,0 0,-1 0,0 1,-1 0,-1 0,-1 0,-1 -1,-1 0,-1 0,-1 0,-2 0,0 0,0 0,0 0,-1 1,-1 1,-1 0,0 1,0 1,0 0,0 0,0 1,0 0,0 0,0 0,0 1,1 1,2 2,1 0,0 0,-1 1,-1 0,0 0,0 1,1 0,0 0,0 1,1 0,0 0,0 1,1 0,0 0,0 0,1 0,0 -1,0 -1,0 0,0 -1,-1 -1,-1 0,0 -1,0 -1,0 0,0 0,1 0,1 0,1 1,1 1,1 0,1 1,1 1,1 1,1 1,1 1,2 1,0 1,1 1,2 1,1 0,1 1,2 0,0 1,0 1,0 0,0 1,1 0,1 0,0 0,1 0,1 -1,0 -1,-1 -2,-1 0,1 0,1 0,1 -1,0 -1,1 0,1 0,0 0,1 1,1 0,0 0,0 1,0 0,0 1,-1 1,-1 1,0 1,0 2,0 1,1 1,2 2,3 0,0 0,1 0,1 1,0 1,1 1,1 1,0 1,0 1,1 0,0 0,0 0,1 0,0 -1,0 -1,1 0,0 -1,0 -1,1 0,0 0,1 0,1 0,0 0,1 1,1 0,1 0,1 0,1 0,1 -1,1 -1,2 0,0 0,1 0,1 1,1 1,1 1,2 1,1 1,1 2,1 0,0 1,0 2,0 0,0 1,0 1,1 1,0 1,0 1,0 1,1 1,0 2,0 0,0 1,0 1,1 0,0 0,0 0,1 0,0 0,1 0,1 0,1 1,1 1,1 1,1 0,2 1,3 0,1 1,1 2,2 0,1 0,2 0,2 1,1 2,2 3,3 0,0 0,1 0,1 0,0 -1,1 0,1 0,0 0,0 0,0 1,0 1,0 1,0 1,1 1,1 1,1 0,1 0,1 0,2 0,0 0,1 0,1z"/>
 </g>

 <g id="Bjelovarsko-bilogorska županija" class="pol bb fil14">
  <path class="bb_kopno" d="M864 236l0 0c-2,-1 -4,0 -6,-2 -1,-2 -1,-6 -1,-8 1,-2 2,-3 3,-4 0,-1 -1,-1 -1,-1 2,-3 6,-4 7,-6 1,-2 -1,-4 -1,-6 0,-1 2,-3 1,-4 -1,-1 -3,0 -4,-1 -1,-1 -1,-3 -1,-4 -1,-1 -2,-1 -3,-1 -2,2 -3,5 -5,6 -2,1 -5,-1 -6,-2 -1,-2 2,-4 2,-5 -1,-2 -1,-2 -3,-3 -1,0 -2,2 -4,2 -1,0 -1,-2 -2,-3 0,-1 1,-2 0,-3 0,-2 -2,-1 -3,-2 -1,-2 -1,-4 -2,-5 -3,-3 -8,-4 -11,-7 -2,-2 -2,-5 -4,-6 -2,-1 -5,2 -7,1 -1,-1 0,-3 -1,-4 0,0 0,0 0,-1 -2,-2 -5,-3 -7,-5 -1,-2 0,-4 -1,-6 -1,-1 -3,-1 -5,-1 -1,1 -2,3 -4,3 -1,0 -3,0 -4,-1 -1,-2 1,-5 -1,-6 -2,-2 -5,0 -7,0 -1,0 -2,-1 -2,-2 -1,-1 0,-2 0,-4 1,-1 2,-3 1,-5 0,-1 -2,-2 -4,-3 -1,-1 -2,-1 -3,-3 -1,-1 0,-3 -2,-5 0,-1 -2,-2 -4,-1 -1,1 0,5 -1,6 -3,1 -6,1 -9,2 -2,0 -6,0 -7,1 -2,3 -3,2 -3,7 0,1 -1,5 -1,6 0,2 -1,4 -1,5 0,2 -1,4 0,6l0 0c0,0 0,0 0,0 0,2 0,3 0,5 -1,1 1,1 1,4 0,1 -1,1 -2,2 0,1 0,3 -1,3 -2,0 -1,2 -4,2 0,1 -1,0 -1,-1 0,-1 -1,-1 -2,-1 -1,1 1,3 -3,4 -1,1 -1,1 -1,2 0,1 2,2 1,3 0,1 -1,1 -2,1 -2,0 -2,0 -3,1 0,1 -7,0 -9,1 -1,2 -2,4 0,5 3,2 0,6 1,8 0,1 2,2 3,3 2,0 4,1 6,2 2,1 3,4 4,6l0 0c1,0 1,1 2,1 4,3 10,2 15,4 1,1 0,4 2,5 2,1 6,-1 9,1 2,2 0,7 2,10 2,3 5,3 7,5 1,2 2,4 1,6 0,2 -4,1 -4,3 -1,1 1,3 2,5 1,0 3,-1 4,0 1,0 2,2 4,3l0 -1c1,-2 2,-5 2,-8 1,-2 -1,-4 0,-6 1,-1 2,-2 4,-2 1,0 1,2 3,3 1,0 3,-1 4,0 1,1 2,4 4,5 1,1 3,0 5,0 1,0 2,2 4,2 1,-1 2,-3 4,-4 1,0 4,1 6,0 1,0 1,-3 2,-3 1,-1 3,0 4,0 2,1 3,3 5,3 4,0 7,-1 11,-2 3,-1 6,-2 8,-2 2,0 2,3 3,4 2,1 4,1 6,0 1,0 2,-2 3,-3 1,-1 2,-2 3,-3 1,0 3,0 4,-1z"/>
 </g>

 <g id="Koprivničko-križevačka županija" class="pol kk fil10">
  <path class="kk_kopno" d="M812 168l0 0c-2,-3 -5,-4 -7,-6 -1,-2 0,-4 -1,-6 -1,-1 -3,-1 -5,-1 -1,1 -2,3 -4,3 -1,0 -3,0 -4,-1 -1,-2 1,-5 -1,-6 -2,-2 -5,0 -7,0 -1,0 -2,-1 -2,-2 -1,-1 0,-2 0,-4 1,-1 2,-3 1,-5 0,-1 -2,-2 -4,-3 -1,-1 -2,-1 -3,-3 -1,-1 0,-3 -2,-5 0,-1 -2,-2 -4,-1 -1,1 0,5 -1,6 -3,1 -6,1 -9,2 -2,0 -6,0 -7,1 -2,3 -3,2 -3,7 0,1 -1,5 -1,6 0,2 -1,4 -1,5 0,2 -1,4 0,6l0 0c-1,0 -1,0 -3,0 -1,0 -3,-2 -5,-2 -1,0 -1,2 -3,2 0,0 -2,1 -2,0 -2,-1 -2,-3 -3,-4 -3,-3 -5,-6 -9,-7 -2,0 -2,2 -3,4 -1,0 -3,0 -4,-1 -1,-2 0,-5 -1,-7 -1,-1 -2,-3 -4,-3 -1,-1 -2,0 -3,-1 -2,0 -2,-2 -4,-2 -2,-1 -6,0 -8,-1 0,0 0,0 0,0l0 0c0,0 0,0 0,0 1,-3 -1,-7 1,-10 1,-3 2,-5 3,-7 1,-2 -1,-5 1,-7 2,-2 5,0 7,-2 2,-1 3,-4 5,-5 3,-1 7,0 11,-1 1,0 3,-1 4,-2 0,-1 0,-3 1,-3 1,-2 2,-3 4,-4 2,-1 5,0 7,-1 2,0 5,2 7,1 1,0 2,-2 3,-3 2,-2 6,-3 7,-6 2,-3 1,-8 2,-11l0 0c0,0 1,0 1,0 2,1 4,1 5,1 2,-1 2,-1 3,-1 2,-1 4,0 5,0l0 0c2,2 3,4 4,6 1,1 1,3 2,4 2,2 4,4 6,6 0,0 0,1 0,2 1,1 1,1 2,2 0,0 1,1 1,2 1,0 4,1 5,1 2,0 7,0 11,3 4,3 11,-1 13,11 0,1 2,1 2,1 1,1 1,1 2,1 0,1 1,2 1,3 0,0 1,1 1,1 1,1 2,2 3,2 0,1 0,2 1,3 0,1 0,2 1,4 0,1 1,3 1,4 0,1 1,2 1,2 1,0 1,0 2,0 0,0 1,0 2,0 0,0 1,1 1,1 0,1 0,1 0,2 0,0 -1,0 -1,1 0,0 0,1 0,1 0,0 0,0 0,0 1,1 1,1 2,2 0,0 0,1 0,2 1,0 1,0 1,0 1,0 1,0 1,0l0 0c0,3 -1,5 -2,7 -1,1 -2,2 -3,2 -2,0 -3,-2 -4,-2 -1,-1 -2,0 -2,0 -1,1 -1,3 -2,4 -2,3 -5,5 -7,7 -2,2 -3,3 -5,5z"/>
 </g>

 <g id="Varaždinska županija" class="pol v fil15">
  <path class="v_kopno" d="M758 78c-1,3 0,8 -2,11 -1,3 -5,4 -7,6 -1,1 -2,3 -3,3 -2,1 -5,-1 -7,-1 -2,1 -5,0 -7,1 -2,1 -3,2 -4,4 -1,0 -1,2 -1,3 -1,1 -3,2 -4,2 -4,1 -8,0 -11,1 -2,1 -3,4 -5,5 -2,2 -5,0 -7,2 -2,2 0,5 -1,7 -1,2 -2,4 -3,7 -2,3 0,7 -1,10 0,0 0,0 0,0 -1,1 -1,1 -2,1 -1,0 -3,0 -3,0 -1,-1 -1,-5 -1,-6 -1,0 -3,1 -4,0 -1,-1 -1,-2 -1,-3l0 0c0,0 0,-1 0,-1 0,-3 0,-5 0,-8 0,-5 0,-11 -1,-15 -1,-2 -2,-2 -4,-3 0,-1 0,-2 -1,-2 0,-1 -1,-3 -2,-3 -2,1 -5,2 -8,2 -2,0 -4,-1 -6,-1 -5,0 -9,1 -14,1 -2,0 -4,-1 -6,-2 -1,-1 -1,-4 -2,-5 -3,-2 -7,0 -9,-2 -2,-1 -1,-3 -2,-5 0,-1 -1,-1 -2,-1l0 -1 5 -3 1 -1 3 1 5 -4 3 -3 2 0 2 -1 2 0 4 -4 6 1 2 -2 -3 -3 -2 -2 2 -3 6 -1 3 1 5 3 6 1 1 -1 0 0c0,0 0,0 0,0 2,1 10,2 12,4 2,1 5,3 7,5 1,0 2,1 3,2 4,1 8,1 12,2 1,0 2,1 4,0 1,0 2,0 3,0 1,0 2,1 3,1 1,0 2,0 2,-1 2,-1 1,-2 7,-2 3,0 5,0 7,0 1,0 2,2 4,2 2,0 3,-1 4,-2 1,0 3,0 4,0 1,0 2,1 3,1 1,1 2,1 3,2z"/>
 </g>

 <g id="Karlovačka županija" class="pol k fil16">
  <path class="k_kopno" d="M552 186l0 1c2,3 2,5 4,8 1,1 2,1 3,2 1,1 1,3 2,4 0,1 2,0 3,1 2,2 2,5 3,6 2,1 4,1 5,2 2,1 2,3 3,5 0,1 -1,3 -1,4 0,1 3,1 3,1 2,1 3,3 4,3 2,-1 3,-4 5,-5 1,0 3,0 4,1 2,1 4,3 6,3 1,0 3,-1 5,0 1,0 4,1 4,2 1,2 -2,4 -1,6 1,2 4,1 6,2 1,0 3,2 3,3 0,2 1,3 1,3 2,-1 2,-1 2,-2 1,-1 2,-2 3,-3 0,-1 1,-1 3,-1 1,0 1,0 2,1 1,0 1,2 2,3 0,0 1,0 2,0 1,1 3,1 3,2 2,2 1,4 2,6 0,1 0,2 1,2l0 1 -10 -1 -6 2 0 6 -3 5 0 7 -5 2 1 4 3 2 1 6 -3 5 -2 4 2 3 5 1 2 6 0 0 -1 1 -1 0 -2 1 -2 2 0 1 -3 2 -2 1 2 7 2 6 -2 6 -1 2 1 10 0 3 0 2 0 2 0 2 -1 1 -2 1 -1 0 0 2 0 2 -1 1 -1 1 0 0c-2,3 -2,2 -3,2 -1,0 -2,1 -2,1 0,0 -1,1 -3,-1 0,0 0,0 -1,-1 0,0 -1,-1 -2,-2 -1,0 -1,0 -2,0 -1,0 -2,0 -2,1 -1,0 -1,1 -2,1 0,0 0,0 -1,0 -1,1 -2,1 -3,1 -2,0 -2,-3 -4,-3 -2,0 -3,2 -4,3 -1,1 0,3 -1,5 0,1 0,2 -1,2 -1,0 -2,-1 -3,-2 -1,-1 -1,-2 -2,-3 -2,-1 -5,0 -7,-1 -2,-2 -2,-5 -3,-8 -3,-4 -6,-9 -10,-13 -1,-1 -3,1 -4,1 -2,0 -3,-1 -4,-2 -1,-2 0,-4 -2,-5 -2,-3 -6,-3 -9,-5 -1,-2 -1,-4 -3,-5 -1,-1 -2,-2 -3,-1 -2,1 -4,3 -6,4 -1,1 -3,1 -5,0 -2,-1 -3,-4 -6,-6 -2,0 -4,0 -6,0l0 0c0,0 -1,-1 -1,-2 -2,-4 -7,-6 -8,-10 -1,-2 2,-3 3,-5 1,-2 0,-5 0,-7 0,-2 1,-3 1,-5 -1,-1 -3,-2 -3,-4 0,-1 1,-2 1,-4 1,-1 1,-3 2,-4 1,0 4,-1 5,0 1,1 0,4 1,4 2,1 5,-1 7,0 1,0 1,2 2,3 1,1 2,1 3,0 1,-1 2,-3 4,-4 1,-1 3,-1 4,-2 1,0 2,-1 3,-2 0,-1 -1,-2 -1,-4 1,-2 1,-5 2,-7 2,-3 4,-6 6,-10 0,0 0,0 0,0l0 0 0 0c0,0 1,0 1,0 1,-1 1,-2 2,-2 0,-1 1,-3 2,-4 0,0 1,0 2,0 1,0 3,0 4,0 1,0 3,1 4,1 1,0 1,0 2,0 1,-1 1,-2 1,-3 1,0 1,-1 2,-1 0,-1 1,-1 2,-1 0,0 1,-1 1,-1 0,-1 0,-2 -1,-2 0,-1 -1,-1 -2,-1 -2,-1 -3,-2 -4,-3 -1,-1 -3,-3 -4,-4 -1,-2 -1,-4 -1,-5 0,-2 1,-3 1,-4 0,0 0,-1 0,-1 -1,-1 -2,-1 -2,-2 0,-1 0,-2 0,-3 1,0 2,0 2,0 1,-1 1,-2 1,-2 0,-1 0,-2 1,-2 1,0 2,0 3,0 1,-1 1,-2 2,-3 1,0 1,0 2,0 1,0 2,1 3,1 0,1 1,0 1,0 1,0 1,0 2,0 0,-1 0,-3 0,-3 0,-1 0,-2 -1,-2 -1,-2 -3,-2 -4,-4 0,0 0,-1 0,-2 0,-1 1,-2 1,-3 0,-1 -1,-2 -1,-2 -1,0 -2,1 -3,1 0,1 -1,2 -1,3 -1,0 -1,2 -2,2 0,0 -1,-1 -1,-2 0,0 0,-1 0,-1 0,0 -1,0 -2,0 0,1 0,2 -1,3 0,0 0,1 -1,1 0,0 -1,0 -2,-1 0,0 1,-2 0,-2 0,-1 0,-2 -1,-2 -1,0 -2,0 -3,-1 0,0 -1,-1 -1,-2 1,-1 1,-3 2,-4 1,-1 3,-1 4,-2 2,-1 4,-1 5,-2 2,-1 4,-1 6,-2 0,0 0,0 0,0z"/>
 </g>

 <g id="Sisačko-moslavačka županija" class="pol sm fil15">
  <path class="sm_kopno" d="M735 211l0 0c1,0 1,1 2,1 4,3 10,2 15,4 1,1 0,4 2,5 2,1 6,-1 9,1 2,2 0,7 2,10 2,3 5,3 7,5 1,2 2,4 1,6 0,2 -4,1 -4,3 -1,1 1,3 2,5 1,0 3,-1 4,0 1,0 2,2 4,3 1,0 2,-1 4,-1 4,1 8,2 11,4 2,2 -1,7 1,8 2,1 3,-4 6,-5 1,0 3,1 3,2 1,3 -2,6 0,9 2,2 7,1 9,4 1,2 -1,5 0,7 2,2 5,0 7,2 2,0 3,3 2,4 -4,4 -10,6 -13,10 -1,2 -1,4 0,5 1,2 3,2 4,4 0,1 -1,2 -1,4l0 0c-2,-1 -3,-2 -4,-2 -2,-1 -3,-2 -4,-3 -1,-1 -2,-2 -3,-3 -1,-1 -2,-2 -2,-3 -1,0 -1,-1 -2,-2 -1,0 -1,-1 -2,-1 -1,0 -1,0 -2,0 0,-1 0,-1 0,-2 -1,0 -1,0 -1,0 -1,-1 -1,0 -2,0 0,0 -1,0 -1,0 -1,-1 -1,-2 -2,-2 -1,0 -2,0 -2,0 -1,1 0,2 -1,3 0,0 -1,1 -2,1 -1,-1 -2,-1 -2,-2 -1,-1 -1,-1 -1,-2 1,-1 2,-2 2,-3 0,-1 -1,-1 -1,-2 -1,0 -2,-1 -3,-1 -1,0 0,0 -1,0 0,1 -1,1 -1,2 0,1 1,1 0,2 0,1 -2,1 -2,2 -1,0 0,1 0,2 0,1 -1,1 -2,1 -1,1 -2,0 -3,0 -1,1 -2,1 -2,2 0,1 1,2 1,3 0,1 0,3 -1,3 -1,1 -3,1 -4,1 -1,-1 -3,-2 -4,-2 -2,-1 -4,-2 -5,-3 -2,0 -4,1 -6,1 -1,0 -3,0 -4,0 -2,0 -4,-1 -5,-2 -1,-1 -1,-2 -2,-3 0,0 -1,-1 -2,-1 -2,0 -3,1 -5,1 -1,0 -2,0 -3,0 -1,0 -2,0 -3,0 -1,0 -3,0 -3,0 -2,2 -3,4 -5,6 -1,2 -2,2 -3,4 0,1 0,2 0,3 -1,1 -1,2 -2,3 -1,2 -3,3 -5,4 -1,1 -3,3 -3,4 -1,3 -1,5 -2,8 0,1 -1,2 -1,4 0,0 1,1 1,2 -1,2 -2,4 -4,6 -1,1 -2,2 -4,2 -1,1 -2,1 -3,1 -1,1 -2,-2 -2,-2l-3 -4 -4 -1 -7 -2 -5 -3 -2 -6 -3 -3 -5 -4 -4 -5 -6 -6 -4 -1 -2 -2 0 -3 -2 -2 -2 -2 -4 1 -2 1 -1 -2 0 -2 -2 0 -1 1 -2 2 -2 0 -2 1 -1 0 -2 0 0 0 -2 -6 -5 -1 -2 -3 2 -4 3 -5 -1 -6 -3 -2 -1 -4 5 -2 0 -7 3 -5 0 -6 6 -2 10 1 0 -1 0 1c0,0 0,0 1,0 1,0 6,0 7,-1 1,-1 2,-2 3,-3 2,0 3,-1 4,0 1,0 2,1 2,2 1,1 1,2 1,1 2,0 4,-1 5,-2 1,0 2,0 3,-1 1,-2 2,-5 2,-7 -1,-2 -3,-2 -4,-4 -1,-1 -3,-2 -3,-4 -1,-2 1,-3 2,-5 1,0 3,0 4,-1 1,-1 -1,-3 1,-4 2,-1 5,-1 7,0 2,1 2,3 4,4 1,1 2,0 3,1 1,1 0,3 1,4 1,0 3,0 4,-1 1,-2 2,-4 3,-5 1,-2 4,-3 4,-4 0,-2 -2,-3 -3,-4 0,-1 0,-3 0,-4 1,-1 3,-1 4,-1 2,0 4,1 6,2 2,1 3,0 4,2 1,1 1,2 1,2 1,2 1,2 4,5 2,2 1,3 3,4 1,0 2,1 3,2 2,1 3,2 3,3 2,1 3,1 4,-1 0,0 1,-2 1,-3 -2,-2 -1,-4 0,-4 0,-1 2,0 3,0 0,-1 1,-1 2,-1 1,1 1,2 2,1 0,0 0,0 0,-1 0,0 0,-1 1,-2 1,-2 2,-4 3,-4 1,0 2,0 3,0 1,-1 2,-1 3,-2z"/>
 </g>

 <g id="Krapinsko-zagorska županija" class="pol kz fil17">
  <path class="kz_kopno" d="M684 131l0 0c-2,0 -3,0 -5,1 -1,1 0,4 -1,5 0,1 -3,2 -4,3 0,1 0,3 0,4 0,2 -1,3 -2,4 -1,1 -1,0 -3,1 -1,0 -1,1 -1,1l0 0c-1,0 -2,1 -2,1 -1,1 -4,0 -5,1 -2,1 -3,3 -5,4 -1,0 -1,-1 -2,-1 -3,1 -4,2 -7,3 -1,1 -3,2 -5,1l0 0c-2,0 -3,-3 -5,-4 -2,-2 -4,-3 -6,-4 -1,-1 -2,0 -3,0 -1,1 -2,1 -3,1 -2,-1 -3,-4 -5,-6 -1,0 -2,0 -3,0 -1,1 0,3 -1,4 0,0 -1,1 -2,0 -1,0 -2,-2 -3,-2 -2,-1 -4,0 -6,-1l0 0c0,0 0,0 0,0 0,-1 0,-1 0,-2 0,0 0,-1 0,-2 0,0 -1,-1 -1,-1 0,-1 0,-1 1,-2 0,0 0,-1 0,-1 0,-1 0,-2 0,-2 0,-1 1,-2 1,-2 0,-1 1,-2 0,-3 0,-1 -1,-2 -2,-2 0,-1 0,-2 0,-2 0,0 -1,-1 -1,-1 -1,0 -1,0 -2,0 -1,-1 -1,-1 -2,-1 -1,-1 -2,-2 -2,-3 -1,0 0,-1 -1,-1 0,-1 -1,0 -2,-1 -1,0 -2,-1 -2,-2 -1,-1 -2,-1 -2,-2 0,-1 1,-2 1,-3 0,-1 -1,-2 -1,-3 0,-1 -1,-2 -1,-2 0,-1 1,-1 1,-2 0,0 -1,-1 -1,-2 1,0 1,-1 1,-1 1,-1 1,-1 2,-1 0,0 1,0 1,0 1,0 1,0 2,0 0,-1 0,-2 1,-3 0,-1 0,-2 1,-3 0,-1 0,-1 1,-2 1,0 2,0 3,0 1,0 2,0 4,0 0,1 1,1 2,1 0,0 1,-1 2,0 1,0 2,0 2,1 1,0 4,-1 4,-1 2,-2 0,-3 1,-5 0,-2 3,-2 3,-2l7 -3 1 -1 0 1c1,0 2,0 2,1 1,2 0,4 2,5 2,2 6,0 9,2 1,1 1,4 2,5 2,1 4,2 6,2 5,0 9,-1 14,-1 2,0 4,1 6,1 3,0 6,-1 8,-2 1,0 2,2 2,3 1,0 1,1 1,2 2,1 3,1 4,3 1,4 1,10 1,15 0,3 0,5 0,8 0,0 0,1 0,1z"/>
 </g>

 <g id="Zagrebačka županija" class="pol z fil18">
  <path class="z_kopno" d="M552 186l0 0 0 1c2,3 2,5 4,8 1,1 2,1 3,2 1,1 1,3 2,4 0,1 2,0 3,1 2,2 2,5 3,6 2,1 4,1 5,2 2,1 2,3 3,5 0,1 -1,3 -1,4 0,1 3,1 3,1 2,1 3,3 4,3 2,-1 3,-4 5,-5 1,0 3,0 4,1 2,1 4,3 6,3 1,0 3,-1 5,0 1,0 4,1 4,2 1,2 -2,4 -1,6 1,2 4,1 6,2 1,0 3,2 3,3 0,2 1,3 1,3 2,-1 2,-1 2,-2 1,-1 2,-2 3,-3 0,-1 1,-1 3,-1 1,0 1,0 2,1 1,0 1,2 2,3 0,0 1,0 2,0 1,1 3,1 3,2 2,2 1,4 2,6 0,1 0,2 1,2l0 1c0,0 0,0 1,0 1,0 6,0 7,-1 1,-1 2,-2 3,-3 2,0 3,-1 4,0 1,0 2,1 2,2 1,1 1,2 1,1 2,0 4,-1 5,-2 1,0 2,0 3,-1 1,-2 2,-5 2,-7 -1,-2 -3,-2 -4,-4 -1,-1 -3,-2 -3,-4 -1,-2 1,-3 2,-5 1,0 3,0 4,-1 1,-1 -1,-3 1,-4 2,-1 5,-1 7,0 2,1 2,3 4,4 1,1 2,0 3,1 1,1 0,3 1,4 1,0 3,0 4,-1 1,-2 2,-4 3,-5 1,-2 4,-3 4,-4 0,-2 -2,-3 -3,-4 0,-1 0,-3 0,-4 1,-1 3,-1 4,-1 2,0 4,1 6,2 2,1 3,0 4,2 1,1 1,2 1,2 1,2 1,2 4,5 2,2 1,3 3,4 1,0 2,1 3,2 2,1 3,2 3,3 2,1 3,1 4,-1 0,0 1,-2 1,-3 -2,-2 -1,-4 0,-4 0,-1 2,0 3,0 0,-1 1,-1 2,-1 1,1 1,2 2,1 0,0 0,0 0,-1 0,0 0,-1 1,-2 1,-2 2,-4 3,-4 1,0 2,0 3,0 1,-1 2,-1 3,-2 -1,-2 -2,-5 -4,-6 -2,-1 -4,-2 -6,-2 -1,-1 -3,-2 -3,-3 -1,-2 2,-6 -1,-8 -2,-1 -1,-3 0,-5 2,-1 9,0 9,-1 1,-1 1,-1 3,-1 1,0 2,0 2,-1 1,-1 -1,-2 -1,-3 0,-1 0,-1 1,-2 4,-1 2,-3 3,-4 1,0 2,0 2,1 0,1 1,2 1,1 3,0 2,-2 4,-2 1,0 1,-2 1,-3 1,-1 2,-1 2,-2 0,-3 -2,-3 -1,-4 0,-2 0,-3 0,-5 0,0 0,0 0,0 -1,0 -1,0 -3,0 -1,0 -3,-2 -5,-2 -1,0 -1,2 -3,2 0,0 -2,1 -2,0 -2,-1 -2,-3 -3,-4 -3,-3 -5,-6 -9,-7 -2,0 -2,2 -3,4 -1,0 -3,0 -4,-1 -1,-2 0,-5 -1,-7 -1,-1 -2,-3 -4,-3 -1,-1 -2,0 -3,-1 -2,0 -2,-2 -4,-2 -2,-1 -6,0 -8,-1 0,0 0,0 0,0 -1,1 -1,1 -2,1 -1,0 -3,0 -3,0 -1,-1 -1,-5 -1,-6 -1,0 -3,1 -4,0 -1,-1 -1,-2 -1,-3 -2,0 -3,0 -5,1 -1,1 0,4 -1,5 0,1 -3,2 -4,3 0,1 0,3 0,4 0,2 -1,3 -2,4 -1,1 -1,0 -3,1 -1,0 -1,1 -1,1 3,5 2,8 3,11 1,3 0,5 0,8 1,1 0,4 1,5 1,3 1,4 0,7 0,1 -3,0 -4,1 -4,1 -1,2 -5,1 -4,0 -6,4 -8,6 -1,2 1,3 -2,3 -3,1 -4,1 -5,4 -1,2 -1,6 -3,7 -5,3 -2,11 -6,12 -1,1 -3,0 -5,-1 -2,-1 -1,-3 -4,-4 -2,-1 -3,-1 -6,-2 -2,-1 -2,-1 -4,-2 -1,-2 -3,-2 -5,-4 -1,-1 -4,-1 -5,-3 0,-3 3,-6 4,-9 1,-1 1,-3 2,-3 3,-1 6,1 9,-1 1,0 1,-2 1,-4 0,0 -1,-1 -1,-1 -1,-2 -1,-3 -2,-4 -1,-1 -2,-2 -2,-3 1,-1 0,-2 1,-3 6,-1 13,-8 20,-12 -2,0 -3,-3 -5,-4 -2,-2 -4,-3 -6,-4 -1,-1 -2,0 -3,0 -1,1 -2,1 -3,1 -2,-1 -3,-4 -5,-6 -1,0 -2,0 -3,0 -1,1 0,3 -1,4 0,0 -1,1 -2,0 -1,0 -2,-2 -3,-2 -2,-1 -4,0 -6,-1 1,1 1,2 1,2 0,1 -1,1 -1,2 -1,0 -2,1 -2,1 0,1 0,2 0,3 0,1 -1,1 -1,2 0,0 0,1 -1,2 0,0 -1,1 -1,1 0,1 0,1 0,2 -1,0 0,1 0,1 0,1 -1,2 -1,2 -1,0 -2,-1 -2,0 0,2 -1,4 -3,6 -1,1 -3,1 -5,1 -2,0 -4,-1 -6,-1 -1,0 -2,0 -4,1 0,0 -1,0 -1,1 0,1 0,3 -1,4 0,0 -1,0 -2,0 -1,0 -1,-1 -2,-1 -1,0 -2,1 -3,1 0,1 -1,1 -1,1 -1,0 -3,-1 -4,-1 -1,0 -2,0 -3,1 -2,1 -3,1 -4,2 -1,2 -2,3 -3,4 -1,1 -1,2 -2,2 0,0 -1,0 -1,0z"/>
 </g>

 <g class="Rijeke 0_1" visibility="hidden"></g>
 <g class="Rijeke 0_12" visibility="hidden"></g>
 <g class="Rijeke 0_14" visibility="hidden"></g>
 <g class="Rijeke 0_16" visibility="hidden"></g>
 <g class="Rijeke 0_18" visibility="hidden"></g>
 <g class="Rijeke 0_20" visibility="hidden"></g>
 <g class="Rijeke 0_22" visibility="hidden"></g>
 <g class="Rijeke 0_24" visibility="hidden"></g>
 <g class="Rijeke 0_3" visibility="hidden"></g>
 <g id="Jezera" class="jez" visibility="hidden"></g>
 <g id="Veći_gradovi" class ="gradici" visibility="hidden"> </g>
 <g id="Županijski_centri" visibility="hidden" class="item"> </g>
  
</g>

 <script type="text/ecmascript"><![CDATA[
         ]]>
 </script> 

</svg>
